<svg id="Layer_1" data-name="Layer 1" xmlns="http://www.w3.org/2000/svg" viewBox="0 0 600 600"><defs><style>.cls-1{fill:red;stroke:#fafafa;stroke-miterlimit:10;stroke-width:2px;}</style></defs><path id="Eastern_Kurdistan" data-name="Eastern Kurdistan" class="cls-1" d="M418.27,440H396.69l-6.5-2.89v-5.82l8.09-5.69,14.24-21.87-2.45-8.62-.79-8.15,10.55,4,2.4,2.09h5.71l1.12-1.12.88-2.82,2-.57V377h-2.38l-.91-5.42-4.86-8.69h-16l-8.93-13.31L394,346l-1.7-20.55-8.16-6.8-6.71,1.72-7.3,5.58h-7L351.32,318l-15.59-17.46-20-1.49L304.7,281.52l-2.94-5.87-8.7-9.31h-9.59c-2,3.07-4.1,6.64-4.21,7.39-.18,1.31-1.27,5.76-1.91,8.29-.23.94-2.39,5.3-3.05,6.61l-.37.75-.81-.24c-.26-.08-6.57-2-9.85-4.62-1.2-.95-2.11-1.63-2.91-2.23a27.25,27.25,0,0,1-3.52-2.92c-1.82-1.82-1.38-5.3-.76-10.11.16-1.26.34-2.61.48-4,.49-4.94-2.92-7.32-6.87-10.07l-1.81-1.27a13.58,13.58,0,0,1-3.65-3.7c-.82-1.17-1.59-2.28-5-4.3-2.87-1.72-3.31-2-3.37-2.78a1.4,1.4,0,0,1,.62-1.21c.39-.34,1.2-1,.4-4.24a39,39,0,0,0-3.15-8.57,26.16,26.16,0,0,1-1.92-4.71,6.32,6.32,0,0,1,.85-5.73,11,11,0,0,0,1.65-4.81c.45-4-.69-5-3.21-7.27-.66-.59-1.41-1.26-2.21-2.06a19.71,19.71,0,0,1-3.17-4,11.93,11.93,0,0,0-3.23-3.57c-2.56-2.06-2.3-4.27-2.06-6.23a6.85,6.85,0,0,0-.67-4.83c-2.06-3.47.26-6.37,2.31-8.92a18.47,18.47,0,0,0,2.8-4.21,20.23,20.23,0,0,1,1.83-3.41c1.24-2,1.86-2.95.68-6.49a36.39,36.39,0,0,1-1.95-13.63c0-6.91-.91-24.87-3.16-28.32a60.18,60.18,0,0,0-4-5c-5.43-6.4-8.59-10.43-6.55-12.47,1.4-1.4,4.57-1.81,8.24-2.29l2.35-.32a36.65,36.65,0,0,0-3.28-4.2,35.11,35.11,0,0,1-3.73-4.88,13.79,13.79,0,0,1-1.32-5c-.08-.61-.17-1.23-.27-1.82,0-.09,0-.17,0-.25s-.09-.41-.13-.61-.07-.26-.11-.39-.07-.27-.11-.39a.53.53,0,0,0-.21-.12s-.24.35-.37.54a2.45,2.45,0,0,1-1.93,1.32c-.95,0-1.79-.77-2.91-2.55a11,11,0,0,1-1.59-5.76l-.1,0c-.35-.14-.73-.27-1.12-.39L205,76.3l-1.31-.39A20.47,20.47,0,0,1,201,75a6.9,6.9,0,0,1-1.75-1.17,3,3,0,0,0-2.28-1c-2.68,0-3.28,2-4,5.18-.08.34-.17.68-.25,1a11.34,11.34,0,0,1-1.05,2.85,16.38,16.38,0,0,1-1.33,1.84,13.2,13.2,0,0,0-1.21,1.69,8.74,8.74,0,0,0-.68,3.57c0,.42,0,.84-.08,1.25a17.86,17.86,0,0,0,.5,3.56c.39,1.85.76,3.6-.2,5a3.83,3.83,0,0,1-1.06,1,8.15,8.15,0,0,1-3.06,1,11.39,11.39,0,0,1-7.37-1,9.42,9.42,0,0,0-4.09-1.05,35.19,35.19,0,0,1-4-.3c-.89-.1-1.74-.2-2.54-.24a11,11,0,0,0,0,1.9,7.77,7.77,0,0,0,.64,2.92l.61.14v.79a22.69,22.69,0,0,0,2.11,7.88,18.75,18.75,0,0,0,1.43,1.72c.94,1.06,1.73,2,2.34,2.79a5.36,5.36,0,0,1,1.3,2.68,1.88,1.88,0,0,1-.07.53,1.48,1.48,0,0,1-.6.79l-.16.43-.71,0a7.09,7.09,0,0,0-1.91.18,13.54,13.54,0,0,0,1.16,1.35A16,16,0,0,1,174,124c1.41,2,1.36,4.72,1.31,7.14,0,.41,0,.82,0,1.21,0,2.94,1.31,4.38,2.69,5.89s2.64,2.89,2.63,5.47a9.14,9.14,0,0,1-.25,2l-.29,1.11c-.54,2-1.65,6.22-.65,7.61,3.86,5.36,4,9.27,3.28,16.32-.05.61-.13,1.17-.21,1.73a17.71,17.71,0,0,0-.22,1.94h.52c3.53,0,8.36-.1,9.62,2.56a3.19,3.19,0,0,1,.21.59c.33,1.42-.39,3.15-2.18,5.27a24.4,24.4,0,0,0-4.24,8,31.4,31.4,0,0,1-3.67,7.56l-.22.33a98.51,98.51,0,0,0-5.43,10.83,21.62,21.62,0,0,1,11.43,6,7,7,0,0,0,1.7,1.32,17.3,17.3,0,0,0,3.28,1.32c2.13.7,4.47,1.47,5.11,3.87a6.7,6.7,0,0,1,0,3,6.7,6.7,0,0,0,.68,5,7.72,7.72,0,0,1,1,3.66c0,1.31-.13,2.59-.24,3.82-.35,3.62-.65,6.74,2,9.45a15.53,15.53,0,0,0,3,1.72c3.08,1.54,6.91,3.45,7.24,6.39.17,1.48-.59,3-2.25,4.43l-1,7c.09.27.16.54.22.8a14,14,0,0,1,.29,2.17,8.09,8.09,0,0,0,.5,2.58,5,5,0,0,0,.46.88,9.05,9.05,0,0,0,2.52,2.15,8.15,8.15,0,0,1,2.83,2.58c2.09,3.86.39,7.73-.85,10.55-.6,1.38-1.29,2.94-.95,3.47.65,1,2.51,1.62,4.47,2.23,2.26.72,4.83,1.52,6.31,3.34,2.56,3.14,1.3,6.13.19,8.78-.69,1.64-1.34,3.18-1.09,4.66a11.31,11.31,0,0,0,4.73,7.33,7,7,0,0,0,5.56,1.07,1.92,1.92,0,0,1,1.76.5,5.92,5.92,0,0,1,1.21,1.65c2.67,4.91,4.9,17.16,4.92,20.44,0,.12,0,.23,0,.33a31,31,0,0,1,.13,4c0,1.68,0,2.65.45,3.13s2,.83,4.62.83c4.39,0,8.91.38,11.8,4.9,4.69,7.33,11.14,7.31,18.64,7.28h1.54a39.81,39.81,0,0,1,11,1.18l.25.05a19.73,19.73,0,0,0,2.88-.09c2.55-.21,4-.28,4.76.56,1.21,1.38,1.58,2.72,1.1,4-1.27,3.31-8.26,4.58-15.62,5.46-.86.1-1.76.21-1.95.27-.94.35-.76,4-.66,5.93a18.89,18.89,0,0,1,0,3.72c-.68,3.92.46,5.47,2.18,7.81a29.2,29.2,0,0,1,2.37,3.64c.35.68.67,1.37,1,2.08a54.9,54.9,0,0,1,2,6.65c.47,1.78.95,3.61,1.57,5.37.21.58.43,1.16.67,1.73.43,1,.75,3.11-2.08,5.37s-8.31,4.14-9.84,3c-.52-.38-1.26-.8-1.75-.64-.87.29-1.54,2.31-2.13,4.09-.31.94-.64,1.92-1,2.83-.88,2-2.09,3.68-4.26,3.89-2.36,0-7.28,8-7.28,10.87a28.76,28.76,0,0,0,1.11,5.21,35.94,35.94,0,0,1,1.46,7.17,3.16,3.16,0,0,1-.9,2.73,1.57,1.57,0,0,1-.38.22c-2.78,1.25-5.08-.29-6.92-1.52a5.83,5.83,0,0,0-2.57-1.27c-1.34,0-1.65.87-2,3.85a16.73,16.73,0,0,1-.71,3.57c1.39,2.4,1.85,4.79,1.68,8.58a9.48,9.48,0,0,1-.26,1.89l.26.27.31.33.24.27.22.28.17.23c.08.12.16.24.23.36a3,3,0,0,1,.21.4,1.33,1.33,0,0,1,.1.24c0,.11.08.23.11.34a1.6,1.6,0,0,1,.05.21,2.88,2.88,0,0,1,.07.59,18.19,18.19,0,0,0,.29,2.78c.4,2.54.81,5.15-2,7.61-.21.2-.4.38-.57.56l-.16.17c-.12.13-.24.27-.34.4a.76.76,0,0,0-.11.14,4.35,4.35,0,0,0-.32.47,1.4,1.4,0,0,0-.1.16,3.14,3.14,0,0,0-.18.37l-.06.12a4,4,0,0,0-.17.44l-.05.17,0,.1c.68,1,2.16,1.8,3.71,2.63,2.13,1.14,4.55,2.43,6,4.75,1.91,3,1.85,5.69,1.78,8.77a40.7,40.7,0,0,0,.07,4.37c.32,4.11,3.65,9.08,4.77,10.64h0c.37.94,1.43,6.7,1.67,8.17.41.06,3.49.18,5.73.25,0,0,.58,0,.88,0h0c8.87.07,23.2-.35,28-.5l-8.2-14.55,4.44-1.87V497.64l4.79-.3,7,7.44,6.67.21L330,513.44h19.6l14-4.59v-7.19l-1.18-4.89-4.44-4.24-12.57-10.62v-8L357,459.37l6.7-.93,15.11,3.25,11.21,4.15,23.24-1.9,12.3,4h7.94V455Z"/></svg>