<svg id="Layer_1" data-name="Layer 1" xmlns="http://www.w3.org/2000/svg" viewBox="0 0 600 600"><defs><style>.cls-1{fill:red;stroke:#fafafa;stroke-miterlimit:10;stroke-width:2px;}</style></defs><path id="Northern_Kurdistan" data-name="Northern Kurdistan" class="cls-1" d="M498.65,420.81c-.18-1.62-2.83-3.14-5.17-4.33l-1-.49-1.12-.57a9.69,9.69,0,0,1-2.39-1.53,9.89,9.89,0,0,1-2.86-7.49c0-1.19.12-2.38.23-3.56s.24-2.42.24-3.63a5.81,5.81,0,0,0-.8-2.79,8.64,8.64,0,0,1-.85-6.27c.59-3-.73-3.6-3.78-4.6a12.73,12.73,0,0,1-5.82-3.19c-2.38-2.57-7.68-5.44-11.22-5.44h-1v-1a9.55,9.55,0,0,1,.86-2.76,98.07,98.07,0,0,1,5.41-10.46,27.79,27.79,0,0,0,3.11-6.26c.11-.29.22-.57.32-.86a26.41,26.41,0,0,1,4.59-8.59c1.4-1.67,2-3,1.69-3.71-.71-1.51-5.49-1.45-7.79-1.42h-1.72l-.17-.52-.14-.14-.52-.17v-.72a18,18,0,0,1,.25-2.69c.08-.51.15-1,.2-1.61.66-6.85.58-10.12-2.91-15a5,5,0,0,1-.78-2.87,25.59,25.59,0,0,1,1.12-6.43c.11-.41.2-.76.27-1.06.66-2.79-.41-4-1.91-5.61s-3.21-3.52-3.21-7.24c0-.41,0-.82,0-1.25,0-2.11.09-4.5-.94-5.94a13.48,13.48,0,0,0-1.17-1.34c-1.13-1.21-2.21-2.35-1.68-3.55a1.33,1.33,0,0,1,.2-.35c.57-.74,1.73-.95,3-1v0l.1,0a25.64,25.64,0,0,0-3-3.89,13.31,13.31,0,0,1-1.73-2.16,25.91,25.91,0,0,1-2.3-8.23,3.08,3.08,0,0,1-.58-.94,13.45,13.45,0,0,1-.72-4.07v-.5a8.83,8.83,0,0,1,.11-1.33,3.13,3.13,0,0,1,.32-1l.3-.48h.56a31.51,31.51,0,0,1,3.5.27,34.71,34.71,0,0,0,3.8.29,11.23,11.23,0,0,1,4.89,1.21c.42.19.83.36,1.26.52a8.93,8.93,0,0,0,5,.39,10.33,10.33,0,0,0,1-.22,3.15,3.15,0,0,0,1.8-1c.48-.71.22-1.93-.1-3.48a18.89,18.89,0,0,1-.55-4.07c0-.47.06-.86.09-1.26a9.9,9.9,0,0,1,.93-4.44,14.31,14.31,0,0,1,1.39-2,8.89,8.89,0,0,0,2.24-4.92c.7-3,1.58-6.72,6-6.72a4.88,4.88,0,0,1,3.58,1.44,5.22,5.22,0,0,0,1.26.87,23.07,23.07,0,0,0,2.42.79l1.13.33-7.57-9.61-1.87-1.66c-4.55-4-8.53-7.58-13.92-9.88a12,12,0,0,1-.23,2.4,31.53,31.53,0,0,1-2.6,7.82c-1.37,3.07-3.22,4.35-6.84,4.71s-4.93-.39-8.16-2a17.25,17.25,0,0,0-4.23-1.47,42.21,42.21,0,0,1-4.54-1.34c-2.44-.87-3.62-.25-5.59.78a19.09,19.09,0,0,1-4.28,1.78c-3.59,1-4.57.25-5.66-.93a4.14,4.14,0,0,0-1.27-1.05c-2.53-1.35-1.64-3.65-1.05-5.17a11.5,11.5,0,0,0,.54-1.63l.24-1.12a65.89,65.89,0,0,0,1.5-8.86c0-2.38.92-5.2,3.17-9.7a1.66,1.66,0,0,0,0-.33,6.07,6.07,0,0,0-.61-2.23c-.29-.15-.61-.29-.95-.44a7.21,7.21,0,0,1-3.23-2.24,22.77,22.77,0,0,0-3.46-3.93,80.14,80.14,0,0,0-7.51-5.31c-5.38-3.48-5.48-3.55-8.09-6.16-1.92-1.92-2.1-3-2.3-4.21a9.34,9.34,0,0,0-.47-1.86c-1.08-2.87-.05-5.95,1.26-9.86a29.36,29.36,0,0,1,1.45-3.54,11.74,11.74,0,0,0,1.35-4.48,16.59,16.59,0,0,1,1-4.25,7.3,7.3,0,0,0,.65-3.19c-.19-2.16-2.38-5.43-6.15-9.21-2.92-2.91-10.45,1.1-16.06,6.36-5.23,4.91-7.28,5.59-15.91,8.47-3.65,1.22-4.25,1.77-4.34,1.95a4.7,4.7,0,0,0,.33.69,6.87,6.87,0,0,1,.89,3.78A26.23,26.23,0,0,0,370.69,173c.38,1.39.65,1.48,1.25,1.68a4.7,4.7,0,0,1,2.74,2.15,38,38,0,0,0,7.14,8.39c1.88,1.72,3.1,1.23,4.94.49a8.53,8.53,0,0,1,5.75-.73c1.15.31,1.89.46,2.42.57a2.92,2.92,0,0,1,2.43,1.54c.23.33.56.78,1.06,1.41,1.91,2.38,2.34,4.78,2.89,7.83.24,1.34.51,2.86.95,4.6a3.62,3.62,0,0,1-.53,3.28c-1.55,2-5.28,1.9-8.28,1.86a12.92,12.92,0,0,0-3,.12c-1.55.77-3.9,3.25-6.62,7s-7.47,6-7.67,6l-.24.12-.26,0c-5.44-.36-14.69-.7-16.39-.06-1.34.5-3.78.53-6.37.57s-5.52.08-6.49.63c-1.86,1.06-7.5,10.27-9.38,15.91-1.65,4.9-8.93,8.55-13.28,10.73-1,.51-1.89.95-2.37,1.25-1.6,1-4.83-.15-10.87-2.45-4.81-1.83-10.26-3.9-14.12-4.06-4.47-.16-9.91,4.51-14.72,8.65-3.26,2.81-6.35,5.45-9,6.51-4.93,2-9.28-1.17-13.89-4.48a61.32,61.32,0,0,0-6.31-4.14c-5.26-2.85-8.65-1.48-11.93-.15a22.26,22.26,0,0,1-3.56,1.2c-2,.42-5.33,2.41-8.59,4.33-3.95,2.33-7.68,4.52-10.19,4.88-3.34.48-7-1.47-11.3-3.74-1.94-1-3.94-2.09-6.05-3-.94-.4-1.9-.84-2.9-1.28-6.07-2.73-13-5.83-21.7-5.3-8.31.5-12,6.37-14.42,10.25-.46.74-.91,1.45-1.33,2-2.27,3.13-.27,30.69,1.57,33,2.33,3,1.11,6.24-.08,9.38l-.4,1.09c-.8,2.2-4.7,3.75-11,6.06-3.43,1.25-7.33,2.67-8.15,3.73-1.39,1.78.31,7.49,2.11,13.54.62,2.1,1.27,4.27,1.87,6.52.38,1.42.69,2.55,1,3.46,1.08,3.91,1.17,4.23.15,6.17a25.47,25.47,0,0,0-1.14,2.43c-1.47,3.56-9.22,9.59-16.07,14.92-3.79,2.95-7.37,5.74-8.14,6.84-2,2.91-2,8.92-2,15.28,0,4.16-4.66,15.62-9.59,27.76-3.2,7.87-6.23,15.31-7.58,19.89-2.89,9.74-1.76,16.41,1.61,25.66.78-.29,1.58-.56,2.38-.83l.44-.15c.75-.24,1.49-.48,2.25-.7l.36-.1c.6-.18,1.21-.34,1.82-.49l.67-.17c.73-.17,1.46-.33,2.2-.47.54-.1,1.07-.18,1.57-.25,7-1,10.28.59,15.48,4.84l1.15.95a20.11,20.11,0,0,1,2.91,3.1l.18.22a17.72,17.72,0,0,0,4.12-.31c2.38-.42,8.13-9.54,11.57-15,2.73-4.33,4.32-6.82,5.3-7.64,2.95-2.46,5-1.74,16.11,2.25l.3.11c11.33,4.06,21.88.08,24.85-1.24,2.56-1.14,3.14-9.35,3.42-13.29.07-1.06.14-2,.22-2.62.56-4.49,3.66-4.24,6.15-4a4.79,4.79,0,0,1,4,2.1c.33.39.7.83,1.23,1.35,1.53,1.54,4,7,7.07,13.94.92,2.07,1.78,4,2.42,5.37a32.28,32.28,0,0,0,4.73,6.57l1.16,1.37,25.8-11.92c7.88-3.64,22.46-4.93,30.19-1.21,7.13,3.43,21.21.45,29.62-1.34l1.4-.29,4.9-1.43c4.43-1.28,8.49-2.61,12.44-4.08,2.32-.86,5.54-3.51,8.38-5.84,1.58-1.29,3.07-2.52,4.26-3.31l.55-.37.56.37a34.45,34.45,0,0,1,6.94,5.54c2.08,2.36,2.24,6.93,2.25,10.3.69-.13,1.41-.24,2.11-.34,2.93-.44,5.95-.88,7.62-2.94.24-.29.52-.69.84-1.17.53-.8,1.16-1.83,1.85-2.95,2.76-4.49,5.32-8.48,7.81-10.78a7.58,7.58,0,0,1,3.35-2,3.44,3.44,0,0,1,2.76.51,21.75,21.75,0,0,0,2.78,1.64c1.87.88,2.8.57,4.74-.08a34.07,34.07,0,0,1,4.57-1.27c3.21-.64,5.79.39,8.28,1.39.65.25,1.3.52,2,.76a4.77,4.77,0,0,0,1.66.22,9.35,9.35,0,0,0,1.16-.09l.68-.07a18,18,0,0,1,1.8-.17,6.09,6.09,0,0,1,1.76.17,3.93,3.93,0,0,1,1.1.47,17.58,17.58,0,0,1,3.22,2.67c1.64,1.64,2.54,2.54,6,1.65.8-.21,2,.19,4.2,1.07l1,.4c2.49,1,5.6,2.27,7.44,2.27a16.42,16.42,0,0,1,4.52.4c2.91.53,4.49.71,5.81-1.38,1.52-2.38,7-5.93,9.78-6.33a6.36,6.36,0,0,1,1.16-.05l.22,0a8.9,8.9,0,0,1,2.7.67,13.83,13.83,0,0,1,5.43,4.07,9.92,9.92,0,0,1,2.3,5.06,6.28,6.28,0,0,1-.32,2.87c-.44,1.2-.8,2.11-1.09,2.82-.84,2.13-.84,2.13,0,3.84.35.72.82,1.71,1.42,3.15a8.52,8.52,0,0,0,2.48,3.45,2.89,2.89,0,0,0,.37-1.14c1.07-5.85,3.82-6,6.26-6.2a12.64,12.64,0,0,0,2-.23,5.36,5.36,0,0,0,3.16-2.11c.25-.31.59-.74,1-1.2a16.85,16.85,0,0,1,3.47-3.15,7,7,0,0,1,7.56-.5l2.67.76,1-6.9.3-.25C498.13,422.65,498.75,421.67,498.65,420.81Z"/></svg>