<svg xmlns="http://www.w3.org/2000/svg" xmlns:xlink="http://www.w3.org/1999/xlink" viewBox="0 0 600 600"><defs><style>.cls-1{fill:none;}.cls-2{isolation:isolate;}.cls-3{fill:#e6e6e6;}.cls-4{clip-path:url(#clip-path);}.cls-5{fill:#62678a;}.cls-6{fill:#f9f9eb;}.cls-7{fill:#306cb8;mix-blend-mode:multiply;}.cls-8{fill:#124086;}</style><clipPath id="clip-path"><circle class="cls-1" cx="300" cy="300" r="300"/></clipPath></defs><g class="cls-2"><g id="Layer_1" data-name="Layer 1"><circle class="cls-3" cx="300" cy="300" r="300"/><g class="cls-4"><path class="cls-5" d="M-188.36,451l14.66-7.41s6.1,1.48,8.4,0,10.71-6.75,11.87-7.91,11,.17,13.83-1S-104.18,416-103,415s4.28,2.3,10.7,2.3,13.51-4.12,13.68-4.94,3.79,1.48,5.27,1.57,6.92-5,17.68-10.25,29-19.1,42.61-31.41,26.36-25.8,29.66-28.77,15.15-11.2,23.06-15.82,24.6-20,25.48-20.86,6.81,1.32,8.35,0,12.3-2.42,15.59-4.61,10.33-4.62,12.3-5.5,12.3-4.39,13.4-5.05,7.25,4.61,9.23,5.49,20.64,12.74,22.62,13.84,7.91,4.83,9.23,5.05a10.6,10.6,0,0,1,2.3.66s10.55-6.37,14.39-10.1,7.14-7.36,10.87-11.2,14.06-6.92,18.89-10.11,18.67-15.59,20-17.13,4.5,1,6.7,0a14.62,14.62,0,0,0,3.85-2.64s8.23,2.53,11.53,1.65,29.87-16.09,37.12-21.36,20.26-13.84,20.92-15.32,1.81-4.45,4.45-6.43,3.62-3.46,4.12-3.62,13.34-8.24,13.34-8.24l7.74,2.14h5.28l3,3h11.86l12,4.28,5.43-3.13h4.29l4-3.29,6.59,3,14.33-6.59,23.73,5.93,3-.49,4.45,4.12,7.41-4.12L461.15,238l3.74,8.56L502,278.67l5.93,11.86,10.54,7.91,11.87,7.25,5.49.44,7,7.25,6.15,1.1,16,16.8s5.1,5.66,6.15,6.37a10.93,10.93,0,0,1,2.3,2.25c.11.22,1.37,2.64,1.59,2.86s1.1.33,1.43.6a4.82,4.82,0,0,1,.83.66,7.72,7.72,0,0,1,.76,1.76c.06.22.17,1,.77,1.2a9.8,9.8,0,0,1,1.21.55s1.92.5,2.2,1,.38,1.76.55,2,2.14,2.36,2.8,2.36S587.4,354,587.4,354l2,1,3,2.47.66,1.65c.82,1.81.82,2,1.65,2.64s2.47,1.64,2.47,1.64l1.48.33s1,2.31,1.32,3a3.88,3.88,0,0,0,1,1.48,5.08,5.08,0,0,0,1.48,1.15c.83.5.83-.16,1.65.83s-.82-.33.82,1a15.6,15.6,0,0,0,2.8,2c1.16.66,3,4.12,3,4.12s1.15,1.48,1.65,2-.66-.17.49.49,16.47,12.85,25,17.3,36.41,19.93,41.35,22.4,14.94,5.44,14.94,5.44l.77,3.3s15.92,8.34,18.34,10.1,4.06,1.21,4.06,1.21.27,3.68,1.26,4a33.15,33.15,0,0,0,4.12.66l3.13,4.44s3.63,4.29,13,7.58,41.68,17,45.3,17.79,9.39,1.82,11.37,2.8,6.59,3.46,7.57,4.12,5.94,2,5.94,2l3.45,1L624.14,746.09-71.28,682.83Z"/><path class="cls-6" d="M530.35,305.69s10.1,14.94,9.22,16.25-10.54-5.27-13.4-8.12-6.15-5.71-6.15-5.71,18,20.2,18.23,21.08-11.2-9.44-11.2-9.44,9.67,12.52,10.76,13.84,2.86,4.39,0,2.19S520,317.11,520,317.11l-6.15-1.76-3.07-1.09-5.93-3.08s6.8,9.12,7.46,9.94,5.71,7,7.91,8.95,9.23,10.32,11,10.11,5.5,1.31,5.93,2.85.88,5.49,3.52,7S561.1,369,561.54,369.61s2.41,3.73,0,2.63-16.26-12.52-16.26-12.52l-14.06-13.39s-4.61-5.5-5.27-5.94S514.53,331,514.53,331s11.64,11.86,11.86,12.74-.22,1.32-2,0-7.9-5.49-7.9-5.49,7.25,9.44,8.34,10.54,1.76,3.52-.22,2.42-8.78-6.59-11.86-9.45-6.37-7.47-7.9-8.56-1.16-4.51-1.16-4.51l-9.55-9.22s1,3.79-.83,3a45.26,45.26,0,0,1-5.1-3.13s3.9,4.45,1.26,4a31.79,31.79,0,0,1-6.37-1.32c-1.54-.66-6.15-.66-6.37-.66s-.22,1.76,1.54,2.86,7.9,7,7.9,8.57.22,4-1.09,2.41-6.37-6.59-6.81-7.25-2.42-3.29-3.52-4.61a4.32,4.32,0,0,0-2.19-1.54s3.95,6.59,5.27,8.35a101.22,101.22,0,0,0,11.2,10.54c2,1.32,5.27,2.86,6.59,4s22,18.89,22,18.89,9.4,6.84,10.72,9,1.76,6.35,4,6.57,20.43,15.6,24.16,17.8,9.23,5.93,11.87,7.9,5.93,4.62,7.46,5.93,22.19,14.06,25,16,21.53,13.4,23.29,14.28,5.93,3.73,7.68,4.61,18.68,8.89,16.7,8.89-40.86-20.09-56.67-30-24.05-13.84-26-15.81S548.36,396,543.25,392.4s-24.11-18-29.38-22.13-25.31-23.51-27.46-25.15-7.41-5.77-8.73-7.42-3-3.46-3.79-4.44-5.43-2.48-6.26-2.8-4.11-.83-3.62.16,4.61,4.28,5.44,5.6-.17,1.32-2.31-.49-4.45-3.46-5.6-4.45-21.69-21.09-21.69-21.09,21.85,27.13,22.84,28,3.41,3.18,3.74,3.95a13.82,13.82,0,0,0,2.3,3.52c.77.66,8.57,7.9,9,8.56a7.66,7.66,0,0,1,1.21,2.53c.11.77,1.09,3.29-.77,1.87s-7-4.73-9.12-6.7-9.77-9.12-11-10.33-2.64-3.29-1.1-2.52,3.63,1.2,3.41.88-15.49-7.69-16.81-9-1.86-1-3.73-2.31-3.19-3.62-4.83-1-2,4-1.65,5.94.76,2-.12,3.62,2.1,3.29-.87,1.65-4.61-5.6-5.6-6.92-7.91-4.94-7.91-2.64.33,1.65-1.65,3-2,1-3.62,3-5.93,17.14-7.25,18.12-2,2-4.61,3-6.92,2-7.91,3,2,16.48,0,16.81a2.58,2.58,0,0,1-3.29-2.31c-.33-1.65,0-12.52,0-15.81s2.67-4.62-.15-7.91-6.44-10.21-8.75-12.19-5.27-7.25-5.27-7.25-4.28,0-4.61-2.64,1.64-10.54,0-13.17-1.65,9.55-3.63,12.52-2,4.28-2.63,6.59,1,5.6-4,8.56-6.26,4.61-8.24,4.94-1.31-2-4.28-1-4.61,1.64-6.26.65.33-1.64-3.29-2-5.6-1.32-7.91-1.65-2,.33-3.95-.66-3-.66-6.26-1.32.65.33-3.3-.66a9,9,0,0,0-8.24,2c-1.64,1.32-2.3,5.6-3.62,7.58s-4.28,14.5-6.26,14.83-7.58,3-7.58,3l-7.58,5.6s2.64-7.25,3.63-9.55.66-3.3.33-5.27,0-4.29,1.31-5.61,4.29-3.62,5.94-5.27,2.63-2.3,3.62-4.28,2.31-3.3,3.29-5.93a90.59,90.59,0,0,0,2.31-8.9s-5.27,6.92-7.58,8.24-6.92,2.31-8.89,4.28-11.53,3.63-13.18,5.27-4.62,4.29-5.93,5.94-4,4.61-5.93,4.61-5.77,0-6,.33,6.68-5.93,8.32-8.24,3.63-4.94,5.6-7.25a21.88,21.88,0,0,1,6.26-5.6,51,51,0,0,0,8.57-6.92c2.31-2.3,5.27-4.94,6.26-6.92s3-4.28,1.32-4.94-5.6-2-9.23,1-6.59,4.94-7.9,6.59a59.12,59.12,0,0,1-6.59,6.92c-3,2.63-3.3,3.62-6.92,5.6s-4.62,3.62-9.56,5.27-7.91,2.64-11.86,3-3.29,1.31-9.55,2.3-6.26,1.65-8.57.66-.66-1.32-4.61-1.65,6.92-4.28-6.26,0-20.1,6.92-21.75,7.91.66,1-3.95,2.64a37.38,37.38,0,0,1-7.91,2s-31-1.75-36.24-3.07a42.91,42.91,0,0,0-16.7-.44c-4.83.88-7.46,2.2-11-.44s2.64-3.07-7-3.95-25.48,2.19-28.55,4.39S28,388.94,25.8,389.82s-3.51,5.28-7,5.05-6.59-2.41-10.54,0-1.32,3.57-7.47,3.87-7-2.06-10.1,0-.44,4.26-7,6-1.76,0-12.3,2.64-10.11,2.2-16.7,3.51-10.1,1.76-12.3,2.64-15.7.36-15.7.36c1.48.08,6.92-5,17.68-10.25s29-19.1,42.61-31.41,26.36-25.8,29.66-28.77,15.15-11.2,23.06-15.82,24.6-20,25.48-20.86,6.81,1.32,8.35,0,12.3-2.42,15.59-4.61,10.33-4.62,12.3-5.5,12.3-4.39,13.4-5.05,7.25,4.61,9.23,5.49,20.64,12.74,22.62,13.84,7.91,4.83,9.23,5.05a10.6,10.6,0,0,1,2.3.66s10.55-6.37,14.39-10.1,7.14-7.36,10.87-11.2,14.06-6.92,18.89-10.11,18.67-15.59,20-17.13,4.5,1,6.7,0a14.62,14.62,0,0,0,3.85-2.64s8.23,2.53,11.53,1.65,29.87-16.09,37.12-21.36,20.26-13.84,20.92-15.32,1.81-4.45,4.45-6.43,3.62-3.46,4.12-3.62,13.34-8.24,13.34-8.24l7.74,2.14h5.28l3,3h11.86l12,4.28,5.43-3.13h4.29l4-3.29,6.59,3,14.33-6.59,23.73,5.93,3-.49,4.45,4.12,7.41-4.12L461.15,238l3.74,8.56L502,278.67l5.93,11.86,10.54,7.91Z"/><path class="cls-6" d="M602,377.52a29.74,29.74,0,0,1-3.29-5.5c-1.1-2.63-1.76-3.51-2.64-3.29s0,2.86,0,2.86c-2.2-1.54-3.29-4.18-4.17-5.28s-1.32-2.19-2.42-3.73a27.48,27.48,0,0,0-2-2.64c-1.09-1.31.88.66-1.09-1.31s0-.22-2-2a24.25,24.25,0,0,0-4.17-3.08,23,23,0,0,1-2.2-1.48c-1.32-.93.44,1-1.32-.93s.22-.22-1.76-2-1.53-1.32-2.85-2.63.88.43-1.32-1.32.44.44-2.2-1.76-.87-.44-2.63-2.2-2.86-3.51-3.52-4.17l-2.85-2.86s-.66,3.3,1.1,3.08.44,2.23,1.53,3.42,1.1,2.07,2.64,4.71a28.36,28.36,0,0,0,2.64,3.95c.66.88.88,2.3,1.75,2.69a7.67,7.67,0,0,1,2,1.7v2.09c.22,2.31.44,4.06,1.32,4.94a16.38,16.38,0,0,1,2.63,3.3,16.93,16.93,0,0,0,3.08,3.51c1.32,1.32-.34,1.1,2.47,2.64s3.46,1.75,4.34,2.63.88,1.32,2.2,2.2-.44.22,2.19,2.42a45.14,45.14,0,0,1,4,3.51,9.51,9.51,0,0,0,2.63,2.2,29.89,29.89,0,0,1,2.86,2,11.59,11.59,0,0,1,2.41,2c.44.66.66-.56.66-1.16v-.6a8,8,0,0,0-1.1-2.19c-.87-1.32-6.37-5.71-7.46-7.47s-3.08-3.3-4-4.39-2.85-3.74-4.17-5.06a17,17,0,0,1-2.42-3.07c-.44-.66,7.91,7,9,7.91s1.1,2.19,2.63,1.31,1.76,1.1,2.2,1.76,3.51,5.71,4.39,5.49,2.76,2.64,2.76,2.64-.05-2.14,0-2.64S602,377.52,602,377.52Z"/><path class="cls-6" d="M598.6,394.87s-1.15-1.48-2-2.64-2.15-3.46-2.81-4.12a12.14,12.14,0,0,0-1.48-1.48c-.82-.66-.82-.82-1.65-1.15s-1.48,1.15-2.47,0-.49-1.15-2-2.14a29.05,29.05,0,0,1-2.47-1.65c-.83-.66-1.32-.49-2.15-1.65a20.13,20.13,0,0,0-1.64-2,18,18,0,0,0-1.65-2c-1-1-1.15-1.48-2.14-2s0-1.81-1-.49-.49,3.46,0,4.28a16.46,16.46,0,0,0,2.31,2.64,25.62,25.62,0,0,1,1.81,2.14c.82,1,1.31,3.95,2.3,4.69s3.22,3.71,5,5.52,4.07,2.64,4.9,3.46a14.93,14.93,0,0,0,1.65,1.65,21,21,0,0,1,1.64,1.48c-2,.33,1.65,2.47-2,.33s-4.62-2.14-5.44-3l-2.64-2.64a17.71,17.71,0,0,0-2.3-1.81c-.83-.66-3.13-2.31-3.13-2.31,1,2,2.3,2.8,3.13,4s.82,1.64,2.14,3.62.58,1.88,2,3.08,2.92,1.53,4.07,2.36l2.31,1.64a15.61,15.61,0,0,1,3.46,2.8l.49.33,3.46,3,.83-6.43-2-2c-.49-.5-.66-.33-1.32-1.16a6.73,6.73,0,0,1-1.31-2.55c0-.41,1.48,0,1.48,0s1.81-.58,1.15-1.4A4.8,4.8,0,0,1,598.6,394.87Z"/><path class="cls-6" d="M597.78,412.5a18.21,18.21,0,0,0-2.64-1.65c-2.3-1.32-5.1-2.31-6.26-3.63s-1.15-1.64-1.81-2.3a9.58,9.58,0,0,0-1.81-1.48,17.27,17.27,0,0,1-2.14-1.49c-1.16-1,1,.66-1.16-1s.83.33-2.14-1.64l-4-2.64c-2.47-2-4.28-2.47-4.94-3.13s-1.16-2.38-1.49-1.6a7.09,7.09,0,0,0,.83,4.4c.66.83,2,2.39,2,2.39a16.34,16.34,0,0,1,3.13,1.4c1.32.82,1.65,1.66,2.31,2s-.82-1.16.66.33,2.14,1.15,3.29,2.14.39,1,1.93,1.81a8.15,8.15,0,0,1,2.19,1.65c.83.66,1.74.66,2.19,1.48s.45.33,1.44,1.32a15.31,15.31,0,0,0,1.81,1.65,18.15,18.15,0,0,0,1.81,1.31,22.25,22.25,0,0,0,2.14,1,12.84,12.84,0,0,0,2.14,1c1.16.49.83.49,1.82,1.15s1.81.5,2.14,1.16S597.78,412.5,597.78,412.5Z"/><path class="cls-6" d="M590.09,438.14S585,435,583.72,434s-4.39-3.41-5.05-3.85a47.35,47.35,0,0,0-4-2.63,11.4,11.4,0,0,1-3.22-3.08s3.84,2,4.17,2.09.77.55,2.2,1.21a12.91,12.91,0,0,1,2.2,1.1c.66.43,1.1.54,2.41,1.42a26.79,26.79,0,0,1,2.9,2,10.07,10.07,0,0,0,1.83,1.43,25.1,25.1,0,0,0,2.3,1.21c2.09,1.09,1.87,1,3,1.53s1.21.22,1.53,1.1,1.21,1.76.77,2.09S590.09,438.14,590.09,438.14Z"/><path class="cls-6" d="M17.4,436.6c.93.22,3.57-1.8,4.23-1.56a4,4,0,0,0,1.76,0v3.1a11.6,11.6,0,0,0-3,.88c-.52.44-.74-.88-1.62,0l-.88.88s-1.53-1.54-1.53,0v1.54A4.55,4.55,0,0,1,14.53,445l-1,.87s3.07-3.08,5-2.42,2.09.22,3.41.88,2,1.76,4.17,1.32-.22,0,2.2-.44.44-.88,2.41-.44a14.37,14.37,0,0,0,2,.44c2.42.44,2.2,1.59,3.52.69l1.31-.91a3.69,3.69,0,0,0,1.76-1.32c.88-1.1.88-2.12,2-1.5s1.54-1.5,2.85,0,.22.18,1.32,1.5,1.76,2.05,1.32,2.57A20.81,20.81,0,0,1,44.25,448s2.42,3.52,3.3,3.74-.22-.66.88.22,1.53-.66,1.09.88.22,2-1.53,1.64.22,1-1.76-.32a14.92,14.92,0,0,0-2-1.32L42.72,452a16,16,0,0,0-1.54-1.32,6.5,6.5,0,0,1-1.54-2.09,3.4,3.4,0,0,0-3.07,0A32.33,32.33,0,0,0,33.05,450c-1.32.66-1.76,1.1-2.42.44s-.22-1.76-1.31-1.87,2.21,2.53-1.1-.11-5,.66-6.15.11S23,446.49,21,448s-3,1.32-3.57,2.2.93,0-.6.88-.22.66-1.54.88-3.74,1.76-5,1.54-2.64-1.32-4.62-1.76a31.27,31.27,0,0,1-4.83-1.32c-1.76-.66-.88-1.54-3.07-1.87s-2-.11-3.52-1.42-2-1.21-2.19-2.26-.44-.3,0-2.76-2.86-2,.87-3.55,0-1.32,3.74-1.54,4.6-.44,5.49-.22.44.66,2.2,0,2.33-2.68,3.36-1.78-.07.24,2.35,1.12,1.95,1.1,3.5,1.1-.81.66,1.55,0Z"/><path class="cls-6" d="M55.68,461.2a39.37,39.37,0,0,1,2-3.65,13.35,13.35,0,0,0-2-3.05,7.86,7.86,0,0,1-1.54-2.74h0s-.44-2.86-.88-3.19a1.53,1.53,0,0,1-.88-1.86c.22-1.32-.22.66.22-1.32a5,5,0,0,0-.26-3.26c-.18-1.79-1.28-.48-.18-1.79l1.1-1.32a1.18,1.18,0,0,0,1.41-1.32c-.09-1.54.74-2.24,0-2.66s.35.68-.75-.41-1.32.65-1.1-1.1-.66-.22.22-1.76,2.37-1.32,1.63-2.86-.53-1.75-1.63-2.85,0,.88-1.1-1.1-.3-3.95-.26-5a31.7,31.7,0,0,0-1.35-5.25c-.35-1.14-.64-2-.64-2s-.82,3.52-1.48,3.73.66,2.2-.66.22-.22-.22-1.32-2a11.32,11.32,0,0,1-1.76-3.74c-.44-1.53,0-1.31-.88-2.63s.44.22-.87-1.32-5.06-5.05-5.06-5.05c-1.75-2.2-2.41-3-1.31-3.16s1.53.74,2.85,1.18,3.08.66,3.74,1.1a10,10,0,0,0,2,1.32c.66.22.78.88,1.82,0s2.91.66,3-1.76a7.38,7.38,0,0,1,.93-3.73,2.8,2.8,0,0,0,2,0c.88-.44-.22-2.42.88-.44s0,1.09,1.1,2-.44,2,1.1.88l1.53-1.1h0a11.86,11.86,0,0,1,3.52,2c.88-3.29,1.1-1.76.88-3.29s-1.1.43-.22-1.54l.87-2s2,.23,2.2,1.54.44.88,0,2.41-1.1,2-1.1,3.52v3.95c0,.66-.22.88-.22,1.76s-.44-.66,0,.88,1,1.1,1.57,1.76,0-1.32.63.66S64,414,64,414s2.42-1.32,2.86,0,0,3.51,0,4.61.61,1.32.19,2.42-4.15,0-2.61,2.41,3.76,3.3,2.76,4.62.1-.66-1,1.31-1.1,1.69-1.32,3.15-1.1-.07-.22,1.47-.22,0,.88,1.53,1.91,2.64,1.91,2.64l2-1.54s2.64-3.14,3.3-4.1,1.76,3,1.32,4.54a9.88,9.88,0,0,1-1.76,3.08,9.88,9.88,0,0,0-.88,2c0,.4,2.2,1.5.22,1.5s-.88,2.42-.88,2.42,2.62-1.63,3.4-1.25,1.43-1.61.77.37-.22,2-1.53,3.4-1.1,1-2.2,2.31-.88-.22-1.1,1.32.22.44,1.54.66,2.2-.22.66,1.64l-1.54,1.87L70,462.74c-.66,5.27,3.13,4.61,3.13,4.61s-.39.88,2.19,1.1-.27-1.75,2.59.22,4.39.17,2.86,2-2.86,0-5,.66l-2.14.66s-1.21,3.33-2.75-.31a10.28,10.28,0,0,0-4-5l-.66-3.52s-3.3,1.54-2.2-.44,1.76.66,1.1-2,.22-2.85-.22-5.27l-.44-2.41h0c1.1-3.3,0-2,1.1-3.3s-.88,1.1,1.1-1.32-.44-3.51.44-4.61l.88-1.1c-1.76,2.2-1.56,3-2.86,2.05l-3.29-2.49h0c-.22-2,.21-2.19.21-4.39s.49.22,0-2.2,1.76-10.1,1.76-10.1l-1.34-6.79-.63,5-1.1,4.4c-1.11,3.51-2,1.72-1.89,5.09l.1,3.36s-.46,0-.1,2.31l.35,2.31s-1.69,0-.62,2.3,1.06-1.65,1.06,2.31v3.95l-.79,1.87c.79-1.87,1.89,2.74,1.89,2.74l-.66,3.63c-1.76,2-.88.44-1.76,2s-.88.43-.88,1.53a9.18,9.18,0,0,0,.44,2.42Z"/><path class="cls-6" d="M89.72,353l-1.32.67c-1.31.66,0,5.59,0,5.59v5l-1,2.63c-1,2.64,0,0,.33,3s0,0-.65,2,0,0-1.65,3.62,0,0-1.32-2.31,0,0-1-1.64-2.3,0-2.3,0l-1.32,2.3c-1.32,2.31,0,0-1.32,3.3s0,0-.33,2l-.33,2c-.33,2,0,0-.66,1.32,0,0-3,3-2.63,4.28l.33,1.32-2,3c2-3,4.73-2,6-4s3.23-2.31,4.88-3.95,1,.66,1.65-1.65l.66-2.31s1.64,3,4-1.64S91,375.76,92,372.79l1-3a20.35,20.35,0,0,0,3.65-3.3c1.29-1.64,2.28-3.29,3.59-3.95s1.32-2.31,2.31-2.64-1.32-1,1-.33,1.32,4.29-.33,6.92-2.31,2-3.29,4-1.32-3-1,2-3.57,7.58-2.28,9.89,1.62,3.29,1.62,5.27.66,4.83-.33,5.71.72.55-1.29,3.52,1-.66-2,3-3.62,1.32-3.29,5.6a53.39,53.39,0,0,1,.33,7.25c0,4.28-.33,4.94.33,6.92a58.52,58.52,0,0,0,1.86,5.94c1.1,2.63,2.15,4.42,2.78,7s.63,5.28,2,6.89S97.3,437.7,99.94,441s-1.32-2,2.63,3.29,6.26,8.57,6.26,8.57c0-4-.33-1.32,0-4s.66-3.83,0-4.88-.33-3.93-1.65-4.63a3.74,3.74,0,0,1-1.64-2.35,57.62,57.62,0,0,1-3.3-7.88,29.16,29.16,0,0,1-1-4.51s.33-2.1-.33-2.76-1-1.65-2-4.62S96,412.66,96.67,411s-1,0,0-3.29,0-2,1.62-4.78,0,1.65,2.63-4.2,3.3-7.5,3.3-7.5l1-3.29s1.31-2,.66-3,.33,2.31-.66-1-1.32-3-1-5.61,2.3.66.66-5.6,4.33-9.22,4.33-9.22-1.15-1.54-1.7-2.09-.66-3-1-3.62-1.31-2.75-1.31-2.75l-2.42,2.09s-2.53,2.08-3.29,2.74-4.18,5.5-5.17,6.37-2.08,1.54-2.52,2.09-.28.66-.91,1.32-.14-1,0-3.63.14-4.61.47-5.27,1.32,0,1-2.41a13.33,13.33,0,0,0-.88-4.07A2.86,2.86,0,0,0,89.72,353Z"/><path class="cls-6" d="M101.36,413.1l2,7.91a32.45,32.45,0,0,0,2.42,4.61,9.29,9.29,0,0,1,1.75,2.64,15.57,15.57,0,0,0,2.86,4.17c1.1,1.1.66.66,1.76,2.42s1.09,2,1.75,3.07-.88-1.1.66,1.1,1,2.2,2.42,4l1.45,1.76a4.72,4.72,0,0,0,1,1.54,11,11,0,0,0,3.08,2.19c1.1.44.66.22,2,1.32s-1.32,1.1,1.31,1.1,1.32,1.54,2.64,0,1.54-.88,2.42-2.42.66.22.87-1.53a12.43,12.43,0,0,0,0-2.86c0-1.76.1-2.85.1-2.85.34-2.64-1.19-3.52.34-2.64s.88,1.1,2.42,2.2-.88-.22,1.54,1.09,3.07,1.32,4.39,2,.44,1.1,2.64.44.66-.88,3.73-1.32a43,43,0,0,0,6.37-1.53s.66-.22,1.76-2,.88-2.2,2.41-3.52,3.08.66,1.54-1.31-.44-2.64-3.07-3.3-1.63,1.54-2.64-.66-4.66-3.07-1-2.19,3.43.87,4.75,1.09,1.71,0,2.61.22.9.66,2.44-.44-.66,1.54,1.53-1.09a16.31,16.31,0,0,0,3.08-4.62l.88-1.75s-6.81.44-7.69-.44,0-1.32-.66-2.2,1.1.88-.66-.88-.22-1.1-1.75-1.76-2,0-3.08-1.09-1.1-1.76-1.76-2.42.88.44-.66-.66-1.75-1.76-2.63-2.2a4.49,4.49,0,0,0-3.74,0,17,17,0,0,0-2.85,1.54c-.88.66-1.76,1.32-3.3.66l-1.53-.66c-1.54-.66-1.32-.66-2.75-.44l-1.43.22s-2-.83-1.75-1.73-1.76.19.22-.9,4.48-2.42,4.43-3.3,1.14,1.54,0-1.76l-1.14-3.29a2.83,2.83,0,0,1-.33-1.84c.11-1.24-2.09-2.11,0-2.33a51.6,51.6,0,0,1,6,0s1.1-3.74,0-4.62a15.2,15.2,0,0,0-2.42-1.53,17.71,17.71,0,0,1-3.62-2.2,9.08,9.08,0,0,1-1.87-2.64c-.44-.66-2.19,3.08-3.07,2.86s-3.74-2.57-4.39-2.93-.88.29-2.2-2.12l-1.32-2.42a4.3,4.3,0,0,0-.44-3.07c-.88-1.54-1.54-2.86-1.54-2.86-1.75,2.42-3.29,2.86-2.41,4.39s.66,1.76,2,3.08,1.32.88,2.2,2.41a13.69,13.69,0,0,0,1.76,2.64c.88,1.1,1.54,1.32,2,2.2s.87,1.53.43,2.19.44-.66-.43.66-1.54,1.55-1.76,2.42-.88,1.32-.66,2.41A36.42,36.42,0,0,0,124,401.9c.44,1.1.66,1.1,1.1,2.19a15.14,15.14,0,0,1,.65,4c0,.66,2,2,2,2s-.44,1.54-.66,2.2a6.1,6.1,0,0,1-1.1,2c-.65.88-.87.88-1.09,1.76s.44-1.54-.22.87-.22,2,.44,4.4.65,2.63,1.09,3.95.66,1.1,1.1,2.64a8.94,8.94,0,0,0,.44,1.53c.66,2,.22,2.06.88,4l.66,1.93s.62,1.81.24,2-.46.4-.46,1.5,1.54-.66,0,1.1-2.42,6.06-3.3,4.9a27.34,27.34,0,0,0-3.28-3.1c-2-2.68-1.77-2-2.87-3.56s.44.66-1.09-1.54a36.49,36.49,0,0,1-2-3.25c-.88-1.36.88,1.06-.88-1.36s-.22-.66-1.76-2.42a14.21,14.21,0,0,1-1.53-1.75c-1.76-2.2-2.76-1.54-3.14-3.3s-.82-2.19-1.26-3.73a8.08,8.08,0,0,0-1.32-3.08A68.85,68.85,0,0,0,101.36,413.1Z"/><path class="cls-6" d="M174.89,417.44a9.54,9.54,0,0,0-1.81-5.27c-1.8-2.24-4.28-1.82-5.6-3.13a33.55,33.55,0,0,1-3.3-4.12c-.82-1.16-1-.5-1.48-2a11.14,11.14,0,0,0-1-2.8c-.82-1.65-.49-1.81-1.81-3.62s-2.64-3-3.29-4-2-2.8-1.82-3.95a4.31,4.31,0,0,1,.66-1.81l3.63,2.3c.49-2.47.49-3,.16-3.79s-.16-1-.49-1.64a7.87,7.87,0,0,0-1.49-2.31c-.49-.33.17,1-.49-.33s-1.11-2.55-2-2.47a3.8,3.8,0,0,0-2.62,1.15c-.5.33-1.32,1-1.32,1-2.14-1.81-2.47-.34-3.46-2.14s.49-.33-1-1.81-.66,0-1.48-1.49-.66-1.81-1.32-2.47-.66-1.81,0-2,1.32-.83,2,0,.82,1.64,1.48,2.3.49,1.21,1.32,1.76a19.59,19.59,0,0,1,1.65,1.37c.82.66-.83.5.82.66s0,1.16,1.65.17,1.31-.33,2.47-1.49,1.65-2.47,2.47-2.3,1.81.22,1.56,1.59.42,1.87,0,2.86-.74,1,0,2.14a17.59,17.59,0,0,0,1.4,2c.66.83.83,1.49,1.32,2s1,.66,1.81,1.48,1.49,1.32,2.48,2.15.65,1,1.48,2.3-.33-.82.82,1.32,1,2.64,2,3.79-.33,0,1.32,2.14.33.49,1.64,2.14.83.5,1.32,1.65-.5,1.64.33,2.14.34-1,.83.5-.65,1.15,0,2.3-.07,0,.13,2.31-.06,2.47.15,3.29a6.27,6.27,0,0,0,.21.83c.33,1.15,1.32-1.65,0,1.81Z"/><path class="cls-6" d="M166.65,436.88c-.16-.66.33-2.14,0-3.13l-.32-1a22.06,22.06,0,0,0,2.14,2.31c.66.49.66,1.15,1.48.65s-.49.66.82-.49.17.49,1.32-1.15l1.15-1.65,1-.82c.33-2.31-.82-1.32,0-3.13s0-.83.83-1.82-.5-1.15.82-1,1.48.82,2.64,1.15-.17,1.65,1.15.33,1.65-.66,1.81-2.31.82-1.32,1.32-3,.33-1.16,0-2.64a18.45,18.45,0,0,0-.82-2.64c-.17-.49-.5-.16-.5-1.15a2.64,2.64,0,0,1,.82-2.24c.66-.56-.36-1.88.81-2.37s2.82-.33,3.48.66,1,2.27,1.48,1.71a10.09,10.09,0,0,0,1.15-2.64c.5-1.21,1.32-1.54,1-3s.83-.16-.33-1.48-1.48-1.15-1.81-2-1,.17-.33-.82,3.19-3.95,2.67-4.53,1.11-.36.07-1.67-.16.87-1-1.32-.44,2.19-.87-2.2-2-4.39-1.09-5.27-.43-1.32,0-2.42a9.11,9.11,0,0,0,0-3.51l-1.77-1.76a5.93,5.93,0,0,1-1.54-1.76c-.44-.87-2-3.73-2-3.95s-2.2.88,0-.22,3.29.22,3.29-1.76v-5.27c0,.66,2,.66,2,.66a2.17,2.17,0,0,0,1.09-2.2c-.22-1.53-1.74-2.19-1.09-3.07s4.38,5.38,4.49,6a23,23,0,0,0,3.18,5.16c.88.88,3.08,0,3.52-.77s1.32-3.4,2.53-2.52,1.53,1.64,2.19,1.53.44.33,1.21-.33.55-1.25,1.32-1.72-.11.52,2.19-1.57A53.15,53.15,0,0,1,213,365c.44-.33-1.1-.11-.77,2.41s-.61,3.3.85,3.63,1.34.87,2.66-.11,1,2,1.87-1.54,3-2.64,3.51-4.94,1.1-1.43,1.43-3.41-.77-2.08,0-2.63-.66-.22,1.32-1.1a18.35,18.35,0,0,0,2.75-1.43c1-.55,2.3-.66,2.63,0a3.74,3.74,0,0,1-.55,3c-.55.76-1.87,1.64-1.54,2.08s.93.66,2.22-.55,1.63-1.2,2.29-2.08a18.36,18.36,0,0,1,1.64-2.09c.66-.66-.87-.88,0-1.54s.77-.66,1.65-1.32a9.2,9.2,0,0,1,.88-.65c1.1-.77,1.1-.77,1.65-1.1s.66-.22,1.21-.77,1.53-1.21,2-1,.77-.55,0,.77a13.82,13.82,0,0,1-1.75,2.31,15.17,15.17,0,0,1-1.43,1.2,8,8,0,0,0-.88,1c-.44.55-.33.44-1,1.21s-.66.66-1.32,1.43.33-.22-.66.77-.87.76-1.31,1.42a11.52,11.52,0,0,0-.88,1.21c-.44.77-.77.55-1,1.32s.22-.33-.22.77-.88.33-.44,1.1l.44.77h0c.77-.77,1-.44,1.54-1.21a6.86,6.86,0,0,1,1-1.32l1.09-1.1c1.32-1.32,1.76-1.65,2-2.2a5.41,5.41,0,0,1,.22-.54c.33-.77-.33.54.33-.77s.22-.77.66-1.32a4.3,4.3,0,0,1,.44-.55c.66-.77-.11.11.66-.77s.11-.44.77-.88-.22.44.65-.44a7.63,7.63,0,0,1,1.56-1.2,7.54,7.54,0,0,1,1.41-.72c.33-.16-.44-.38.33-.16s1-.77.77.22.22.87-.77,1.64a20.79,20.79,0,0,0-2.09,1.54c-.66.66.22-.55-1,1.32s-1.53,2-1.64,2.53a9.93,9.93,0,0,1-.66,1.64,3.32,3.32,0,0,0-.33,1,23.61,23.61,0,0,1-2.91,4.06,3.8,3.8,0,0,0-1.16,1.82c-.16.66-.82,1.31-.82,1.81s1.15-1.32,0,.49-1.81,2.64-2.31,3.46-.82.39-1.64,1.43a15.76,15.76,0,0,1-1.65,1.87l-.82.82c-1.32,1.32-1.16.82-2,2s-.33.33-1.65,2.14a19.64,19.64,0,0,0-2,3.29,10.08,10.08,0,0,1-1.82,3c-.49.66.83-.82-.49.66s-.66.16-1.32,1.48-.33.82-1.15,2.47-.17-.49-1.48,2.31-7.91,7.91-7.91,7.91l-1.81,2.14-2,2.14-1.81,2-1.32,1.48-2,2.7-1.81,1.09s-2,2.47-3,3.79l-1,1.31c-1.49,2-.83,1.16-1.49,2s-.49,3-.82,4a7.28,7.28,0,0,1-1,2.63,14.55,14.55,0,0,1-2,1.65,14.17,14.17,0,0,1-2.3,2.14,16,16,0,0,0-1.65,1.15c-1,.66-1,.33-2.14,1.32s-2.95,1.81-3.12,2.14-.51.17-1.16,1a5.3,5.3,0,0,1-2,1.32l-2.14,1.48S166.82,437.54,166.65,436.88Z"/><path class="cls-6" d="M216.68,394.87l5.93-7a18.42,18.42,0,0,1,2.2-2.2,16.64,16.64,0,0,0,2-2c1.1-1.1.88-.44,2.2-2.2s1.1-1.76,2.42-2.86-.66.22,1.32-1.09,1.09-1.76,2.63-2.64-.88.88,1.54-.88.88-.22,2.41-1.76,2.42-2.63,1.1-3.07-.22-.22-1.31-.44-.88.88-1.1-.22-1.32.66-.22-1.1-.66,0,1.1-1.76,0-.21,1.75-1.75,2.14-1.1,3-2.42-.85.66.91-1.32.22-.66,1.75-2,0-.22,1.54-1.32,2.86,0,2.64,0-.22.44-.88,1.32-.22-.66-.66.88-.44,1.75-.66,2.63,1.32-1.1-.22.88a52.25,52.25,0,0,0-3.29,5.05h0c.87-2.19,3.07-1.54,4.17-2.19s-.88.43,1.1-.66a34.77,34.77,0,0,0,3.29-1.76c.88-.66-.66-.44.88-.66s-.22-.22,1.54-.22,2.63-.22,3.29,0,0-1.32.66.22,1.1-.44.66,1.54-.44,2-1.54,2.85-2,1.1-2.19,2,.88,0-.22.88,1.54,1.1-1.1.88-3.73-1-4.83-.08-6.87,2.27-6.84,2.93-.41.22-1.29,1.54-.88,1.54-1.76,2.2-.92.88-2,1.75-1.29,1.1-2.17,1.76-2,1.1-2.86,1.76-2.19,1.1-3.07,1.76a7.39,7.39,0,0,0-1.76,2c-.66.88-.66.66-1.76,2a19.71,19.71,0,0,1-2.19,2.2c-1.32,1.31,1.32-.66-1.32,1.31a26.31,26.31,0,0,1-2.64,2A8.31,8.31,0,0,1,216.68,394.87Z"/><path class="cls-6" d="M256.44,405.74c-1.32-1.65-1.65-2-.33-3.29s-1-2.31,1.32-1.32,2,2.23,3.14,2.76a14.75,14.75,0,0,1,2.46,1.52c1,.66.33-1.32,1,.66s2.63.66.65,2a4,4,0,0,1-4.1,0c-1.5,3.29.81,3.29-1.5,3.29s-1.64,4.29-2.3,0S257.76,407.39,256.44,405.74Z"/><path class="cls-6" d="M257.67,432.87s-2.25-.66-2.4-1.1,1,.44-.15-.44-.88.22-1.1-.88l-.22-1.1,1.47-2s-1.69-1.54-1.47-2.42a5.13,5.13,0,0,0,0-2s-.08-1.31,1.95-1.31a4.12,4.12,0,0,1,3.12,1.09c.66.44,2.22.88,1.55,1.54s-.67,1.1-1.33,1.76-.66-.44-.66.66-.87-.66,0,1.1,1.1,0,.88,1.75,1.18.22-.22,1.76Z"/><path class="cls-6" d="M283.57,505.57a15.31,15.31,0,0,1-2-2.52q-.49-1.16-.66-1.65c-.11-.33.55.22,0-.88s.08-1.76,0-2.3-.87-.11-.1-.55-.44.33.77-.44,1.21-.66,2-1.21,1.2-1,1.09-1.32a32.4,32.4,0,0,1,0-5.49c.2-1.1.46-.55,0-1.87a8.77,8.77,0,0,0-.9-2.19c-.54-1-1.16-1-1.07-1.65s-.31-.66,0-1.54.53-.88.64-1.43-.22.11.32-1.09a5.58,5.58,0,0,0,.77-3.19c-.22-.77.11-.33-.55-1.43s-1.82-.66-1.18-1.54.86.11,1-1.53.44-2.2.11-2.75.16-.22-1.07-1.65-1.69-1.86-2.23-2.08-.43,1.43-1.31-.77,1.1-5.6.88-6.48a13.53,13.53,0,0,1-.55-2.42c-.22-1.53-.89-.66-.55-2.63s-.11-1,.33-2-.22-1.43,1.1-1.43,1.76.44,2.31,0,.55-2.19.55-2.19.11-.66.22-1.1,3.34.55,4.19-.88,6.24-8.9,6.79-9.56,1.21-1.2,1.76-1.86.1,1.64.54-.66.44-2.42,0-3-3.5-1.43-3.78-1.75-.17-2.53-1.76-2.09l-1.59.44-8.13,15.37-6.59,14.07v2l2.41,7.47-.87,6.81,1.38,5.91-2,8.14-1.21,8.52,7.58,11s-6.26,0-6.59-1a46.31,46.31,0,0,0-2.64-5.6c-1.1-2-.66-2.19-1.54-3.29s-1.31-2.2-2.19-3.3-2.2-.66-1.32-2.41a11.27,11.27,0,0,1,2.42-3.08s.44.66,1.53-2,3.52,1.09,1.76-4-1.76-5.49-2-6.59a20.81,20.81,0,0,1-.22-3.07,2.51,2.51,0,0,1,0-2.42c.66-1.54,2.86,1.26,2-3.21a56.86,56.86,0,0,0-1.54-6.23c-.66-2.64-.44-3.52-1.31-4.62a5.88,5.88,0,0,1-1.32-2.63c-.22-.88,4.17-6.37,4.83-7.47s2-3.41,3.08-5.22,1.31-1.37,1.75-3.35.22-3.51,1.1-3.95,1.91-.66,2.38-2.2,0-3.07,1.14-3.4,2.85,5.6,1.09-.33L282.8,421a16.9,16.9,0,0,1-2.86-2c-.88-.88-2.64-.44-2.64-2.85v-2.42a16.15,16.15,0,0,0,2.2-3.08c.44-1.09.22-2,1.32-2.19s-.82-6.7-.82-6.7c-1-2.31-1.16-2-1.32-3.05a32.36,32.36,0,0,0-1.16-3.76s2.15,2.52,2.48,1.37,1.64.33.33-1.15a6.84,6.84,0,0,1-1.82-2.64c-.49-1.15-1.15-3.13-1.15-3.13a4.77,4.77,0,0,0,1.81-2.47c.66-1.81,0-1.32.83-2.47s2.51-5.44,2.32-6.31,1.72-1.81,0-2.55a5,5,0,0,1-2.82-2.51c-.66-1.1-.44-1.69-1.1-2.71s-1.1-.58-1.1-2.34.22-1.76.22-3.73-.22-4,.44-4.4-1.09,1.54.66-.44,1.1-2.07,2.42-3.12-.51-.83,1.28-1.93,1.79-1.88,2.67-2.36,1.1-3.13.88-.49a11.8,11.8,0,0,1-.88,3.95l-1.32,2-1.35,2.41c-1.06,3.08-1.28.88-1.06,3.08s2.2,4,2.63,4.83.22,3.52.22,3.52l.44,2,7.8-5.16,1.83,3.3-1.83,4.61-.34,5.76c1.82.83,3,.5,2.17,1.65s-.45,1.32-1.22,2.14a7.85,7.85,0,0,0-1.27,1.65c-.66,1,1-.44-.66,1s-.29,10.05-.29,10.05l-3.09,2.14s.86,5.24,1,6.52.1,3.47.1,3.47l-2,4.4s-1.05,3.29.9,3.73,1.15-.22,3.09.88,3,.88,3.44,2.2,0,1.75,1.36,2.41-.44,2.2,1.31.66a33.49,33.49,0,0,0,3.15-3.07,10.91,10.91,0,0,0,1.25-1.32c1.32-1.54.44,2.85,1.32-1.54s.21-2.85.87-4.39,0-1.76,1.32-2.42.22,2.64,1.32-.66,1.32.44,1.1-3.29l-.22-3.74h0l1.54-1.53s.43,1.61,0-2-.88-2.13-.44-3.66-.44.87.44-1.54.65-3.08,1.09-4.18.66-1.31,1.1-2.41.44-2.64.88-3.52,1.29,4.18,1.29,4.18l.8,5.27s-.55,2.09-.77,2.63a14.4,14.4,0,0,0-1.1,2.31,2.65,2.65,0,0,1-.33,1.76c-.44.55-.11-.55-.77,1.1a8.1,8.1,0,0,0-.11,4.32c.11.18.22,1.83.88,1.72s1.21-1,1.76-1.72a31.47,31.47,0,0,1,2-2.57,8.07,8.07,0,0,0,1.75-2.3c.55-1.1-.11-2,1.1-2.64s1.65-3.73,2.09-4.83-2.64-.44.44-1.1,2.41-2,3.73-3.95,1.76-2,1.76-3.08v-2.63c0-1.32.44-1.32,0-2.86s1.05-1.1.19-3.07-.85-.66-1.29-3.52.88-.88-.44-4.17-3.51-6.81-3.73-7.91a4.62,4.62,0,0,0-1.1-3.08c-1.32-2-1.54-1.85-1.65-2.9s.77-1.05,1.65-.83.44-.32,2,.83.88,2.9,2,4.22.88,2,1.54,2.42.22,2.63.66.44,1.81-1.76.68-3.52a5.68,5.68,0,0,1-1.12-3.56c0-.83-.44-.83.44-2.15l.88-1.31a2.72,2.72,0,0,1,2,.87c.66.88,1.32,1.88,1.76,2.59s0,1.37,0,2.47.39,1.09.2,2.19a3.32,3.32,0,0,0,0,2.42c.41,1.1-2-2.2.41,1.1l2.42,3.29s-1.48,8.92-1.8,9.75-2,1.78-2.49,2.94-.77,7.52-.77,7.52-.22,2.2,1.93.71.65,0,2.14-1.48,3.85,1,3.16-1.65.12-1.31.13-3.79,1.29-2.14,1.31-4.11-1.17-.66,0-3.13.67.82,1.16-3.46,0-3.3.5-4.29a20.14,20.14,0,0,1,1-2c.66-1.16.82-1,1.15-2.15s1.08-1,.95-2.3-.5-1.32,0-2.14.68-1.2,1.17-1.92.33-.72.82-2.37.5-3.18,1.16-3.57a15.7,15.7,0,0,1,2.47-.87,5.09,5.09,0,0,1,1.81,1.48c.5.82,0,.82,0,1.65a2.76,2.76,0,0,1-.49,1.64c-.33.66-.83,2-.83,2l-2.14,1.09.83,2,.16,1.81a11.36,11.36,0,0,1-.49,2.64c-.33.66-.5.49-.83,1.48s-1,3.62-1,3.62a4.17,4.17,0,0,1-1,2.15c-.83.82-1.56.49-1.69,1.31s.79.83,0,1.65-1.28-.1-1.61,1.52-.06,3.32-.46,3.93-.5.77-1,1.54a17.61,17.61,0,0,0-1,4.87,8.6,8.6,0,0,1-2.14,3.63c-1,1-6.43,8.56-8.07,10.21s-12.31,10.65-13.18,11.53-2.86,2.64-4.62,4.4-2.85,4.61-4.39,5.93a12,12,0,0,0-3.07,4.39c-.88,1.76-3.38,2-2.35,3.95a3.94,3.94,0,0,1,0,4.18c-.51.88-5.88,6.37-7,7.9s-4.18,5.72-5.31,7.25a8.79,8.79,0,0,0-1.34,3.74l-2.85,4.47c-.44,2.12-.88,2.12-.88,3.21s-.44,1.89,0,2.59,2.63,1.15,3.07,1.81,1.37.66,2,1.32-.41.87,0,1.53.69,1.1,0,2-.9.88-1.12,1.76-1.32,1.53-.44,2.41,1.15.88,1.56,2,0,1.54,0,2.42.42-1.1,0,.88.27,2,0,3.29.47,1.32,0,2.64.69.87,0,2.41-.46,8.35-1.12,9.45-1.54,1.31-1.76,2.19-.66.66-.44,1.76S283.57,505.57,283.57,505.57Z"/><path class="cls-6" d="M359.73,401c-.82-1.48-2-2.55-2.31-3.29s-.74-1.4-1.07-2.06-.24-.41-.57-1.07,0,.25-.33-.66a15.73,15.73,0,0,1-.5-1.65v-1.32a7.1,7.1,0,0,1,0-1.31,6,6,0,0,1,.74-2.56c.25-.16,1.61-.33,1.63,0s-.18.42,0,.83-.26.74,0,1.48,0,1.73.35,2.72,0,1.7.33,1.84.41.55.66,1,.16.66.41,1-.08-.5.25.33.08.9.41,1.56,0-.08,0,1.57Z"/><path class="cls-6" d="M354.38,385a4.5,4.5,0,0,0,0-2.22,5.84,5.84,0,0,1-.42-2.22c0-.83-.33-.91,0-2.23a17.15,17.15,0,0,1,.56-1.89c.19-.58-.3-.74.4-1.16a3,3,0,0,0,1.19-1.15,6.74,6.74,0,0,0,.9-1.48,7.34,7.34,0,0,1,1.15-1.9c.42-.41,1.72,0,1.72,0a4.7,4.7,0,0,1-1.06,2.48c-1.07,1.48-1.89,2.47-2.3,3s-.58.25-.5,1.16a9.65,9.65,0,0,0,.09,2.06,7.84,7.84,0,0,1,.24,2.63c-.08,1-.08,1.07-.33,1.48s.41-.41-.24.42l-.66.82Z"/><path class="cls-6" d="M384.44,375.59s-.82-.33-1.81-2.14a21.82,21.82,0,0,1-1.48-5.76s-1.32-1.65-1.82-2.47a8.17,8.17,0,0,1-.82-1.65c-.33-.83.66-1.32,0-2.8l-.66-1.49s-1.15-2.8,0-1.64a12.22,12.22,0,0,1,2.31,3.29,10.76,10.76,0,0,1,.73,2l3.55,2.14.82,1.43,1.16,1.54s1,0,1,1.64v4.78s1.48,2.14,0,2A11.68,11.68,0,0,1,384.44,375.59Z"/><path class="cls-6" d="M445.37,346l4.47,6.1h4l3,1.92,2.64,3.35,2.3,3.45v3.42l3,2.66,3.62,3.66c3.63,3.23,4,5.56,5.27,5.88s1.65.05,3,1.34,0-1.68,1.32,1.28,1.65,5.6,2,5.93.66-2,.33.33-.65,1.48-2.3,2.06,2.3,1.9-1.65.58-4.61.44-5.93-1.1.33.44-1.32-1.54l-1.65-2s-.65-2.64-1.64-2-3-.49-2.83,2.31-5.24-.66-6.07-1.16-1.48-.66-3.13-1.48-2.47-1.48-3-1.48-3,.49-3,.49l-1.81.17s.49-.17,2.14,3.29l1.65,3.46,1,1.81.58,2.36a5.73,5.73,0,0,0,.55,2l.68,1.7,2.14,3.87a17,17,0,0,1,.16,4.2s-.83,2.42-1,3c0,0-.38,5.94-.6,6.49s-1,3-1,3-.22,1.86-.22,2.3-3,9.78-3.3,10.33-1.31,3.62-1.75,4.28-1.49.77-1.51,1.76a4.61,4.61,0,0,1-.8,3.07c-.88,1.32-.77.88-1.54,2.09a11.89,11.89,0,0,1-1.53,2.3c-.66.66-6,5.72-6.32,6.37s-1.48,3.63-1.48,3.63l-2.31,3a12.39,12.39,0,0,1-1.32,2.15,18,18,0,0,0-1.81,1.81c-.66.82-.82.82-1.48,1.65s1.48,9.06,2,9.88a4.61,4.61,0,0,1,.49,3.46,22.54,22.54,0,0,0-.66,3.29,5.25,5.25,0,0,1,0,1.65l-.16,1,1.09,8s8.57,12.52,9.23,13.18a5,5,0,0,1,1.54,2.2,15,15,0,0,0,1.54,2.85l3.51,3.08,2.85,2.63,1.54,2.2.44,4s-2.85,1.09,0,3.07l2.86,2s-1.53-1.76.44,2.63.23,3.3,0,4a6.78,6.78,0,0,0,.22,2.41s-4,1.76-2,2,2.85,3.07,2.85,3.07l.88,5.06,7.25,9.11,4,3-1,4,4.61,6.59s1,3.95-.11,4.39-.88.22-3.51,0-4.4.22-5.72-1.53-.87-1.76-2-3.3-2.64.66-1.32-2.85,1.76-2.86,1.76-4.62,2.19,1.76,0-1.75-4-8.13-4.84-9.23a22.52,22.52,0,0,0-2.41-3.07,31.35,31.35,0,0,1-2.42-2.64c-1.54-1.76-1.75-1.54-2.41-2.64a4.57,4.57,0,0,1-.88-2.19c-.22-1.1.44-1.1-.22-2s0,.66-1.1-2-.66-1.09-1.1-2.63-.66-1.76,0-3.08a27.22,27.22,0,0,0,1.76-5c.33-1.43.88-2.31.22-4.06s.66-1-1.21-2.42-4.17-2.63-4.5-3.4a10.71,10.71,0,0,0-1.1-1.65c-.33-.55-9.89-6.7-10.1-7.8s-.88-1.54-.66-2.2,3.29.66,3.95.88l.66.22c-.66-.22-.66-1.31-1.54-2.63s-1.76-2-2-3.3-1.75.22-.87-3.07-8.46-8.13-8.46-8.13a21.76,21.76,0,0,0-2.8-2.8c-.83-.49-2,0-2.8-2s-.5-2-2.14-3.79-4.45-4.61-4.62-5.27,1.32-3.29,2.31-3.13,4.61,4.61,5.11,4.78-1.65-2.31-1.65-2.64,1.1-1.31,1.65-.77,1,1.43,1.42,1.76,1.76-.33,1.76-.33,2.17-3.37-.3-5.76-3.71-3.3-4-4-1.81-11-2.14-11.69a28.4,28.4,0,0,0-2-3.46,24.47,24.47,0,0,1-2.16-3c-.48-1-3.28-4.45-4.1-6.42s1.15-1.16,0-4.29-.83-2.63-1.82-4.11-.16-1.16-2.14-2.64-3.13-1.48-3.95-2.8-.17-1-1.48-2-2.48.33-2.15-1.81,2.31-2,3.3-3,1.15-1.15,1.15-1.81.33-.33,0-1.65a10.83,10.83,0,0,0-.82-2.47c-.66-1.64.33-.33-1.32-2.8s-1.43-2.3-2.36-3.79-1.26-.82-1.43-2.22,3-3.21,3.63-3.87,1.64-.66.82-2.14-.82-2.14-1.65-3-.82-.16-1.48-1.65-.84-.82-1.33-2.3a27.1,27.1,0,0,0-1.14-3,20.41,20.41,0,0,1-.83-3.95s2.47,3.79,2.8,2.63-1.09-13-1.09-13l.14-11.15,1-5.27-3.51-5.19s-4.3-6.77-5.36-7.9a72.46,72.46,0,0,1-4.1-6l1.94-2.72,7.52,4.82,1.27,6.38L397.46,354l1.31,7s-.44,13.75,0,15.39,1.16,10,1.49,11.85a44.68,44.68,0,0,1,.33,5.63s.27,4.09.71,4.83.44,2.28.66,3.27a19.27,19.27,0,0,1,.55,5.38c-.22,1.65-.77,7.36-.44,8.13s1,4.5,1.43,5.05,4.5,4.5,4.83,4.83,3-3.35,3.13-4-.39-3.35,2-5.87a14.45,14.45,0,0,0,3.24-5.5s.66-1.81,1.15-3.78a16.67,16.67,0,0,0,.66-4.29c0-1.15,1.15-3.29,1.48-3.95s3-1.48,2.81-.82-1.49,2.47-1.65,3.78a13.52,13.52,0,0,1-.66,3c-.33,1-1.32,4.78-1.48,5.44a7.46,7.46,0,0,0-.66,2.8c0,1.48.16,1.48-.83,3.79s-2.23,4.32-2.3,6.26-2.2,3.18-2,3.84-.22-1.92.22.66-.22,2.25.27,4.06-.33,2.14.83,4.29a12.32,12.32,0,0,0,2,3c.66.82.17-.16,1,1.81a49.65,49.65,0,0,1,2,6.43c.82,3,2.14,3.31,2.14,3.31a20.4,20.4,0,0,0,1.81,2.95c.83,1,.5,1.32,1.49,2s2.47-1.15,3.13-2.14.06-1.64,1.34-3.46-.46-3,1.4-4.39,1.38-1.87,2.69-3.18,1.49-.66,3-3.3,1.15-1.65,2.47-4.28,2-3.46,3-5.85a19.26,19.26,0,0,1,1.49-3.38,25.29,25.29,0,0,0,2-3.79,9.58,9.58,0,0,1,2.8-3.62,2.68,2.68,0,0,0,.17-2.31c-.49-1.32-1-.82-.82-2.3a6.31,6.31,0,0,1,.65-3c.83-2.31.5-3,1.16-3.62s0,.16.66-.66,1.32-1.16.82-2.31-.49-.49-1.15-2-.66-6.69-1.16-7,.5.79-.82-1.51-2.47-8.73-3.13-9.56a9.34,9.34,0,0,0-2.31-2.63c-1.64-1.32-2.8-2.44-2.8-2.44a21.43,21.43,0,0,0-2.3-2.67c-1.49-1.48-1.16-.49-2.64-2.64s-1.32-2.14-2.14-3-2.31-1.48-2.14-.33.49.33.16,1.15,2,1.49-.33.83-5.76.78-6.75-.6-1-1.87-2.31-2.7a15.08,15.08,0,0,1-3.13-2.14,24.32,24.32,0,0,1-2.63-2.31c-.5-.66-.33-.33-1.32-1.48s-.66-1.32-1.48-2.31-.5.6-1.65-2.25-1-3.18-1.81-3.84-1.88-1.43-1.88-1.43l-6.58,4.12-2.59-4.12a7.36,7.36,0,0,0,.17-2.52,10.21,10.21,0,0,1,.24-3.58c.2-.76-1.11.56.2-.76s.44.44,1.32-1.32.22-2.2,2.2-2,1.32,0,2.19-1.19-.43.09.88-1.22l1.32-1.32a1.82,1.82,0,0,1,1.54.88c.44.88-1.32,2.41.44.88s2.19-2.64,2.85-1.32,1.32-1.54.66,1.32a11.18,11.18,0,0,0,0,6c.44,2.31,1.1,2.31,1.54,4.51s-.66,2.85,0,3.73a4.63,4.63,0,0,0,1.76,1.32s1.1-1.76,2.63,0a16.62,16.62,0,0,0,3.52,2.86,7.31,7.31,0,0,0,2.85,1.53l1.32.44s-.22.22.44,1.54-1.32,0,.66,1.32,0,2,2,1.32,1.88-3,3.07-2.42c3.08,1.54,1.32-.88,3.08,1.54s.44-.44,1.75,2.41.66,1.32,1.32,2.86,1.32,2.64,1.1,0,.88-.66-.88-4.39-1.76-3.74-1.76-5.49,1.1-1.71,1.1-1.71a9,9,0,0,1,1.87,2c.55,1,1.1,2,1.43,2.64a3.66,3.66,0,0,0,1,1.21,9.59,9.59,0,0,0,1.31,1c.44.33.33-.55.44.33a8.25,8.25,0,0,1-.11,1.75c0,.66-.22.44.44,2.2a32.57,32.57,0,0,0,1.65,3.4,11,11,0,0,0,.88,1.54c.55,1-.22.22.55,1l.77.77c.87.88.11.44.87.88s1.32,1.1,1-.11-.11-1.43-.55-2.09-1.64-.66-.55-1.32,1.65-1.09,1.76-1.42.22.33.11-.33.66,0-.11-.66a3.65,3.65,0,0,1-1.1-1.54c-.22-.44-.66-1.73-.66-1.73l.44,1.29a4.42,4.42,0,0,0,1.1-1.29c.55-.91,2,.52,1-2.22a24.59,24.59,0,0,0-1.65-3.85s-.77-1-.66-1.54a4.14,4.14,0,0,0,.44-1.92c.11-1.7.44-2.47-.11-2.8s-1-.22-1.42-.66-1-.88-1-.88-.55-1.09-1-.43l-.44.65s-1.1.77-1.1.22-.33-.89.11-1.37,0,.93.44-.49a7,7,0,0,0,.55-2.64C445.12,348,445.37,346,445.37,346Z"/><path class="cls-6" d="M465.25,399.65s-.83-1.36-1-1.77-.54-1.45-.91-2.31-1-3.21-1.07-3.46-.7-.25-.95,1a26.17,26.17,0,0,0-.49,3.05,16,16,0,0,0,0,3.46c.2.74,1.6,4.77,1.66,5.1a1.77,1.77,0,0,1,0,.91c-.11.58-.85,1.18-1,1.59s-1.29,2.61-1,2.94,1.92,2.69,2.14,3,.81,5.55.24,6.1-1.23,2.53-1.67,3.08a10.29,10.29,0,0,0-.75,1.09,15.2,15.2,0,0,0-1,1.43,16.28,16.28,0,0,1-.88,1.43,5,5,0,0,0-.88,1.43,8.37,8.37,0,0,0-.77,1.86c-.11.66-.11,9.89,0,10.33a13.11,13.11,0,0,1-.08,2.19,8,8,0,0,1-.47,2.86c-.33.77-4.28,8.9-4.61,9.55a5.53,5.53,0,0,1-.88,1.32c-.44.55-.66-.33-1,1.32s-1.54,2.53-.77,4.61,1.1,2.75,1.43,3.52a9.45,9.45,0,0,1,.66,2.08c.33,1.32,1.15,4.29,1,4.95s-.5.82-.17,1.81a9.59,9.59,0,0,0,.66,2c.5,1-1.6,1.85.17,2.8s3.62,4.61,4.22,5.16a12.77,12.77,0,0,1,1.71,2.41c.33.55,1,1,1.32.55s0-1.53,0-1.53a10.78,10.78,0,0,1-1.43-2.09c-.22-.66.55-.66-.66-2.09S456.1,472,456.1,472s-3.51-6.48-3-8.9-1.32-5.33,0-5.52,5.08-9.82,5.4-11.1.64,1.36.42,2.45-.22,3.08-.55,4.18-1.21,3.18-1.38,3.84-.6.77-1.15,1.54-1,1.21-1,1.87S457,470,457,470s.61,3.4.72,4.17.11,1.76.22,2.64a13.07,13.07,0,0,0,.77,2.53,12.74,12.74,0,0,0,.77,1.64,10.73,10.73,0,0,0,.66,1.54c.22.33.76.88,1.09-.11s1-1.76.88-3.29.11-2.09-.33-3.19a7,7,0,0,0-1.42-2.31c-.66-.76-.88-.22-1-1.53s.11-1.1-.33-2.09-.77-.22-.66-2a17.51,17.51,0,0,0,.11-3.18,15.54,15.54,0,0,1-.55-3.19c0-1.1-.22-1.42.22-2.19a14.9,14.9,0,0,0,1.32-2.42,28.69,28.69,0,0,1,1.53-3.4,10.68,10.68,0,0,0,1.32-2.75,22.56,22.56,0,0,0,1.32-3.73,12.66,12.66,0,0,0,.44-2.75s.22-10.54,0-12.08-1.21-3.51-.55-4.61.44-.77,1.21-2.09a24,24,0,0,0,1.21-2.2c.55-1.09,1.64,2.09,1-2.3s-.66-3.08-.66-4.4a10.78,10.78,0,0,1,0-2.74c.22-.44.4,0,.86-1.54s-1.63-3.07-2.07-3.84a5.1,5.1,0,0,1-1-2.42c0-.87-.66-.44-.11-1.76s.66-1.75.88-2.3A14.59,14.59,0,0,0,465.25,399.65Z"/><path class="cls-6" d="M4.3,420.49s1.82,2.06,2.23,2.38a6.94,6.94,0,0,0,2.3.83c.58.08,1.16-2,2-1.61s.74.37,1.65.78.33.59,1.89.83a4.85,4.85,0,0,0,2.31,0c.66-.08,2.22-.64,1.65.13s-1.49,1.68-4.45,1.68-2.8-.91-5.27-.33a12,12,0,0,0-3,.91,1.74,1.74,0,0,1-.66.82c-.49.33-.49.17-1.32.74a3.55,3.55,0,0,1-2.38,1.07c-1.49.17-3.71.91-3.88,0s-1.31-.82-.82-3-.16-2.89,1-3.79a7.76,7.76,0,0,1,3.54-1.4c.74-.09.91-.25,1.32,0A4.88,4.88,0,0,0,4.3,420.49Z"/><path class="cls-6" d="M9.55,408.27c1.54.33.44.22,2.3.55s2.42.33,3,.66,1.21.22,1.65.65a18.4,18.4,0,0,0,1.42,1.32c.55.44.77.33,1.32.88s-.31.33,1.16,1,.38.55,1.48.66,1.65-.77,2.3-.44a2.88,2.88,0,0,0,1.43.45c.44,0,0,.54,1-.45a10.07,10.07,0,0,1,2.31-1.87A21.12,21.12,0,0,0,31.07,410a8,8,0,0,1,2.31,1.21c.55.33.66.11,1.21.77l.55.66s-.42,1,.67-.22,1.52.44,1.08-1.21-1-2.19-1.08-3.07a4.85,4.85,0,0,0-.45-1.65c-.33-.88.44-.22-.33-.88a2.39,2.39,0,0,0-2.2-.88,12.7,12.7,0,0,1-2,0c-.44,0-.87.64-1.42,0s.55.35-.55-.64.33,0-1.1-1a11.28,11.28,0,0,1-1.43-1c-.66-.55-1.1.66-.66-.55s.66-1.1.55-2,.33-.88-.44-1.43-1.21-.44-1.65-.88.44-2.08-.65-1.2a29.84,29.84,0,0,0-3.13,3.51c-1.6.11-1.71-.44-2.91-.22s-2.31-.11-3,.44.19.77-1,1.1-1.31.22-1.86.77a4.23,4.23,0,0,1-1.31.77c-.33.22.44-.11-.33.22s-.77-.33-.77.33,1.76,1.31,2.3,1.53,1.87.78,2.42.45,1.47-.3,1.32,0c-.55,1.09-.55.76-1.1,1.2s.66.66-.55.44a5.78,5.78,0,0,1-1.87-.44c-1.2-.44-1.53-1.42-2.3-1.2a5.87,5.87,0,0,1-2,0c-1-1-1.19-1.11-1.63-.45S8,407.94,9.55,408.27Z"/><path class="cls-6" d="M3.4,409.91a33.14,33.14,0,0,0,3.51,1.43,6.9,6.9,0,0,1,3.52,2c.77,1,1,1.65,1.31,1.76a1.86,1.86,0,0,0,1.75,0c.89-.44.89-.91,1.55-.95s.66-.28,1.21,0,.66.95,1.43,1.17a6,6,0,0,1,2,.66,14.7,14.7,0,0,1,2.31,1.2c.77.66.73.77,2.94.88s3.43-.66,3.76,0,1,.88,1.32,1.21-.33.34-1.43,1.11a24.4,24.4,0,0,1-2.86,1.42c-1,.55-1.65.77-2,.66s-.44.6-1.43,0,.44-.35-1-.57-2.22.22-2.87,0a5.75,5.75,0,0,1-1.19-.55,15.7,15.7,0,0,0-1.76-1c-.44-.12.55.43-.44-.12a23.44,23.44,0,0,0-2.31-1c-.44-.22.33.55-.44-.22s-1-.66-.11-1.54l.88-.88a3.85,3.85,0,0,1-1.65-.31c-.65-.34-.54-1.11-1.42-.56s-.22,1.24-1.43.56a6.32,6.32,0,0,0-1.87-.89c-.77-.22-.44,0-1.65-.77s.44.11-1.2-.77,0-.33-1.65-.88-1.54-.44-2.2-.66-1.42-.44-1.42-.77,0-.22.65-.22,1.53.55,2.86-.44Z"/><path class="cls-6" d="M135.89,359.94c.62-.49,4.41,2.15,5.89,3.3s.49,1,1.48,1.15,1.48-.82,1.81,0,.83,1.16,1,1.65,3.46,1.65,0,1.15-3-.49-4.3-1.15-2-.49-2.62-1.81A34.23,34.23,0,0,0,135.89,359.94Z"/><path class="cls-6" d="M149,363.6a19,19,0,0,1,3.29,1.62c.5.49.5-.17,1.32.65s1.15,1.89,2,1.44,2.08-1.11,2.52-.94-.22,2.8-.71,3a5.34,5.34,0,0,1-1.65,0c-.66,0-4.94-.82-4.94-.82s-1.65-.42-1.81-1.2,0-.15,0-1.93Z"/><path class="cls-7" d="M179.34,359.94a37.38,37.38,0,0,0,7.91-2"/><path class="cls-7" d="M113.36,292.94s-2.55,2.43-3.87,3.41-3.62,5.61-3.95,6.92.66,2.31,0,3.63-2.31,2.63-3,0-.66-4.29-2.63-3.63S93,304.59,92,305.58s-1.65.74-2,2.84.33,2.76,0,4.74a12.16,12.16,0,0,0-.09,3.51s-1.58,1.76-.09,2.75.52,1.32-.64,4.61-1.49,2.27-2.14,7.23a32.46,32.46,0,0,1-3.3,11.22c-1.32,2.31-2.64,2.08-3,3.51s1,1.1,0,3.08-3,.55-2,3.95l1,3.41c-3.08,2.2-51.84,32.51-54,33.39s-3.51,5.28-7,5.05-6.59-2.41-10.54,0-1.32,3.57-7.47,3.87-7-2.06-10.1,0-.44,4.26-7,6-1.76,0-12.3,2.64-10.11,2.2-16.7,3.51-10.1,1.76-12.3,2.64-15.7.36-15.7.36c1.48.08,6.92-5,17.68-10.25s29-19.1,42.61-31.41,26.36-25.8,29.66-28.77,15.15-11.2,23.06-15.82,24.6-20,25.48-20.86,6.81,1.32,8.35,0,12.3-2.42,15.59-4.61,10.33-4.62,12.3-5.5S113.36,292.94,113.36,292.94Z"/><path class="cls-7" d="M93.89,586,81.15,572.13s-5.27-6.15-6.58-7.91-2.2-7-6.16-12.3-3.51-3.07-9.66-7-3.51-4.83-4.39-6.59-7.47-17.13-9.67-19.3,0-3.1,0-5.3-1.75-4.39-4.39-7l-4.39-4.39c-1.76-1.76-2.2-1.76-4.4-3.95s-1.75-2.2-3.51-3.52a10.8,10.8,0,0,0-8.35-2c-3.51.67-2.63-.67-4.83,0s-4.39,2-8.35,3.72S4.28,497.89-.12,501s-2.19,1.76-3.95,3.52-7.91-2.64-11.42-3.08-2.64.88-7,1.32-7,1.32-10.54,0-21.09.44-21.09.44l1.76-1.76c1.75-1.76,11.42-2.64,15.37-5.27s2.64-1.76,6.15-3.28,3.52-2.87,2.64-6.83a39.46,39.46,0,0,0-6.59,1.32c-2.64.88-2.64,1.32-6.06,2.2s-3.17,1.76-4.49-.88,0,0,0-2.2,1.76-5.27,4.4-9.66c.68-1.13-2.64,1.32-4.83,2.2-.32.12-.64.26-1,.4a54.44,54.44,0,0,1-5.62,2.26,9.63,9.63,0,0,1-6.15,0c-2.64-.84-5.72-.47-8.79-2.22s-2.2-.44-6-3.08-4.06-2.2-4.06-2.2a55.62,55.62,0,0,0-4.4-4c-1.76-1.32-4-3.51-12.3-3.51s0,0-2.63,1.75-5.28,2.2-10.55,4,0,0-.44,2.63,1.76,2.64,0,4.4-2.63,0-5.71,0-4.39,1.75-8.34,2.22a9.3,9.3,0,0,0-6.15,3.93,54.63,54.63,0,0,0-7,2.63c-2.64,1.32-2.64-2.2-3.52,0s0,0-3.51,2.71-3.08,1.25-11,.37,0,0,2.64.82,1.32,4,0,5.33-1.76,3.07-2.2,5.71,0,0-1.75,2.4-2.64,2.87-5.27,4.19-3.08,1.32-6.59,1.75,0,0-7.91.88,0,0-1.76,1.32-2.2,2.2-12.74,4.39,0,0-.88-2.19,3.08-1.76,5.27-3.55,2.2-2.16,7.47-4.8,1.76-2.2,3.08-4.83,0,0,5.27-.49,4.39-2.59,8.79-6.1,0,0,0-1.32-2.2-2.2-4-2.63-4.83,1.75-8.35,2.19-16.25,3.89-16.25,3.89-7.91.5-17.13.07-3.52,1.31-7.47,3.51,0,0-.29,1.32-3.66,3.51-7.62,7.24-3.07,1.1-5.27.34-10.54,0-10.54,0"/><path class="cls-7" d="M-25.93,470.32s6.11,4.28,6.68,5.6-1.73,2,2.22,2.31,4.61-2,6.26,0,1.32,1.27,3.62,3.43a32.59,32.59,0,0,0,9.23,5.46,5.26,5.26,0,0,0,4.61,0c1-.33,2-2,3.3-3s2-1.32,3.62-.66,1.32-.33,4.28.66,4,1,5.61,1.65,1.64,2.36,5.27,1.84,1,.46,3.62-.53-1-3.29,2.64-1,4.28,2,7.58,4.29,6.26,4.61,7.24,4.94a4.55,4.55,0,0,0,3,0c1.32-.33,3.29-.66,3-2.31s-1.64.33-.32-1.64,4.28.33,3-5,0-5.6.33-6.59-2,2.64,0-3,2-2.64,2-5.6V466.7s-3,2-5.27,1.64-.66-.66-4.62-1.64-.66.32-7.25-2.31-5.6-6.24-8.23-4.27-4.95,3.61-6.92,2.95-1.65-2.94-3.63-2.95-3.29.86-5.27-.57,5.27-.76-4.28-2.74S4.72,454.5,2.74,454.5H-10.77a6.15,6.15,0,0,1,1.32,4.29c-.33,2.3,2.63,2-.33,2.3s2.3-5.25-4.61-1-7.58,2.95-9.56,6.58Z"/><path class="cls-7" d="M6.91,426.72c1.76-.44,5.27,0,6.37,0a12.78,12.78,0,0,0,3.08-.2c1.1-.24.88-.66,2.19-1s2.2.56,3.08,0,5.27-1.63,2.2,0-1.32-.78-3.08,1.64-2.64,2.19-1.76,3.51,1.76-.44.88,1.32.11,2.2-2.47,2.42-5,1.31-6.09,0-1.32-3.52-4.4-2.64-1.76,2.42-3.07.88-2.2-2.81-1.54-3.49.22-.68,2.42-1.56Z"/><path class="cls-7" d="M208.36,665.34,186,609s-5.63-11.5-6.94-12.49-4.35-4.73-19-15.37c-8.6-6.23-5.05-13.82-6.37-15.14s-.64-7.73-3-9.38.33,0-2.3-1.64-5.6-2.31-6.59-3a26.41,26.41,0,0,0-3.63-1.65c-3.62-3.29-.65,0-3.62-3.29s0-.33-3-3.3,1.64,1.65-3-3-8.9-9.56-8.9-9.56l-4.28-3c0-3,.66-3.63,1.65-3.63s-1.32,3,1,0,4.28-1.31,2.3-3l-2-1.65s-1.65-1.65-.66-2.63-.66,2.3,1-1,4.28-2,1.64-3.3-6.26-2.63-7.25-3.29l-1-.66c-2-1.32-1,1-3.3-2a17.11,17.11,0,0,0-4-4c-3-3.63-1-1-3-3.63s.33-.16-2.63-4a33.11,33.11,0,0,0-5.39-5.52c-.54-.66,1.76,1.32-.54-.66a54.16,54.16,0,0,1-4.29-4.28c-2-2-.66-.33-2-2a27.62,27.62,0,0,0-3.3-3.3c-2.64-3.29-5.6-4-6.92-4.81s.66,1.52-1.32-.79l-2-2.3a27.39,27.39,0,0,0-4.29-4A13,13,0,0,0,65,466.7c-4.28,0-3.62-2.31-4.28-3.3l-.66-1s-1-2.63,0-4.28-1.32-1.32.66-3.63.11-2.3-1.1-4.61.55-1.65,0-3.95-1-1.65-.44-4.61-.71-1-.25-4.62.69-6.48,1.79-8.45.88-3.74,1.1-4.4.87-7.47.87-7.47L64,414s.66,8.57.44,9.44-.66,1.1-.66,2.2a9.36,9.36,0,0,1-.44,2.42c-.22,1.09.88,1.31-.88,2.19s-.65,4.4-.44,5.49a7.37,7.37,0,0,1,0,2.2c0,1.1-.65,1.54-.43,2.42s0,.66.22,2,0,1.54.21,2.64a24.15,24.15,0,0,0,.66,2.42c2,.22,3.52-2.42,4.4-3.52l.88-1.1s2.19-.44,1.75.88-.22,1.32-1.1,2.42-.87,1.1-2,2.41-.22-.65-1.1,1.32-1.32,2.2-1.1,3.3a7.9,7.9,0,0,1,.44,2.41c0,1.32-.66,1.54-.44,2.64a6.55,6.55,0,0,0,.66,2.63c.66,1.32,1.1,2.42,1.1,2.42s1.32,2.2,2.41,1.32,1.54,0,1.32-1.76-.88.44-.22-1.76,1.54-1,2.2-2l-.66,1v2.47c0,.83-.33,1.16-.16,1.81a9.63,9.63,0,0,0,2,3.13c.83.83,1,2,1.81,3s-1-.17.83,1,2,1.15,3.46,1.15,1.32.17,2.63.66a7.05,7.05,0,0,0,3.13.16s1.49,3,3-1.48,1.65-3.62,2.31-5.1-1.49-.17.65-1.49,2.8-1.15,4.29-3.29.33-2.64,2.8-3.63,2.3-2,3.79-1.48.66,1.32,2.8-.33,2-2.3,4.28-3.62S124,437.19,141.12,432.5,165.5,419.91,168.8,414s10.54-15.15,12.52-19.11,5.07-8.57,6.16-12.52,1.74-5.93,5.7-9.89,12.52-4.61,14.49-7.9-4.61-5.06-2.63-8.13,7.91-9,7.91-9c13.18-4.28,2.3-.33,6.26,0s2.3.66,4.61,1.65,2.31.33,8.57-.66,5.6-2,9.55-2.3,6.92-1.32,11.86-3,5.93-3.29,9.56-5.27,3.95-3,6.92-5.6a59.12,59.12,0,0,0,6.59-6.92c1.31-1.65,4.28-3.63,7.9-6.59s7.58-1.65,9.23-1-.33,3-1.32,4.94-3.95,4.62-6.26,6.92a51,51,0,0,1-8.57,6.92,21.88,21.88,0,0,0-6.26,5.6c-2,2.31-3.95,4.94-5.6,7.25s-8.56,8.57-8.32,8.24,4-.33,6-.33,4.61-3,5.93-4.61,4.28-4.29,5.93-5.94c0,0-3.3,10.55-4,13.18s-2.63,4-3.29,7.25-1.32-2.63-.66,3.3-.66-2,.66,5.93,3.29,3.29,1.32,7.91l-2,4.61,3.82,3.95-7.11,2.64v3.21s-6.1-3.87-6.68-7.17A6.67,6.67,0,0,0,253.8,387c-8.56,7.91-9.88,7.74-12.52,11.78s5.27-2.55-2.63,4-11.21,7.24-15.16,10.54-4.61,3.95-10.54,6.59-6.59-1.71-11.86,4.74-5.94,3.32-9.23,7.85-5.27,10.11-8.57,9.63-8.44-.48-10.48,2.16-2.7,1.32-6,4.28-3.3,3.63-5.93,5.93-1.32,4.29-5.27,5.61,1.32-2-4,1.31.66-2-5.27,3.3L140.46,470v5.07c8.57,6.79,9.89,8.11,10.54,10.09s-1.31,5.27-1.31,5.27A45.46,45.46,0,0,0,153,501l1.48,6.1,7.91-8.57,2.31-3,.49-3.95V486.3a16.06,16.06,0,0,0-.16-3.79,6.2,6.2,0,0,0-1.16-2,8,8,0,0,1-1.15-2.3,19.8,19.8,0,0,0-1.48-3.3,9.43,9.43,0,0,0-1.48-2.3,4.42,4.42,0,0,1-1.16-1.65c-.16-.5-.33-1-.16-.5s3,2,3,2l1.32,2.14,1.65,2.64,1.81,1.81,1.32,2.14s.66,2.64.82,3.79a25.15,25.15,0,0,1,.17,4.61,39.17,39.17,0,0,0,.66,5.93c0,.83.16-1.31,1.15-2.3a13.71,13.71,0,0,0,3-3.13c1.16-1.81,2.48-3.63,3.63-5.11s2.3-.33,3-.82,3-4.62,2.15-.33-.83,6.26-.5,8.56.17,4.45.82,5.44a23.4,23.4,0,0,0,1.82,3c.66.66,1.15.66,1.81,1.48s1.15,1.48,1.15,1.48-4,8.07-4,8.9a7,7,0,0,0,.66,2.8c.33.49,0,1.32.33,1.81s.82.66,0,1.65-1.65,2.47-1.49,3.46.33,2.3,1.49,2a19.56,19.56,0,0,0,4.77-2c2-1.16,3.13-3.13,4.45-3.79s1.65-.33,2.31-1.15.33-1.32,1.32-2.64,1.15,1,1.48-2.64-.49-3.46.49-4.44-1.48,1,1-1-.49.16,4.45-4,5.93-5.1,8.57-6.42,3.79-2.14,4.28-2-3.62,14.5-4.28,17.46,1.31,5.93,0,7.58-2.31,2.31-2,3.63a6.1,6.1,0,0,1-.66,3.29S213,530,213,524.68s3-2.63,4.61-4.28-1.32,1.65,1.65-1.65,2-1,4.61-4.94,2.64-3.62,4-5.6-1.64,1.32,1.32-2,4.61-5.27,4.28-7.25-.65-1.48-1-3.37l-.33-1.9s.66,0-2.31-1-2.31-1.64-3.62-3a11.46,11.46,0,0,1-2-3,11,11,0,0,0-2-2.63c-1.32-1.32-3,1.32-1.32-1.32s4.62-4,1.65-7.78l-3-3.75s2-4,4.61-1.32,3.29,4.53,4.28,5.07,1.32,1.85,2.64,3.17,0,0,3.62,3.29,1.65.66,3.63,3.3,1.64,3.95,1.64,4.94,1,3.13,1.65,5.85,1.65,3.37,2.64,5.35,1.64,2,1.64,4.28-3.62-2.63-7.57,1a63.2,63.2,0,0,0-8.57,9.23c-1.32,2-1.32,3.29-3,5.27a15.55,15.55,0,0,0-3,5.6c-.66,2-.33,6.26-.33,6.26l1.32,4.28c3.62.33,3.95,1.65,4.28,3a10,10,0,0,1,0,3.29c4.61-2,3-.32,4.61-2s1.65-3.3.66-4.62-1.64-1.64-1.64-3-1.32-6.59-.66-7.25-2.64,2.31.66-.66,3.95-5.6,4.94-3.95,2.3,1.65,1.32,4.61-2.64,4.28-2.31,5.27-1.65,1.32.33,1,5.93-4.94,5.93-9.22v-7.91s4.61,0,2.31,3.95,1,13.51-2.31,15.49-4.28,2.63-5.27,4.28-.66,2.64-2,4-4-3-2.64,3.63l1.32,6.59c.33,1.65-1.32,4.94-1.32,4.94s-.32,2,3.3-1.65,5.27-6.26,7.25-8.56,2-3.63,3-5.27-2,2.63,1-1.65,2.64-4.62,3.63-5.93,1,4.28,1-1.32-1-5.27-.65-7.58.65-3-.33-4.94-1.65,1.65-2-3.95-.33-5.94-.33-7.25-1-1.32,0-3.63,1.32-3,1.32-3.95a28.28,28.28,0,0,0-.33-5.27l-.33-1s-1.65-2.31-1-4.61-1,1.31.66-2.31-.33,1.65,1.65-3.62,1.64-5.94,1-6.92,2.63,2.3-.66-1l-3.3-3.3a16.64,16.64,0,0,1-3.62-3.62c-1.32-2-1.65-3.3-2.31-4.28s-1.32,3.62-.66-1,4.61-6.59,3-11.21-2.64-5.6-3.3-8.23-1.32.33-.66-2.64,1.32-9.22,2.64-8.24,1,4.95,2.31,7.25a20.51,20.51,0,0,1,2,4.29c.33,1,1,2,1.65,3.95s-.33,0-.66,3.62-2.31,10.88-2,12.2,2.31-.66,2,3.62,3,1.89,3,4.74,2.3,1.19,3.62,2.84,2.14,1,2.88,3-1.07,2,0,4.29-1.73,4.28,0,6.26a32.46,32.46,0,0,0,5,4.2c.66,5,.66,5,.66,6.67s-.33,1.32-.33,3.29-1-3.95-.33,5.28.33,7.9,1,10.87.33,1,1,4.61,1.32-2,.66,3.63.66,3.29-.66,5.6-1.64-2-1.31,2.3,0,4.29,1,7.25,3-2,1,3,.66.66-2,4.94-2.31,2.72-2.64,5.81-.66-1.53-.33,3.08-1.65,3.3.33,4.62,2.64,3.29,4.28,0,.33.33,1.65-3.3a34,34,0,0,1,2.64-6.26c.66-1,.33,2.31.66-1s-1-4.61,3-4.94,3-1.32,5.6-1,4.29.66,4.62-1,1,1,.33-1.65.89-3.3.28-4.61-4.24-8.57-6.87-10.55-4.29-2-5.28-3.62-2.3,1.64-1-1.65a9.55,9.55,0,0,1,3.62-4.61c4.28-4.62,4.61-5.27,3.95-7.58s-2.3-8.57-2.63-9.56l-.33-1c.33,1,4.94,5.93,5.6,7.24s4.28-.32,1,3-1.32,5.27-2,6.92a13.88,13.88,0,0,0-.66,1.65c-1,2.63-2.63.66-1,2.63s-.33-3.29,1.65,2l2,5.27-.66,2.31s3,4.77,3.79,4.28a25.92,25.92,0,0,0,3-2.8l3.13-3.46s2.14-4.45,2.31-5.27,1.32-2.8,1.32-3.3a13.09,13.09,0,0,0-2.31-4.94,35.55,35.55,0,0,0-3-3.46s-.83,1-1.65-1.15-.66-1.81-1.32-3.3-.16-1.31-1-2.3l-1.65-2s-.16,0-1.64-1.32-1,.17-2.31-2,.82,1.81-2-3.13-2.8-4.78-3.29-5.93.55-7.86,1.21-8.52.66,2,1.32-2.85,1.09-6.15.43-8.13-.65-2-1.09-3.07-1.54.65-.44-2.42,1.31-2.64,1.31-4.39a6.51,6.51,0,0,0-.43-2.64s-.66-1.32-1.32-3.07-.88.65-.66-1.76-.44-1.54.66-3.85,4.83-10.21,5.93-12.19-2.64,3.3,2.41-5.27,5.06-9,5.72-10.1-1.27-6.15-2-8.35-2.22-1.32-.9-3.73,1.54-2.64,2-4.4-1.08-10-1.08-10c3.05-4.28,4,0,3.05-4.28s-1.64-8.57-1.64-8.57a19.2,19.2,0,0,1,1.68-3c.95-1.31.29,1,.95-1.31a24.91,24.91,0,0,0,.66-6.26c0-1-.66,2,0-1a13.63,13.63,0,0,1,1.83-4.61l-1.83-3.3,7.58-3,3.18-5.59,1.44-5,1.64-4.25,3.62-7.58,4-2.07s1.41,4.47,0,5.25-2.06,2.42-2.72,3.74a27.12,27.12,0,0,0-1.32,3.62c0,4.29,2,4.95,0,6.59s-1.64.33-3,3.3-2.31,3-3,4.94.66,1.32,0,3.63a16,16,0,0,1-1.64,4.61c-1.32,2.63-2.31,4.28-2.31,4.28l-2.31,3.95v5.28s-2,.33-1.32,4.94.39,3.95-.13,6.59,1.84,2.63,0,4.28-1.18-1-1.84,1.65-2.31-2-.66,2.63a24.27,24.27,0,0,0,3.95,7.25l6.1-9.22a46.8,46.8,0,0,1,3.24-3.74c1.54-1.53-.22.88,1.54-1.53s2.19-.83,2.19-4-.66-4.09.44-5.19,3.62.88,3.35-2.64-.35-3.73,0-4.61-1.47-2.41,0-2.19,3.55,4.17,3.55,4.17,3,4.17,2.53,5.27l-.44,1.1s1.32,5.49,2,3.07.44-4,1.54-4.83-1.54,1.76,1.1-.88,3.29-3.07,3.73-3.95-.44-.88,0-2.2-.44.66.44-1.31,4.29-10.44,4.62-12.09a20,20,0,0,0,0-4.61,5,5,0,0,1,.33,3c-.33,1.64,4.24,4.63.09,8.19s-1.41,8.28-1.41,8.28a5.91,5.91,0,0,0,3.16-1.65c1.12-1.31,9.36-14.16,9.36-14.16s1.32-3.3,3-4.62,2,2,0,4.95-5.34,5.27-6.13,9.88-1.44,3.29-3.42,10.54-5.93,10.22-8.57,14.17-5,9.56-8.73,10.87-3.13-1.31-7.74,4-7.91,9.55-9.89,13.84-3.62,9.22-3.62,13.83,2.31,2.79,2.64,8.65a167.18,167.18,0,0,1,0,18c-.33,3-1.32,12.52-2.64,15.16s1.65,4.94,1.65,4.94l5.27,3.29a25.24,25.24,0,0,0,.33,6.59,50.13,50.13,0,0,0,3,8.57,21,21,0,0,0,2,3s4.28,0,3.62-1.65.33.33-.65-1.65-.66,1.65-1-2,.66-3.62,0-5.27a15.54,15.54,0,0,0-.66-1.65c-1-2.3-1.32-.65-1-2.3s1,1,.33-1.65l-.66-2.63-.66-3s-3-2.64-2.63-3.95-1,1.31.32-1.32a28.37,28.37,0,0,0,2.31-5.27,16.93,16.93,0,0,0,.33-3.3s.11,8.13.11,8.46a2.46,2.46,0,0,0,.33,1.54c.44.87.77,1.2,1.21,2.08s1,1.65,1.32,2.31.76,1,.87,1.65.11.66.33,2.85a17.08,17.08,0,0,1,0,3.52c0,.77-.76.22,0,.77s0,.76,1.43-.11,1.54-.33,2.2-1.87,1-1.43,1.59-3.19a20.11,20.11,0,0,1,1-3,9.68,9.68,0,0,1,1.32-2.64c.66-.77-1.1,2.2,1.21-1.21s1.65-2.3,2.31-3.4a7.07,7.07,0,0,0,1.2-2.31c.66-1.75,2.09-4.83,2.09-4.83s.55.22.22,3.41a13.68,13.68,0,0,1-1.76,5.82,20.8,20.8,0,0,0-1.64,2.3,3,3,0,0,0-.22,2.09c.11.44,5.27-3.62,6.81-4.94l1.53-1.32,3.3-2.64c1.1-.88-.66.88,1.1-.88s1.09.22,2.41-2.85a21.11,21.11,0,0,0,1.54-3.95,8.63,8.63,0,0,1,1.1-2.86c.66-1.1.66-2.2,1.54-3.29a14.51,14.51,0,0,1,3.12-2.42s-2.25,5.93-2.68,7.69-1.54,4-1.32,5.27S345,486.46,345,488a4.64,4.64,0,0,1-1.32,3.52c-.88.87-2,1.09-2.64,1.75s-1.75.88-3.29,2.2-4.39,1.32-5.49,2.86-.66,1.09-1.76,2.63-1.54,2-2.2,2.86-.65.44-2,2.19.44-.66-1.32,1.76-1.76,0-1.76,2.42a7.54,7.54,0,0,0,.44,3.51c.44,1.54.22,2.86-.44,3.41a6.51,6.51,0,0,0-2,2.08c-.38.88-1,.88-1.48,2.64s-1.32,1.76-1.54,3.07,1.76,1.1.44,2.64a12.55,12.55,0,0,1-2.42,2.42,9.7,9.7,0,0,0-2,2.19s.88.11.44,1-.66,1.43-.88,1.76-.33-.11-.88.55a4.49,4.49,0,0,0-.88,1.2c-.11.33-1,.55-.11.88a3.17,3.17,0,0,0,1.87,0s1-.88,1.64-.44,1.21.88.66,1.43a13.35,13.35,0,0,1-1.09,1.21c-.55.44-1,.22-1.21,1.21s-1,4.06-1.1,4.72-1.65.66,1.43,0a21.55,21.55,0,0,0,5.71-2c.55-.33-.12.66,1.37-.87s2.8-3,3.35-3.52a5.08,5.08,0,0,0,1-1.65c.33-.66.22-.88.55-1.2a7.81,7.81,0,0,0,.88-.77c.88-.88.44-1,1.31-1.54s1.54,1.21,2.09-1.65,1.54-2,.55-2.85-1.43-.88-1.87-1.43-.66,0-.66-1.1a5.18,5.18,0,0,1,.22-2.2c.33-1.2.44-1.2.66-2s.44-.77-.11-1.43-1,.88-.55-.66.88-2.75,1-3.3,0-.32-.22-1.31-.66-1.43-.55-2.09-.33-.33.11-1.76-2,.33,1-2.52,3.85-3.52,4.72-4.51,1-.76,1.21-1.53.11.66.33-1.54,3.13-6.59,4.94-7.41,5.39-3.35,6-4.67a11.89,11.89,0,0,1,1.54-2.31s.66-1.43,1.21-2.52A25.81,25.81,0,0,1,351,483c.55-.88.33-.77,1.76-1.54a16.38,16.38,0,0,0,2.3-1.54,14,14,0,0,0,1.65-1.42,43.88,43.88,0,0,1-1.65,5.38c-.55,1-4.17,3.84-4.72,4.39s-.77.33-.88,1.43a5,5,0,0,0,.22,2.53,6.28,6.28,0,0,1,.22,2.85,8.64,8.64,0,0,1-.55,2.42,4.53,4.53,0,0,1-.66,1.64,6.57,6.57,0,0,0-1,1.65,2.63,2.63,0,0,1-.77,1.43,12.63,12.63,0,0,1-1.31,1.1,21.15,21.15,0,0,1-1.87,1.43c-.66.43-.77.87-1.43,1.42s-.33-.22-1.21,1.32a12.33,12.33,0,0,1-.87,1.54,12.24,12.24,0,0,0-1.54,2.63,15.81,15.81,0,0,0-1,2.31c-.22.88.11.44-.55,1.54a8.33,8.33,0,0,0-.91,2.28,2.43,2.43,0,0,0-.08.46c0,.33,1.43-2.41,2.09-3.07s0-.66,1.21-1.21.55.66,2.52-1.54,2.2-2.08,3-3.51-.33-.11.77-1.43-.44.55,1.1-1.32.32-1.21,2.3-2.52,1.87,1.31,3.41-3,1.53-4.39,1.31-5.05-.65-1.32-.87-2.09a6.45,6.45,0,0,1-.44-2.85,4.63,4.63,0,0,1,.76-1.87c.55-.77.22-1.1,1.1-2a4.93,4.93,0,0,0,1.32-1.64,23.42,23.42,0,0,1,2.53-3.63,20.3,20.3,0,0,0,1.42-2c.66-.76,1.32-2.63,2-3.18l1.87-1.54s-1.1,3-1.32,3.63a22.1,22.1,0,0,1-1.54,3.29c-.44.66-.66,1.21-1.2,2a10,10,0,0,0-1.21,2.19,6.76,6.76,0,0,1-1.21,2c-.66.88-1.1,1.32-1.43,1.87s-.66,0-.66,1.65a9.1,9.1,0,0,0,.22,2.85,7.28,7.28,0,0,1,0,2.2,5.38,5.38,0,0,0,.77,2.3c.11.33-.55,1.32.11,1s1.54.33,1.87-1.64a28.09,28.09,0,0,1,.77-3.63c.33-1.21,0-1.21.44-2a12.35,12.35,0,0,0,.87-2.3c.66-1.76-1.64-.66,1.32-3.08s4.18-3.29,4.4-3.62a9.51,9.51,0,0,1,1.53-1.54,23.45,23.45,0,0,0,2.09-2.63s.77-.77,1.1.21.77,1.32.55,2.2a4.19,4.19,0,0,1-1.1,2.2c-.66.66-2,1.21-2.75,2.74s-1.1,3.19-1.75,4.29-.66,1.1-1.54,2.41-.33.66-1.65,2.86-1,1.32-1.32,2.2a15.81,15.81,0,0,1-1.53,3.62c-.88,1.32.32.11-1.87,2.31s-1.87,1.75-2.86,3.18a12.29,12.29,0,0,0-1.42,2.31c-1.54,2.63-.88,2.3-3.3,4.39s-2.31,1.87-3.07,2.53-3.19,2.41-3.19,2.41-4.39-1.1-5.27,0-1.54,1.1-2,2.42a21.69,21.69,0,0,0-.88,6.59c.22,1.54.44,1.76,0,3.07a12.47,12.47,0,0,1-1.31,2.42c-.44.88.65,1.1,1.31,2s.44-1.1.66.87,2.2-.43.22,2-1.76,2.64-3.29,4.18-1.76,2.74-3.08,3.45a5.67,5.67,0,0,1-2.58.69l-.08,2.06.82.74a16.57,16.57,0,0,0,.25,3.21c0,.66.08,2.31.08,2.31a9.82,9.82,0,0,0,2.23-.58,34.14,34.14,0,0,1,2.55-2.63,10.41,10.41,0,0,0,2.06-2.14c.49-.74,2.88-2.15,3.7-2.89s2.06-1.64,2.39-2.06.66-.65,1.73-2a27.46,27.46,0,0,0,2-2.72c.25-.41.25-.41-.41-1.07a11.54,11.54,0,0,1-1.73-1.81c-.25-.5-1.81.57-.74-2a30.84,30.84,0,0,1,2.06-4.12,2.93,2.93,0,0,1,1.4.58c.33.41-.42,1-.25,2.14s.16,2,.25,2.55-.5,1.73-.17,2.39.17.91.74,1,1,1,2.15-.74,1.56-1.73,2-2.72a45.52,45.52,0,0,0,1-4.53c.17-.58.74-.74.08-1.07a8.22,8.22,0,0,1-2.63-1.4c-.66-.74-1.57.66-1.07-1.24s12.43-9.06,12.76-9.55,2-1.15,3-3.3,1-2.63,1.65-3.29a7.12,7.12,0,0,0,2.14-2.8c.82-1.81,1.32-4,1.81-4.78s1.48.17,1.15-2.47-.33-3.13-.49-4.12a44.83,44.83,0,0,1,0-4.78c0-1,2.85,1.54,4,.66s1.54-2,2.42-2.85,1.32-2.2,2.41-.88a14,14,0,0,1,2.42,3.29c.44,1.1.22,1.32,0,3.52s-.88,2.41-1.1,3.73-.66,1.76.22,3.3-.15,2.19,1.13,3.73a6.11,6.11,0,0,1,1.51,4.39v1.54c0,2.2-.22,3.08,0,3.74s-3.24,6.31-3.41,7.13,1,2.64,1,2.64l4.61-3.46a4.77,4.77,0,0,1,1.32,1.81,3.61,3.61,0,0,1,0,2.64c-.33.66-.82,1.15-1.15,1.81s-.82.49-.82,2.8v4.83l-2.53,3.85-1,1a10,10,0,0,1-1.54,1.2c-.87.55-1.09.55-1.53,1.1s.55-.44-.44.55-3.52,6.1-3.68,6.76a8.51,8.51,0,0,1-.66,2.14,7.26,7.26,0,0,1-1.15,1.15s-4.62.33-5.28,0-4.17,4.23-5.93,6a7.62,7.62,0,0,0-2.19,5.27c0,1.32,2.19-1.76,0,1.32s-.22,4.83-.22,4.83h23.5s3.79-.66,4.86-3.3,1.07-4.61-.91-5-.66,1.32-2-.44-1.76-.66-1.32-1.76-2,1.76.44-1.09,1.1-.66,2.41-2.86-2.27-1.26-2.11-2.58.17-1.65.58-2,.41.66.9-1.07.74-2.14.5-2.8a4.41,4.41,0,0,0-.74-1.23c-.33-.5-.83.33-.33-.5s-.58-.57,1.15-1.23,6-3.77,6.53-4.64,1-.44.77-2.09.11-1.21-.66-3.08S391,536,390.32,534a8.6,8.6,0,0,1,.33-5.6,3.92,3.92,0,0,0,.44-1.87,14.42,14.42,0,0,0-1.32-2.42c-.55-.65-1.32,0-.77-1.31s3.41-1.21,3.46-2.2-.38.22,0-1.54,0-1.21,0-3.07.81-2.09.15-2.64-.44-.11-1.1-1.43a10.89,10.89,0,0,1-.87-2.08,3.9,3.9,0,0,1-.33-1.21,2.8,2.8,0,0,1,.11-1.32s2.74-1.21,3.29-2.31.22.44.55-1.09a11.2,11.2,0,0,0,0-2.86c.11-.33,2.09,1.65.11-.33s-1.65-1.43-2-2-.22.44-.33-.54-.11-1.32.22-1.76.22-.33.66-1,.33,1.21.77-1.32-.77-2.52-1.21-3a2.49,2.49,0,0,1-.77-1.21c-.11-.44-.55,0-.22-1.21s0,0,.88-2.09,1.54-3.95,1.87-4.83,1.09-1.54,1-2.31.12-2.63.89-2.52,1.53,1.43,1.42,2.63a6.58,6.58,0,0,1-.76,3.08,19.1,19.1,0,0,0-1.54,3.62c-.44,1.32-1.1,1.65-.77,2.42a17.46,17.46,0,0,0,.77,2.2c.44.77,1,.88.77,1.42s-.66.66-.77,1.1-.77.66-.44,1-.77-.77,1,.66.9,2.2,1.77,2.64a6.54,6.54,0,0,1,2.51,2.63c.33.88,2.42,5,2.42,5a16.54,16.54,0,0,0,3,.88c.66,0,1.43,7.14,0,8s.11-.88-1.43.88-1.53.88-2,3.07-.44,2.42-.66,4-1.32,2.41-.66,4.17.66,2.64,1.54,3.73a24.58,24.58,0,0,0,1.75,2.42c.88.88.74-.22,2.24,1.32s1.28,1.1,1.5,2.63,1.32,1.76,0,2.64-2,.88-2.2,2.2-1.75-1.1-.22,1.32,3.47,2.19,3.06,3.29-.2-1.76-.42,1.1-.44,3.29-.88,4.17-.44,1.76-1.54,1.32,1.32,1.1-1.1-.44-4.83-3.95-5.49-4.17-1.32-.66-2.19-.88a8.16,8.16,0,0,0-2-.44c-.66,0,.66-1.54-.66,0s-.88,1.1-.44,3.07.66,2,1.1,3.74,0-.66.44,1.76.88.22.44,2.41,0,.22-.44,2.2-1.54-2.2-.22,3.51-.22,4.4,1.32,5.71,2.85,2.64,2.85,2.64a8.56,8.56,0,0,0,3.3.88c2.19.22,2.63-2,7.47,0s2.63,0,9.44,1.76,7.47,1.53,9,1.75,4.61.44,2.85-1.1-.44-.44-2-2.63-2.85-1.89-3.73-4a27.56,27.56,0,0,0-1.76-3.89,7.6,7.6,0,0,1-.44-5.27c.66-2.2,1.54,1.76,1.1-3.52s-.88-6.37-.88-6.37a9.19,9.19,0,0,0-.66-2,16.2,16.2,0,0,1-.87-2.2c-.22-.66-.22-.22.22-2.41s.44-3.3.87-5.5.66-4.83.66-4.83c.88-4.61,1.1-1.76.88-4.61s0-3.3-1.32-4.39-3.51-2.64-2.85-4,.44-3.51,2-1.76,2,1.54,2.63,3.08,2.2,1.76.88,4.39.66,1.1.66,2V528c0,2-.66,2.41-.44,3.51a15.25,15.25,0,0,1,0,4.62,33.4,33.4,0,0,0,0,4.83c0,1.1-.66,1.76-.66,2.85s.66,2,.88,2.86.66.66.66,2-.66,2.41-.66,3.73a36,36,0,0,0,.44,5,5.52,5.52,0,0,1,.22,2.2,6.66,6.66,0,0,0,.66,3.51c.66,1.76.44,2,1.53,3.3s2.16.75,2.51,1.91.57,1.16,1.45,2-.88,1.1.88.88,2.63-1.32,2.41-2-1.47-.44,0-2,1.06,1.09,1.5-1.54,1.32-2.64,0-3.52l-1.32-.87a14.38,14.38,0,0,1-3.29-2.42c-.66-.88.44.88-.66-.88a9.73,9.73,0,0,1-1.32-2.85s-.88-.66.22,1.09,3.3,2.42,4.61,1.32,1.54.66,1.32-1.1,1.54-.22-.22-1.75-3.95-2.86-4.39-3.52-1.1-1.1-.88-1.76-.44.22.44-1.53.88-1.32,1.76-3.3.88-2.19,1.53-3.51a65.47,65.47,0,0,0,2.25-6.35c.35-1.14.65-2,.65-2s.4,8.13,1.06,10.32.66,3.08,1.32,4-.88,0,.66.88,1.53,1.1,2.63,1.1,0-.88,1.1,0,2.2,2.19,0,2.41-1.1-1.54-2.2.22-.66,2.2-.22,2.86,3.86,0,3.69,0,.07-2,.17,0-.12,2-1.44,3.07-2,1.1-2.86,2.2-2.63-.22-.87,1.1,2-1.1,1.75,1.31-.66,2.86-.66,4,8.24,5.93,8.24,5.93,20.1-.33,20.1-1.32,1-3.29,0-4.94a10.59,10.59,0,0,0-1-1.65c-1.32-2-2-1.65-3.29-3.29s-2.31-2-1.32-3.3,2.3-3,1-4-2-1-4-3-7.25-9.11-7.25-9.11-.22-3.74-.88-5.06a8.47,8.47,0,0,1-.87-2.85c-.22-1.1-1.1-1.54,0-2.2s2.19-1.1,1.75-2-.44-3.52-2.41-7-2.86-5-2.86-5a15.16,15.16,0,0,0-.44-4c-.44-.88.22-.66-1.54-2.2s-1.75-1.53-2.85-2.63-1.76-.88-2.64-2l-.87-1.1s1.09-4.17,0-5.49.43.88-3.08-3.07-.88-1.32-3.51-4-4.18-3.73-5.72-5.71l-1.53-2s-1.76-.22-2.2-2.64-.22-4.39-.66-5.05-.44-.66-1.76-1.76-.65.66-1.31-1.1.66-9.66.22-10.54-1.32-5.65-2.2-5.79-.88.52-1.54-1.24-.66-.22-1.32-2.75a19.35,19.35,0,0,1-.66-4.72c-.21-2.19-5.93-10.76-6.8-12.52S410,439,408,434s-1.32-2.64-2-5.06-.66-2.85-1.54-4.39a28.76,28.76,0,0,0-2-2.85c-.88-1.32-.88-1.54-1.76-2.86s-1.54-.44-1.32-2.42a28.79,28.79,0,0,1,.66-3.29c.22-1.32,1.1,2.64.88-2.64s.66-5.49-.44-7-2.86-2.81-3.07-4.7a10.42,10.42,0,0,1,.43-3.87s-2.19-3.52-1.75-6.81-.44-3.3-.44-5.93,1.86-3.63,0-4.83-.44-2.64,0-4.4a10.84,10.84,0,0,0,.66-3.51c0-1.54-2-10.62-.52-11.13s2.49,2.12,2.93,2.78a16.61,16.61,0,0,1,2,5.93c.22,2.42-.22,6.15.22,8.13s1.1,5.71,1.54,7a46.84,46.84,0,0,1,1.1,5.05,11,11,0,0,1-.64,5.65l0,.06c-.44,1.1-.88-1.1-.44,1.1a18.43,18.43,0,0,1,.44,2.2c.22,1.53-.66,4.61.22,1.53s1.2-8.78,2.57-9.88-2.79,5.93,1.38-1.1,3.95-3.73,4.17-7,0-5.71.22-6.81-1.1-6.37.22-4.83,2.64,12.74,1.54,14.94-1.54,3.73-2.42,4.83-1.53,1.1-1.75,2.42-.22-2.19-1.32,4.61-1.22,5.27-2,8.57-1.48,3.73-1.48,5.93-.87,3.29-.87,4.83.22,1.54,1.09,3.73.11,2.86,1.26,3.3a19.26,19.26,0,0,1,3.36,2.19s2.85-8.12,2.19-9.88a9.79,9.79,0,0,1-.66-4,9.12,9.12,0,0,1,.44-3.3c.44-1.32.22-.44,1.1-3.07s1.1-3.24,2-4.48,1.1-4.75,1.76-2.33.87,1.75.65,4.61a30.44,30.44,0,0,1-1.53,7.25,27.74,27.74,0,0,0-1.32,4c-.22,1.1-.66,2-.44,2.64s0-.88.22.66,1.1,1.09,0,3.07-.44,6.81-.22,7.47l.22.66c-.22-.66,2.64-3.08,3.95-6.37s2-5.93,2.86-8.57,1.32-3.29,1.54-6.15,3.07-8.13,3.07-8.13,0,15.38-.88,17.36a19.36,19.36,0,0,1-1.75,3.73,58.92,58.92,0,0,1-3.3,5.49,10.12,10.12,0,0,0-2.42,4.83c-.43,2.2-1.75-.21-.43,2.2s1.75,3.3,2.85,3.74,4.83,9.22,6.37,9.22,4.39,0,5.49.44,1.32,2,2.42,1.1,1.76-1.32,3.51-2.86,1.54-.44,3.3-3.07a21.08,21.08,0,0,0,3.07-5.49c1.54-3.52,1.1-1.76,2.64-5.93s1.54-4.4,2.41-5.93.88.43,1.32-2.42.22-2.2,1.1-4.39.66-2,1.32-3.74.22.88.66-1.76,1.87-5.76,2.19-7.08a7.31,7.31,0,0,0-.16-4.2c-.49-1.24-1-1.56-2.14-3.87s-1.48-5.44-1.81-6.1a9.29,9.29,0,0,1-1-1.81A36.72,36.72,0,0,0,448,383.5c-.82-1.48-1.81-2.14-2.14-3.29s.49-1.49,1.81-.17a24,24,0,0,1,2.47,3.46,28.37,28.37,0,0,0,2,2.64,17.5,17.5,0,0,1,2.63,3.29,24.1,24.1,0,0,1,2,4.62,34.41,34.41,0,0,1,1.32,5.6c.33,2.3,2.31-.66,1,4.61s-12.91,35.09-13.7,37.07-2.45,4.28-2.45,5.93-1.64,3.62-2.3,4.94-.33-4.29-.66,1.32-1,4.61.33,8.56.33,5.27,3,5.93,3.63,1.32,4.62,3.3a35,35,0,0,0,2,3.62,37.82,37.82,0,0,0,3,4s3.62,2.3,3.95,1,1.32.66.33-1.31.66,7.57-1-2-1-10.87-2-12.19-.33,2-1-1.32-1.32-2.48,0-5.52,1-3.05,2.63-6,3-4,3.3-7.91a49.05,49.05,0,0,0,.33-6.26c0-2.63-1-2.63.33-5.27s1.64-4,2.63-5.27a7.88,7.88,0,0,0,1.65-4.61c0-1.65-.33-1.32,0-3.3a14.75,14.75,0,0,0,.33-3.95c0-2.31.33,0,0-2.31s-.33,3.62-.33-2.31.33-3.62,0-5.93-.66-5.1-.66-5.68v-6.51c0-1.64-.33-5.76-.33-5.76s2,5.6,2.14,6.09.66,2,1,3.13a69.88,69.88,0,0,1,1.32,9.23,13.76,13.76,0,0,0-.17,2.8c0,1-.32,1.65.33,1.81s1.16.49,1.65-.49,1-2.31,1-2.31a3.21,3.21,0,0,0,1.43-3.13,19.49,19.49,0,0,1,.71-5.77l.83,4.62a5.19,5.19,0,0,1,0,3.29c-.66,1.32-1.65,4.45-2.15,5.6s-.33.83-1,2.64-1.82,4.12-1.65,5.11,1.48.82.66,2.3-.66.33-1.65,3a42.23,42.23,0,0,0-1.81,4.77c-.17,1,1,7.91,1,7.91s1,6.26.65,7.58-1.31,5.6-1.31,5.6l-.83,5.93-1.31,4.61s1,11.43.82,12.31a6.3,6.3,0,0,0,.44,2.63s1.54,4.83,1.32,5.93a30.1,30.1,0,0,0-.88,5.05c0,1.54.22,2,.22,3.3a9,9,0,0,1-.66,2.85c-.22.88-.22.22-1.54,2.64s-2,2.2-2,3.73-.66,1.32-.44,3.08-.43,1.76,2.2,3.07,2.86,1.32,3.95,2.2,1.1,2.2,1.76,2.64,0,.44,1.76.66,1.9,2.41,2.71-.66,1.46-5.06,2.56-6.15l1.1-1.1s2-1.1,0-3.08-2.86-2-3.95-3.73-2-2-2.42-3.52-.22-1.31-.66-2.63-1.32-3.3-1.32-4.39-.44-1.76.22-2.64.66-1.76,1.32-2.64,1.76-.87.66-2.85-.88-2.64-1.54-3.74.66,1.76-.66-1.09-2.41-2.42-1.54-4.18-.65.22.88-1.75,0-.44,1.54-2,1.1-.44,2.42-3.08.66-.44,1.32-2.63.43-3.74.87-4.51-.44,1.65.44-.76-.22-2.42,1.1-4.18-1.1.44,1.32-1.75.88-.22,2.42-2.2-.44.22,1.53-2a31.23,31.23,0,0,0,3.08-3.51c1.1-1.54,1.32-1.54,2.19-2.64s1.32-.88,2-2a13.71,13.71,0,0,0,1.32-2.41c.22-.66,0-.66,0-1.76s1.54,4.39,0-1.1-1.76-4.17-1.54-5.49-.88,1.1.22-1.32,1.32.88,1.1-2.41.22-1.1-.22-3.3,1.32,3.08-.44-2.19-1.1-1.1-1.76-5.28.66,4.4-.66-4.17l-1.31-8.57,4.39,5.72a8.16,8.16,0,0,0,.9,3.29c.86,1.54,1.08,2.64,2,4.39s.21,2.86,1.09,4.18,1.54,1.53,1.54,3.73a34.34,34.34,0,0,1,0,4.83c-.22,1.1-1.54,4.18-2,5.71a15,15,0,0,0-.44,4.4,6.06,6.06,0,0,1-1.75,4.83c-1.76,2-1.54,1.76-2.86,3.07a10.22,10.22,0,0,0-2.41,2.86c-1.1,1.76-.88,1.76-1.1,3.51a42.41,42.41,0,0,1-.88,6.48,36.21,36.21,0,0,1-2.2,6.7c-.66,1.1-.88,1.54-1.54,2.86a5.11,5.11,0,0,0-.65,2.42c-.22,1.31-1.54.22-1.1,3.95s.66,3.95,1.1,4.83.87,1.1,1.31,2,.88,1.76.44,2.63-1.31,1.1-1.31,2.2-1.32-.88,0,1.1l1.31,2c.88,1.31,1.76,2.85,1.54,4S480,497,480,497s2.2,2.63,3.74,1.32,1.32-.66,2.85-2.2.66-2,3.3-3.08,2.42-1.31,3.73-1.31.44,1.09,2.42-.44,3.07-1.1,3.07-1.1a22.72,22.72,0,0,0,3.08-.22c1.32-.22,2.42-.88,3.95-3.08A29.37,29.37,0,0,0,509.7,481c.66-1.75-.44-1.32,0-3.07a8.65,8.65,0,0,1,1.54-3.08s1.53,5.49,1.09,6.81a4.3,4.3,0,0,0,.08,2.64L509,489.76a9.73,9.73,0,0,1-1.76,2c-.88.65-1.1.65-2,1.31s-.65.22-3.07,2.86-3.51,3.95-3.51,3.95c-3.08,1.76-2.86,2-4.4,2.64s2-1.76-1.54.66l-3.51,2.41s-3.08,2.64-2.64,3.52.22,1.32.44,2.19,0,1.1-.88,2,.44-.22-.87.88-1.76.88-2.42,1.76-1.76.88-2,2,1.76-1.09.88,2.86,4.83,5.49,4.83,5.49,2.42-.22,2.64-.88-1.32-.66.22-.66,2.2,0,3.07.88a8.42,8.42,0,0,1,1.76,2.42c.44.88-1.76.44.44.88s4,1.1,3.52-.44-.88-2.2-.88-3.08.66-1.53-.22-2.19a18.83,18.83,0,0,1-3.74-2.86,4.3,4.3,0,0,1-.66-3.29s.66-2.64,2-2.42a7.51,7.51,0,0,1,4,2.42c.87,1.09.43,2.41,1.09,3.07s.88,1.32,2,0a10.08,10.08,0,0,0,1.54-2.42c2,.88,3.07.66,2,2.2s-1.31.88-2.19,2.64-1.1,1.32-1.54,3.07-1.1,2.64,0,3.74,1.1.87,2.64,2.19,1.75,1.1,2.63,2.42l2.64,4h2.93c1.68,0,.58,1.32,1.68,0s-.44.88,1.1-1.32,3.51-2.63,2.63-4.61-.65-3.07-1.75-4.17a5.26,5.26,0,0,1-1.54-2.42,19.6,19.6,0,0,0-1.32-2.41c-.22-2.2.88-3.08.66-5.49s.88-4.84-.66-4.84-4,0-3.51-.88-.66,0,1.54-2.19,2.63-2,3.73-3.3,2.19-1.1,3.07-2-2.85,2.63,2.2-1.76,4.39-4.39,6.15-5.27,4.5-2.86,6.15-3.85,1-1.64,3.3-1.31,3.29-1.32,4.61-2.31-1.65-2,1.32-1,3,1.65,4.61,4-2.31,6.26,3,3.3,6.58-5.27,8.23-6.26,2-2.31,3.3-.66,2.63,1.32,4,1.65,2,0,3,2-1,2.64,0,4.62a24.15,24.15,0,0,0,2.3,4c1.32,2,.66-1.65,1.32,2s0,4.61-1.65,6.59,1.65-.66-4.28,4.61-7.25,3-5.93,5.27,4.28,2.64,5.27,3.63,4.28,3.29,2,4.94-5.93,3-7.58,4.61l-1.65,1.65c-3.62,3.62-3.62,3-5.6,5.6s-4,.66-2,2.64a21.17,21.17,0,0,0,4.29,3.62c2,1.32.66,1,3.29,2s2-1,2.64,1,2.3-1,.66,2-2,3.3-4,4.94,1.32-.66-2,1.65-3.3,1.32-4.62,3-1,4.61-1,4.61c-4-1,1.64,1.65-4-1s-5.93-3-7.58-3.29a16.49,16.49,0,0,0-3-.66h-1c1,0,0,2,1.32,3.95s1,4,1,5.27,5.93-2,0,1.32-5.93,4.92-7.58,5.1-5.93,0-5.93,0l3.13-8.07s1.48,0-1-2.3a48,48,0,0,1-4.28-4.28c-.66-.83.16-.5-1.32-2a19.41,19.41,0,0,1-2.47-2.8c-1.32-1.65-1.32-2.14-2.14-2.8s-2.81-2.47-3.3-2.8-1-1-1.81-.83.66-.82-.83.17.83,2-1.48,1-2.63-1.32-2.63-1.82.65,0-.17-1.31-1.15-2.15-1.65-2,1.16-1.15-.49.16-.17-.33-1.65,1.32-1.32,3-1,3.79,1.82-.66.33.82L498.44,554c-1,1-2,1.32-1.32,2.14s-1-1,.66.82,1.65,1.81,2.14,2.8a1.94,1.94,0,0,1-.16,2.47c-.66.66,1-.16-.66.66s-4-.16-2.8,1.32,2.14,2.31,2.63,3.13,1,.66,1.16,2.14-1.81,4.45-3.3,4.78-3.46.49-4.12,1-.49,1.29-2.8,1.06S545.39,586,545.39,586l26.28-10.71a12.4,12.4,0,0,0-2.89-1.81c-1.31-.5-4.61-1.16-5.27-1.82a8.19,8.19,0,0,0-2.47-2,33.59,33.59,0,0,0-4.78-1.49,13.9,13.9,0,0,1-2.8-1.15,5.17,5.17,0,0,1-1.15-1.32s.82-.82,4.12-.82a19.75,19.75,0,0,0,5.6-.49,18.53,18.53,0,0,0,4-1.16,8.83,8.83,0,0,1,2.15-1c1-.33,3.14-.33,3.54-.65s-1.56.16,0-1.16.41-2.47,1.56-1.32l2,2,3,.17s8.41-.66,10.05-1.16,3.3-1.32,4.62-1.32a6.18,6.18,0,0,0,2.63-.32,16.61,16.61,0,0,0,1.65-.66,5.6,5.6,0,0,0,2-2c.66-1,1.48-1.81,1.15-2.8s-.82-1-1.81-2.64.33-.49-1-1.64l-1.32-1.16a7.89,7.89,0,0,0-2.8-2.8,16.27,16.27,0,0,0-3-1.32,2.59,2.59,0,0,1-1.49-.16,6.32,6.32,0,0,1-1.15-1.32,9.07,9.07,0,0,1-.33-2.8,7.18,7.18,0,0,0,0-2.64c-.16-.49-3.13-1.31-3.29-2s.16-.66.49-2.31.16-2.3.33-3.13a5.24,5.24,0,0,0,.16-1.81c0-1.32-.49-2.31.17-3.46s.16,0,.66-1.15a28.12,28.12,0,0,0,1-3.13l1.86,6.86a8.2,8.2,0,0,0,2.2,2.42,20.92,20.92,0,0,1,2.64,2.19s1.31,1.76,2,2.42,2.2,2,2.2,2c1.54,3.07,1.1,5.93,1.54,6.59s1.09,2.19,2,3.73,1.76,2.86,2.64,3.3-.88-.88.88.43,2,2,3.29,2,1.1.88,2.42-.88,2.2-3.51,4-4.17,2.2-1.32,3.3-.22,15.59,2.86,16.47,1.76.22-2.86,0-3.74.44.44-1.54-2-.22-.66-2-2.42-2-1.54-2.64-3.08-1.1-1.75-1.32-2.85-.66-1.1-.22-2,0-3.29,1.76-2,4.39,2.85,4.39,2.85,7.91,2.2,9,3.08a12.26,12.26,0,0,1,2.42,2.63c.43.66,1.09,1.32,1.53,2a3.73,3.73,0,0,0,1.76,1.32c.88.44-.88.22.88.44l1.76.22,2-3.3-2.41-2.64a36.5,36.5,0,0,0-5.06-3.95c-2-1.1-.87.22-2-1.1l-1.1-1.32s1.1.66-2.42-2.19a38.45,38.45,0,0,1-5.27-5.05h0s5.27-.66,5.27,2.19,2.42,2,2.42,2c2.42,2.42,1.76-.66,2.42,2.42s2.19,1.53,3.07,2.19,1.1.44,2.2,1.54,1.75,1.32,2.85,2.42-1.31,0,1.1,1.09.66,1.1,2.42,1.1-.22,1.54,1.75,0,2.2-.88,2.86-2.41.88-1.1.88-2.42-1.54-.66,0-1.32a3.6,3.6,0,0,1,2.85,0s-4.39-6.37-5.27-7.25-.22-1.09-.88-3.07-.66-2.64-1.75-3.52,1.09.88-1.1-.87-2.64-2-3.74-2.86-1.53-.88-2-2,0-1.53-1.1-2.85L647,508s-.66,1.32-1.32,1.32a2.91,2.91,0,0,1-1.75-.44c-.88-.44,4,3.07-4.18-2.86S629,497.67,629,497.67s-.88-1.54-1.54-2.42l-.66-.88s-2.41-1.54-3.95-2.41,0,.43-1.54-.88-.44,0-1.54-1.32-1.09-1.76-2-2.64.66.22-.88-.88-1.76-.65-3.08-1.53-2-1.1-2.85-1.76-3.08-2.42-3.74-2.86-.22,1.1-.66-.44-1.53-2.85-.21-2.41,6.09,4.28,6.09,4.28l3,2c1.81,1,2.14,1.32,2.8,1.65s.66.49,1.15,1.15.66,1.15,1.32,1.48l.66.33a12.9,12.9,0,0,1,2.3,1.32c.66.49.66.66,1.49,1.32s1,1.15,1.64,1.48.83.16,1.49.66,1,.82,1.48,1.15a4.57,4.57,0,0,1,1.15,1.32,9.94,9.94,0,0,0,1.15,2.31,9.22,9.22,0,0,0,2.81,2.3,5.66,5.66,0,0,1,1.64,1.32l2.31,1.48,2,1.32s.82.5,1.81,1-.83.49,1,.49a12.15,12.15,0,0,0,3.62-.66c1.81.5,10.54,8.74,11.53,9.4s6.76,2.14,7.42,2.63a11,11,0,0,1,1.81,2.47c.66,1,2.47,2.64,3,3.3a5,5,0,0,0,2.31,2.3,13.77,13.77,0,0,1,3.46,2.47,18.08,18.08,0,0,1,1.81,3.63,4.09,4.09,0,0,0,1.15,1.81l1,1s2.47,4,0,5.6-4.12,2.64-4.77,4.28-1.65-.33-.66,1.65,4.28,1.65,1,2-5.6-1.57-6.34-2a14.64,14.64,0,0,1-2.55-1.89c-.25-.33-.66-1-.41-1.4s.66-.5,1.07-1.4,1.56-1.82,1.65-3.13a6.2,6.2,0,0,0-.25-2.64,5.69,5.69,0,0,0-.91-1.89c-.49-.75-4-2.39-4-2.39s.25,2.14.41,3a17,17,0,0,1,.16,2.72c0,.58-.32,1.4-.32,2a13.24,13.24,0,0,1-.5,2.06c-.08.41-.41.57-.41,1a4,4,0,0,0,.82,1.73c.41.58.74,1.24,1.24,1.9a6.92,6.92,0,0,1,1,2.63c.16.91-.25,1.49,0,1.73s-.58,6.59-2.23,7.91-3.29,2-4.61,3.3a27.85,27.85,0,0,0-2.64,3.29,38.48,38.48,0,0,0-3.62,4.94c-.66,1.32,0,1.65-2.31,3.3a24.2,24.2,0,0,1-6.59,3.62c-3.29,1.32-3.95,1.65-5.93,2s-2,.33-4.94.66-3.62.33-5.27,0,.66,1.32-1.65-.33,0,.33-2.3-1.65l-2.31-2s0,.65-2.31-1.65l-2.3-2.31s-1.32-1,.33-2.63-2.31,1.31,1.64-1.65,3.3-2,5.28-3.63,1.64-1,4-3,1.32-.66,3.62-3,0,.33,2.31-2.3a51.91,51.91,0,0,1,4.61-4.62s-6.59,3.3-8.23,3.63,1.31-1.32-1.65.33-.33-1-3,1.65.33,1.31-2.63,2.63-4.29,2-6.59,2-.66-1.32-4.29,0a56.84,56.84,0,0,1-6.26,2c-2.3.66-2.3,1-4.28,1.32s1.65-1.32-2,.33-4.28,2.31-5.93,2.64a17.94,17.94,0,0,0-3.29,1c-2,.66-2-.66-5.93,1.64s-5.27,3-6.59,3.63a7.19,7.19,0,0,0-2.64,1.65c-1,1,.74,4.11-2,2.63S467.24,684.15,467.24,684.15Z"/><path class="cls-7" d="M389.08,215.51l2.69,3.42v3.16c0,.35,1.32,1.67,2.64,2.55s3.29,1.32,4.17,2.19,2,3,2.86,3.9,2.2,4,3.07,5.11-.11.88,2.14,2.2a13.26,13.26,0,0,1,3.36,2.41,42.77,42.77,0,0,1,3.29,3.3s1.32,2.19,0,2.41.22,1.1-1.32.22l-1.54-.88a23,23,0,0,1-1.75-2c-.66-.88.66.66-.66-.88l-1.32-1.54s0-1.32-1.54-.88-2,.44-2.63,1.1-.13.66-1.06,1.76-1.36.88-.92,2.41,1.19,1.1.92,2.64.49,1.1,0,2.42.93.88,0,2.85-1.58,2-1.36,3.3.66.66.22,2.41-.88,0-.44,1.76l.44,1.76c.66,2.63.44.88.66,2.63s1,2.64.48,3.74,0,2,0,2.63a2,2,0,0,0,1.06,2.2c1.1.44,6.81,3.51,6.81,3.51l-4.18-5.71s-.88-2.19-.66-3.07.22-6.59.22-7.25-.66.88,0-.66a4.72,4.72,0,0,1,1.92-2.2c.94,2,1.38,2.2,2.7,2.2s1.75-1.32,2.41,0,1.76-.88.66,1.32-2,3.51-2,4.61-.22,1.54-.22,2.2a2,2,0,0,0,.66,1.76c.66.65,1.76,1.53,1.76,1.53s3.95,5.49,3.95,6.37v2c0,.66-2.19,1.54,0,2.2s2.2-1.54,3.52,0,1.76,2.3,2.85,2.91,1.32.38,2.42,1.7.88,2,2.2,2.41,2.41,1.32,2.41,0v-1.31s.66,1,0-2.8-1.31-3.57-1.31-4.89-.44-2.64-.44-3.52-.22-1.09-.22-2,.44-.88-.66-2.64-.66-.22-1.1-1.76a24.91,24.91,0,0,0-.66-2.85c-.66-2-.88-1.76-1.1-3.08a18,18,0,0,1-.44-2.19c0-.66.66-.44-.44-2.64s-4.39-6-4.61-7.07a14.22,14.22,0,0,1-.44-2.81v-.88c0,.88,7.25,10.32,7.25,10.32,2.42.44,2.2.44,3.51,1.54s1.54.66,3.08,3.08,1.54,2.41,2.42,3.73.44,2.64,2.19,4.17a13.4,13.4,0,0,0,4,2.64c1.09.44,1.75-.44,2.19,1.1s-1.1,2,0,5.27.88,2.09,1.32,4.45-.22,2.21.88,4.81.66,2.6,2.2,3.92a29.07,29.07,0,0,0,2.85,2.19c1.76,1.32,2.64,2,4.17,3.08s.66-.22,3.08,2.2a25.91,25.91,0,0,1,3.51,4.17s.44-4.39-.87-6.15-2.42-1.1-3.52-4.17-1.54-4-1.76-5.72-1.09-3.73-1.31-6.37-.44-2.63-.44-3.73,1.53-3.29,1.53-4.83V273.4s3.08,2.64,3.52,4.17.22,2.42.88,3.74,1.46,1.1,2,2.85-.29,1.32,1.47,2.64,2.42,1.32,3.52,2.64,0,.21,1.75,2.63,1.32,1.1,3.3,4.39-.22,1.1,3.07,4.4,3.08,2.85,4.4,4.17,4.39,3.73,5.49,4.61-6.59-10.1-7-11,.44-2.42-.22-3.07-1.32-2.42-2.2-3.52-.22,0-.88-1.1a4.68,4.68,0,0,1-.87-3.07v-1.54s.22-2.09,1.09-.82,1.32,1.26,2,2.36a7.43,7.43,0,0,0,2,2l6.26-1s-1.33,3,0,4.28,2.63,7.91,3.62,8.9l1,1s2.31,2,3.3,2.64,2,4.61,1,.66.49-7.25.41-7.58,3.88,4.28,3.88,4.28l5.93,4.29s-4-8.9-6.92-8.9-3.3-2-4.94-3,.33,2-1.65-1a28.83,28.83,0,0,1-2.64-4.62s-3-7.68-3-4.33-6.92-3.9-7.58-4.89l-.66-1L471.84,276c-3.63-.33-3.3-2.31-4.94-1s-.66-.66-1.65,1.32.33-3.19-3.3-1-4.94-3.3-5.27-4.62.66-1.64.33-3.29.33-2.82-1-4.87-1.64-3-2.3-4a25.18,25.18,0,0,1-1.32-3c-.66-1.32-1.32-2-1-3.63s1.32-3.29.66-4.28,2,1.65-.66-1-5.66-2.63-5.14-4-.19-2,0-3.3,1.84,1.32.2-1.31-2.31-2.31-3.3-4.29-2-2-2-3.62v-3.3c0-1.64,1-2-.33-3.29a14.62,14.62,0,0,1-2.31-3c-.66-1-.33-4.61-.33-4.61l-.88.88-7.41,4.12L425.49,217l-3,.49-23.73-5.93Z"/><path class="cls-7" d="M179.33,359.93a37.23,37.23,0,0,0,7.91-2c4.61-1.65,2.31-1.65,3.95-2.64s8.57-3.62,21.75-7.91,2.3-.33,6.26,0,2.3.66,4.61,1.65,2.31.33,8.57-.66,5.6-2,9.55-2.31,6.92-1.31,11.86-3,5.93-3.3,9.56-5.27,3.95-3,6.92-5.6a59.12,59.12,0,0,0,6.59-6.92c1.32-1.65,4.28-3.63,7.91-6.59s7.57-1.65,9.22-1-.33,3-1.32,4.94-3.95,4.61-6.26,6.92a51.35,51.35,0,0,1-8.56,6.92,21.47,21.47,0,0,0-6.26,5.6c-2,2.31-4,4.94-5.61,7.25s-8.56,8.57-8.31,8.24,4-.33,6-.33,4.61-3,5.93-4.62,4.28-4.28,5.93-5.93,11.2-3.29,13.18-5.27,6.59-3,8.89-4.28,7.58-8.24,7.58-8.24-1.32,6.26-2.3,8.9-2.31,3.95-3.3,5.93-2,2.63-3.62,4.28-4.62,4-5.93,5.27-1.65,3.63-1.32,5.6.66,3-.33,5.28-3.62,9.55-3.62,9.55l7.57-5.6s5.6-2.64,7.58-3,4.94-12.84,6.26-14.82,2-6.26,3.63-7.58a8.92,8.92,0,0,1,8.23-2l.88-.88L337,315.78l2.86-1.32,5.05,6.37-3.29,3.59,8.12,4.76-.88,8.24s5,6.16,6.59,6.92l1.62.76,4.42-2.63c5-3,3.3-6.26,4-8.57s.66-3.62,2.63-6.59,2-15.15,3.63-12.52-.33,10.55,0,13.18,4.61,2.64,4.61,2.64l3.34,3s-1.36-2.07,1.93-4,0,0,.66.16.88,1.82,1.76,2.34a9.88,9.88,0,0,0,3.95,1.67c1.76.22.66,1.32,1.1,2.53s-.44,1.43-.22,3.4,0,0,2,1.76,0,0,1.32.88,1.09,1.1,1.75,2.74a9.56,9.56,0,0,0,1.54,2.75,70.48,70.48,0,0,1,3.08,6.81,12.39,12.39,0,0,0,0-5.27c-.66-2.64.21-2.2.87-5.05s0,0,1.32-1.32,1.76-.88,4.18-1.76,0,0,1.09-.66.44-1.31,0-2-1.31-3.74-2.06-5.06-1.23.66-2.33,1.54-2,.66-2.86,1.21-.21-6.26.22-6.54.88-1,2-2.14,0,0,.88-2,.88-1.76-.22-4.77-1.76-1.82-1.1-2.92,0,0-1.54-1.1a25.18,25.18,0,0,1-2.63-2.2c-2.64-2.19,0,0,0-1.09s.44-.88,1.32-1.76.44-1.1.88-2.2a5.31,5.31,0,0,0,.65-2.63c0-1.32,2.2-1.32,4-2.86s0,0,.22-2,0,0-.22-1.31.66-1.76-1.1-2.64-1.1,0-2.2.44-1.31-2.42-1.31-2.42v-1.75l-.66-.22c-.66-.22,0-1.54,0-1.54l2.41-1.32s1.54-.66,0-2.85l-.44-2.2a9.86,9.86,0,0,0,2.2-1.54,4.31,4.31,0,0,0,1.1-3.29c0-1.32,0,0-.66-.66s-1.54-1.32-2.42-2.2a1.51,1.51,0,0,0-2,0,9.74,9.74,0,0,1-1.32,2.2,3.26,3.26,0,0,1-2.34,1.1s-1.4.22-2.49.44a31.13,31.13,0,0,0-3.52,1.09,5.61,5.61,0,0,0-2.63,2.42,19.24,19.24,0,0,1-1.76,2.2c-.66.66-2.2.88-3.52.88a9.09,9.09,0,0,1-3.51-.44,17.5,17.5,0,0,0-4.17-.44l-1.32,4.17-1.76,3.08-2.42-1.1,3.08-14.06-1.82,6.37-2.79,1.76L363.4,287l-4.39.44,3.29,2.19.88,2-.88,3.52-3.07,3.73a14.09,14.09,0,0,0,3.51-.44c1.32-.44,0,2-.66,2.64s-.22,2-.22,2l1.32,1.32a3.45,3.45,0,0,0,3.3.66l1.09,3.73a8.87,8.87,0,0,1,3.08,4.4c.66,2.63-.44,1.1-1.32,1.75l-1.76,1.32c-1.75,1.32,0,0-1.09.66s-1.54.66-3.3.66-1.76.88-3.51,1.32-1.1.66-2.56,1.54-2.5.43-4.25,0a5.89,5.89,0,0,1-3.3-1.76c-.88-.88.44-1.32,1.1-2.42s1.76-.66,3.08-1.76,4.17,0,6.15-2.63c0,0-1.1-1.1-4.18-1.54s-1.31,1.1-3.73,2-1.54.44-2.86,0-1.09-.44-.88-2.2,0,0,.44-.88,1.1-1.1,1.76-1.75,0-2.64.22-3.52.22-1.54.66-1.88.66-3.17-.66-3.83-2,.88-3.07,2.2-1.1,1.32-2.2,1.53a9.42,9.42,0,0,1-2.62,0s.42-2.19,3.28-5.05c0,0-2.86-1.1-3.23-1.75s1.69-.66,3.67-1.32,2.63.44,4.61,0,0,0,0-2.86c0,0,1.1-.66,2.86-1.54a1.47,1.47,0,0,0,.44-2.41s-1.54,1.1-2,0-2.86-2.09-2.86-2.09a14.6,14.6,0,0,1-5.49-.55c-2.85-.88,0,0,.44-1.1s1.32-.22,3.3-.44,0,0,1.53-1.09-.66-1.1-1.31-1.1a3.27,3.27,0,0,1-2-.44c-.66-.44-1.1-2,1-2.2s1.81.22,2.69.22,1.1-.88.66-2-1.32-1.76-1.1-2.64a1.43,1.43,0,0,1,2.42-.44c.88.88,3.29,4.17,3.29,4.17a11.1,11.1,0,0,0,2.06,1.1c.74.22,2.56,4.61,2.56,4.61l1.53,1.87s1.54-2.74,2-3.4a55.77,55.77,0,0,1,4.83-4l-4.44-12.74L357,255.76l3.46-14,3.62-3s1.65,3.3,1.81,3.79,1.16,3.13,1.16,3.13l1.64,4.12L367,254l.16,7.58,3.58,6.09v4.95L384,284.92l2-7.91,4.28-.65-.16-5.44-3.3,2.8-.33-4.61a17.75,17.75,0,0,1,2.31-3.46,1.75,1.75,0,0,1,2.14-.17,8.05,8.05,0,0,1,2,2.47,2.63,2.63,0,0,0,1.48,1.16,8.82,8.82,0,0,0,0-2.15c-.16-.49-.66-2.47-.66-2.47l-3.79-2.14-1.31-3,2.14-3.79,3-5.93V227.1H388l-2.8-1.32-2.47-3.7H372.63l-2.15-4.54-7.24,6.26-16.15,3.3v-1.65l4.45-6.26-4.45-2.8h-5.93l-8.73,4.28-1.32,6.76-3.79,3.29-2.14-7.25v-7.41l-3.43-2.63s-10.3,6.8-10.79,7-1.48,1.65-4.12,3.62-3.79,4.94-4.45,6.43-13.67,10.05-20.92,15.32-33.83,20.48-37.12,21.36-11.53-1.65-11.53-1.65a14.62,14.62,0,0,1-3.85,2.64c-2.19,1-5.38-1.54-6.7,0s-15.15,13.95-20,17.13-15.16,6.26-18.89,10.11-7,7.46-10.88,11.2-14.38,10.1-14.38,10.1S171.64,329,173,329.84s1.1,2.86,3.52,5.05,4.83,3.3,6.81,4.62,5.05,1.31,4,3.73-7.91,16.69-7.91,16.69"/><path class="cls-7" d="M594.82,457.8c.88-1.1-10.27-1.51-9.52-1,7.62,5.27-8.68.12-10.66-2.3s-6.83-8.87-8.58-10.63-2-1.54-2.64-3.07-1.1-1.76-1.32-2.86-.66-1.1-.22-2,0-3.29,1.76-2,4.39,2.85,4.39,2.85,7.91,2.2,9,3.08a12.5,12.5,0,0,1,2.42,2.63c.43.66,1.09,1.32,1.53,2a3.73,3.73,0,0,0,1.76,1.32c.88.44-.88.22.88.44l1.76.22,2-3.3L585,440.58a36.3,36.3,0,0,0-5.06-4c-2-1.1-.87.22-2-1.1l-1.1-1.31s1.1.66-2.42-2.2a38.45,38.45,0,0,1-5.27-5.05h0s5.27-.66,5.27,2.19,2.42,2,2.42,2c2.42,2.42,1.76-.66,2.42,2.42s2.19,1.54,3.07,2.19,1.1.44,2.2,1.54,1.75,1.32,2.85,2.42-1.32,0,1.1,1.1.66,1.09,2.42,1.09-.22,1.54,1.75,0,2.2-.87,2.86-2.41.88-1.1.88-2.42-1.54-.66,0-1.32a3.65,3.65,0,0,1,2.85,0s-4.39-6.37-5.27-7.24-.22-1.1-.88-3.08-.66-2.63-1.75-3.51l-1.1-.88c-2.2-1.76-2.64-2-3.74-2.86s-1.53-.88-2-2,0-1.54-1.1-2.86l-1.1-1.32s-.66,1.32-1.32,1.32a2.91,2.91,0,0,1-1.75-.44c-.88-.44,4,3.08-4.18-2.85s-10.76-8.35-10.76-8.35-.88-1.54-1.54-2.42l-.66-.88s-2.41-1.53-4-2.41,0,.44-1.54-.88-.44,0-1.54-1.32-1.09-1.76-2-2.64.66.22-.88-.87-1.76-.66-3.08-1.54-2-1.1-2.85-1.76-3.08-2.41-3.74-2.85-.22,1.09-.66-.44-1.53-2.86-.22-2.42,6.1,4.28,6.1,4.28l3,2c1.81,1,2.14,1.32,2.8,1.65s.66.49,1.15,1.15.66,1.15,1.32,1.48l.66.33a12.9,12.9,0,0,1,2.3,1.32c.66.5.66.66,1.49,1.32s1,1.15,1.64,1.48.83.17,1.49.66,1,.82,1.48,1.15a4.57,4.57,0,0,1,1.15,1.32,9.75,9.75,0,0,0,1.15,2.31,9.16,9.16,0,0,0,2.8,2.3,5.62,5.62,0,0,1,1.65,1.32l2.31,1.49,2,1.31s.82.5,1.81,1-.83.5,1,.5a12.15,12.15,0,0,0,3.62-.66c1.81.49,10.54,8.73,11.53,9.39s6.76,2.14,7.42,2.63a11.29,11.29,0,0,1,1.81,2.47c.66,1,2.47,2.64,3,3.3a5,5,0,0,0,2.31,2.31,13.29,13.29,0,0,1,3.46,2.47,18.06,18.06,0,0,1,1.81,3.62A4.09,4.09,0,0,0,615,437l1,1s2.47,3.95,0,5.6-4.12,2.64-4.77,4.29-1.65-.33-.66,1.64,4.28,1.65,1,2-5.6-1.57-6.34-2a14.64,14.64,0,0,1-2.55-1.89c-.25-.33-.66-1-.41-1.4s.66-.5,1.07-1.4,1.56-1.81,1.64-3.13a6.25,6.25,0,0,0-.24-2.64,5.69,5.69,0,0,0-.91-1.89c-.49-.74-3.95-2.39-3.95-2.39s.25,2.14.41,3a17.06,17.06,0,0,1,.16,2.72c0,.58-.32,1.4-.32,2a12.7,12.7,0,0,1-.5,2.06c-.08.41-.41.57-.41,1a4.09,4.09,0,0,0,.82,1.73c.41.57.74,1.23,1.24,1.89a6.91,6.91,0,0,1,1,2.64Z"/><path class="cls-8" d="M252.15,334.9l6.7-7.46,2.86-4s1.54-1.1,2.42-1.76-.05-1.09,1.4-1.75.65-.88,2-2.2,1.61-1.32,2.05-2.42,0,.88.44-1.09-.88-.88.44-2,.43.22,1.31-1.1,2.86-7.69,2.86-7.69L276,301.3l1.53-3.52v-3.07s-.65-2.42,0-3.3-.65.88.66-.88l1.32-1.75s.88-2.09,1.76-2.36.66-.5,1.32-1.38-1.32,0,.66-.88a23.12,23.12,0,0,0,3.07-1.31c1.54-.88,1.54-.66,2.64-1.32s-.88.66,1.09-.66l2-1.32c1.32-.88,0,.66,1.32-.88s-.07-1.32.84-2.63.48.44.92-1.32-.88.44.44-1.76-.44-4.83,0-6.15a8.84,8.84,0,0,0,.5-2.42c.16-1.09-.5,1.1.16-1.09s.87-.44.65-2.2l-.22-1.76s3.08,7,3.3,7.91l.22.88a48.24,48.24,0,0,0-.22-5.05c-.22-1.1-.88-2.64-1.1-3.74s-1.1-1.32-.22-2.85-.88.44.88-1.54.88-.22,1.76-2l.88-1.75s2.63.22,2.63,1.31v3.74s.66.44,1.54-1.32,1.76-2,.88-3.73a27.29,27.29,0,0,1-2.2-4.4c-.44-1.53-.88-2-.44-3.29s-.22.22.44-1.32-.44-.44.66-1.54-1.32.88,1.1-1.1a43.35,43.35,0,0,1,5.05-3.29c.88-.66,1.54-.66,2.42-1.76a7.29,7.29,0,0,1,2.41-1.76c.66-.43,4.34-4.61,4.26-2s.74,3.73,0,4.61.52,1.1,0,2-1.46,1.75,0,2.41,3.43.44,4.31.66-.66-1.1.88.22l1.54,1.32s1.09,1.32.87,2.2.94.66,0,2a26.3,26.3,0,0,1-1.78,2.42c-.88,1.1-.22.88-1.54,2.42s-2.2,2-2.86,3.29.22-.66-.66,1.32.39,2-.79,3.07a11.93,11.93,0,0,0-1.84,2.2c-.88,1.1.88,1.32-1,2.42s-2.09.88-2.53,2.41.66-.44-.43,1.54-.88.66-1.54,2.86-.66.87-.66,2.19,1.1,2.64,2,2-.66,1.1.87-.66.44.44,1.54-1.76.44-.22,1.1-2.19-.66-.44.66-2-.22.88,1.32-1.54,1.1-2.63,1.75-3.29-.65-2,.66-.66,1.76,1.32,1.32,2.41.88-.65-.44,1.1-.66-.22-1.32,1.76-2.69,2.86-1.45,4.17.14-.22,1.23,1.32-.65,2.42,1.1,1.54,0,1.1,1.76-.88,1.54.44,1.76-2,.44-.22.22-2.41l-.22-2.2a1.42,1.42,0,0,1,.66-1.1c.65-.44-1.1,1.54.65-.44s2.67-.44,2.54-3.07-.12-1.54-.12-2.64,1.13-.44.12-2-1.44-2.42-1-3.3-2,.44.44-.88,2.42-.88,3.74-2,0,.44,1.31-1.09.66,0,1.32-1.54l.66-1.54c.66-1.54-.91-3.73.1-4.61s3.14-.44,3.14-.44l2.47-2.64,1.32-1.75a7.87,7.87,0,0,0,0-4.18s-.66-3.18-1.32-2.25-2.47,4.23-2.47,4.23a16.69,16.69,0,0,0-1.92,2c-.66.88,0,1.31-1.22,2s-2.08.88-2.52,1.54.88-.88-.43.66l-1.32,1.54-1.1.88a30.07,30.07,0,0,1-1.2-3.08c-.12-.66,1.23-1.1,0-2s.1.66-1.22-.87-1.53-1.32-1.75-2.42a9.28,9.28,0,0,0-.66-2.64,4.5,4.5,0,0,1-.44-1.81L323.43,224l.88-6.7-3.43-3-6.67,4-9,6.81-1.76,3.07s.17,1.65-.44,2a21.13,21.13,0,0,0-3,2.51c-.51.56-1.17.12-2.38,1.77a13.1,13.1,0,0,1-2.52,2.53c-.66.66-5.06,3.73-6.15,4.61s.22-.66-1.1.88-6.15,6.59-8.13,7.91-7.69,5.71-8.35,6.37-.49.59.66-.66a39.34,39.34,0,0,1,5.71-4.4l11-7.24,3.07-3.08,2.38.88s-1.06,1.1-1.94,2,.07,1.31-1.5,2.19-2.18.88-3.09,2-.9.66-2,1.76-.88,1.32-2.19,2.19-1.54,1.1-2.64,1.76-2,.22-3.3,1.76.88-.44-1.31,1.54-2.2,2-3.08,2.85l-.88.88c.88-.88,15.4-9.45,15.4-9.45s1.3-.65,2-1.09a4.47,4.47,0,0,0,1.13-1.76,43.77,43.77,0,0,0,4.36-3.62c.33-.57.66-1.11.88-1.43.43-.66,1.53-1.54,1.64-2.42s-1.64,1.1.11-.88l1.76-2a7.63,7.63,0,0,1,2.42-2.2l4.17-2.64s-3.51,5.49-4.17,6.59-1.62.88-1.91,2,.55,2.42-1.74,2-3.68,3.73-4.08,4.83a6.34,6.34,0,0,1-1.72,2.63c-.88.88-.15,1.1-1.72,2.2s-2.62.88-3.09,2-.9,1.1-1.56,2-.88.65-2.2,2.19.22-.44-1.31,1.54.44-.44-1.54,2l-2,2.41s-.66,1.32-.88,2,.22-.88-.22.66.22-.22-.44,1.54-1.09,1.75-1.31,2.63.88-1.1-.22.88-.88.44-1.1,2-.44,4.17-1.32,5.71a5.52,5.52,0,0,1-2,2.41,30.85,30.85,0,0,0-3.51,4c-.88,1.1-.88.66-2,2.19l-1.1,1.54c-1.09,1.54-1.75.44-1.09,1.54s-.44.88.66,1.1,1.53-.22,2.19.44.44-.88.66.66,1.32,0,.22,1.53-.44.44.22,1.1,1.54-.22,0,1.76-1.54,1.54-2.2,2.85-2.35,1.85-1.53,3.08a3.75,3.75,0,0,1,.87,2.64c0,.87.22.44-.65,1.75s-1.54,2.42-1.54,2.42c0,2.64,2.19-2.86,0,2.64s-.44,3.73-2.2,5.49-1.92.66-2.94,2.63-1.67,2.64-2.55,4.61,0,1.21-1.32,3A10.67,10.67,0,0,0,252.15,334.9Z"/><path class="cls-8" d="M245.24,311.62c-.22-.66,1.09-2,2.19-2.64s4.4-2.85,4.72-4.61A35.5,35.5,0,0,1,254,299.1l3.65,1.1v2.41l-5.52,5.94s-1.64,2.19-2.52,3.07a11.77,11.77,0,0,1-2,1.54Z"/><path class="cls-8" d="M250.29,280.21s2.19-.77-3.3,6.21A95.79,95.79,0,0,1,231.4,302a22.56,22.56,0,0,1-8.13,4.17c4.83-5.27,23.06-23.06,13.73-17.79s-14.39,6.37-16.15,8.12a21.91,21.91,0,0,1-5.49,3.74c-2,1.1-1.75.66-3.29,2s0,.21-3.74,3.95-6.59,4.61-3.73,3.73,8.13-3.07,6.59-1.1.22-3.29-2.86,3.3-3.29,10.46-6.81,13.25-7.68,8.38-7.68,5.36-.22-3.89-1.76-2.8-1.32,1.54-2.64,1.32-3.73-4-5.05-3.88S181.1,323.26,180,323s-2,0-2-1.32-.44-2.63-3.07-2.85-5.49-.88-5.49-2.2-.44-1.54,0-2.85-8.45,4.39,3.35-3.08a97.22,97.22,0,0,0,17.51-13.62c1.32-1.1,3.08-2.85,4.62-3.95s3.51-3.73,6.58-5.27a21.46,21.46,0,0,0,5.94-4.4c1.09-1.09,4.39-3.73,5.71-5.05s3.73-4.61,5.71-5.93,5.49-4.17,6.15-3.29,4.39,0-.88,5.38-2,2.52-6.59,6.7A119.23,119.23,0,0,0,205,294.49c-4.17,5.05-13,8.56-4.17,5.05s7.46-2,14.27-6.81,18.23-12.52,18.23-12.52-5.71,4.17-1.31,4.17,4.83.66,8.56-.66S250.29,280.21,250.29,280.21Z"/><path class="cls-8" d="M321.51,334.08s-1.32-.33-1.65-1.07-.49-1.11,0-1.75.83-.31,1.65-1.63,1.15-.66,2.14-3.46a49.87,49.87,0,0,0,1.48-4.94c-2.3-1.32-1.31-.33-2.3-1.32s-1,.17-1-1a8.14,8.14,0,0,0-.82-2.8c.16-2.3-.15-.33,1.32-3.13s1.81-2.14,2.79-3.29,1-1.15,1.82-1.48.82.49,1.81-1.65a33.3,33.3,0,0,0,1.81-3.79c.33-1.15-1.15-3.3,0-5.6s0-2.47,2.14-3.46,1.81.66,3.13-1.48-.19-1.32,1.31-3.13,1.16-1.1,2-2.69a26.46,26.46,0,0,0,1.32-2.75,35.46,35.46,0,0,1,2.47-3.79c.49-.66,1.24-.66,1.44-1.32s-1-.49,0-1.32a4.47,4.47,0,0,0,1.52-1.64c.83-1.16.83-1,1.48-2s1.16-1.81,1.82-3,.33-1.31,1.15-2.47.66-1.15,1.48-2.47a8.05,8.05,0,0,0,1.48-3.29c.17-1.16.83-2.64,1.65-2.31a26.2,26.2,0,0,1,3.79,1.48,14.11,14.11,0,0,1,2.33,1.89,8.35,8.35,0,0,1,1.46,1.9c.66,1.16.82,3.3,1.65,4.78s.78,2.81,1.62,4.45a10.15,10.15,0,0,1,1,2.8c.33,1-.49,1.81-1.31,2.47s-3.46,1.81-4,3-.49,3.13-1.32,2.47-1-.17-1.81-1.65a14,14,0,0,1-1.15-2.64,3.37,3.37,0,0,0-1.15-1.64c-.83-.83.65.66-.83-.83s-.49-.33-1.48-1.48-2.36-2.58-2.64-2.8A16.94,16.94,0,0,1,350,273c-2.64.66-2.31,2.47-2,3.13s.66,1,.66,1.65.17.82-1.15,1-2,.33-2.14.82.22,1.1,0,1.32,1.48.82,2,.82,2.42-.38,1,.83.61.76-1.43,1.2a19.88,19.88,0,0,1-2.85.28c-.44.16-2.21.89-.86,1.27s2.84.38,3.82.71.66-.11,2,.44,1.1.93,2.8,1.2,2.14.83,2.47,1.49a1.77,1.77,0,0,1-1,2.47c-1.31.49-2.3.33-3,1s-.82,1-.82,1.48-.83-.33-2.64-1-2.54-1.32-3.66-.82-1.61.49-2.11,1.48-2,1.15-1.15,2,1.58.77,1.94,1.37,0,.44,1.32,1.26.95,2.1,0,1.79.69-1.29-1-.31-.37.28-.37,1.65-1,0,0,1.37.7.11,1,1.43-.24,1.32-1,2.14-.13,4-1.77.83-1.65-3.3-2.31-4,1.32-1.64-.66-.66,1.48-2.63-3,1.82-5.94,4.12-4.45,4.44a3.52,3.52,0,0,0,3.13-.49c1.32-.66-.33-2.47,2.3-1.32s2.61,2,2,2.64a13.49,13.49,0,0,1-1.64,1.65,9.47,9.47,0,0,0-2.14,2.47,2.94,2.94,0,0,0-.66,2.3,4.77,4.77,0,0,1-.82,3c-.66,1-.83.66-1.48,2s-.44,4-.71,4.24-2.92,4.16-3.74,5a13,13,0,0,1-2.8,2.72Z"/><path class="cls-8" d="M383.4,227.05l-1.54,2.2,1.54,2.36s1.75,1.37,1.32,2-1.47.88-1.4,1.76-1-.88.08.88,1.68,1.32,1.39,3.29-.44,3.08.07,3.3.95-.44,2.05-1.32,0-3.51,1.1-.88-.55,2.42.16,4,1.38-.66.72,1.53-1.76,2.86-1.76,3.74,1.65.88,1,2a6.59,6.59,0,0,0-.6,1.1c-.88,1.76-2.58,1.54-2.06,2.64s1.18-.88.52,1.1.06,2.54-.52,3.35a11.56,11.56,0,0,0-1.23,1.92c-.44.88.22-.88-.44.88s-.66-.22-.66,1.75v2s-.88,2.86-1.32,4.17.66,1.54,0,2.42-.66-.88-.66.88v8.13s1.1,1.75,2,0,.49-4,2-4.3,1.78-.27,3-.46a1.89,1.89,0,0,0,1.82-1.61,18.41,18.41,0,0,0-.88-4.84c.11.83,1.31-.2-.94,1.72s-2.14,4-2.25,1.91l-.11-2.09a9,9,0,0,1,.66-3.51l.66-1.1s2-1.76,2.88-.88,1.46,2.14,1.73,2,3.08-.17,2.42-.66a3.24,3.24,0,0,1-1.32-2.2c0-.77-.66-.66-1.54-1.76s.44.88-.87-1.09-2.75-1.85-2.26-3.24-1.7-1.38,0-2.47,1.16-2.64,2-4,2.63-2.41,2.85-3.51a12.88,12.88,0,0,0,.44-2.86v-2.63c0-1.1-.88-2.42-.66-3.74a16.55,16.55,0,0,0,.22-3.29V235c0-1.1.66,1.1,0-1.1a40.64,40.64,0,0,1-1.1-4.39c-.22-1.1,1.32-1.1-.22-1.1s-4.83,2-5.49,1.1.54-2.42-1.16-2.42Z"/><path class="cls-8" d="M406.9,243.31s1.76.88,2.2,2,3.07,1.53,3.07,1.53a10.23,10.23,0,0,0,2.64,0l.66-.22c-.66.22.1,1.76.27,3.08s-2.36.7,0,2.41,2.14-.08,2.36,1.72-.44,1.8,0,2.9-1.66,1.75,0,2.41a18.23,18.23,0,0,1,1.71.66c1.54.66,1.76.44,2.2,1.54s-.22.59,0,2.16-1.23,2.23.15,3.55-.15-.44,1.38,1.32,1.1,1.54,2,3.29.44,1.33,0,3-.88,1.65-.44,3.18,1,2.64.95,4,1.47,3.73-.07,1.32-.44,1.09-2-3.52-1.31-3.07-1.53-4.61,0-1.54-.88-2.64-.66-1.75-1.54-2.19-.88-.88-2.2-1.76,0-2.42-1.32-.88-2,1.76-1.53,3.51,1.78,1.54,1.77,2.86-.43,1.1,0,2.64,2,.22.42,1.53l-1.53,1.32s-.66,1.76-.88-1.32-1.1-1.75-.44-4.39-1.54-.66-2-2.2-1.76.66-.44-1.53a20.12,20.12,0,0,0,1.54-3.08c1.1-2.2,2-3.07,1.76-4.39s-.44.44-.22-1.32,0,.22.22-1.76.88-1.1-.22-2.85-.44.66-1.1-1.76,1.32-.66-.66-2.42a5.46,5.46,0,0,0-3.51-1.75c-.88-.22,1.09,2-.88-.22s-.22-.66-2-2.2-.44-2.42-1.76-1.54-.22.88-1.31.88-2-.88-2.64-2.19-2-1.14,0-2.33.88-3.17,3.29-1.41Z"/><path class="cls-8" d="M423.37,238.92c1.81.18-.65-.88,0,3.51s.66,4.83,1.1,7.25a13,13,0,0,0,1.32,4.39c.44.66,2.2,5.71.44.66a24.23,24.23,0,0,1-1.15-9.88S421.18,238.7,423.37,238.92Z"/><path class="cls-8" d="M426.7,238.91c1.51,0,1.73-1.1,3,0s1.54.59,3.08,1.94,2.64,1.8,3.95,4,2.2,2.19,2.2,5.27-1.1,2.32,0,4.89.44,3.36,1.1,5.05.22,1.63,1.54,3.42,2,2.89,2.41,3.55,1.81,1.1,1.35,1.76-3.11.66-.47.66,1.76-.88,4,0,.66,0,2.2.88.44-.66,1.54.87-1.1,4.18-.66,5.28.66-1.53,2-1.87,1.39,1.74,2.45,2.13-.48,0,1.06.39,2.42.22,3.3,1.54a13,13,0,0,0,.87,1.32c1.1,1.54.22.66,1.1,1.54s1.76,4,1.76,4A14.13,14.13,0,0,0,466,289c.66,1.09.22-1.76.66,1.09s.87,1.54,1.75,2.42a9.91,9.91,0,0,1,2,2.2c.88,1.31-1.54-2.64.88,1.31s1.1,2.42,2.41,4a11.23,11.23,0,0,0,2.42,2.2s-.88-4.72-1.32-5.11-.66-.17-1.31-1.92-1.76-4.84-1.76-4.84l.44-3.07a6.29,6.29,0,0,1,3.07,1.54c.88,1.09,1.1,1.09,2,1.09s1.32-1.64,0-3.45,1.54-.06-1.32-1.82-2.85-.88-5.27-2.85-5.05-4-5.05-4l-2.86-1.09a40.35,40.35,0,0,1-3.73-2.09c-1.1-.77-1.54-1.21-1.76-2.09s-1.34-1.59-1.33-2.22-.21.68-.21-2.61.44-3.51-.66-4.61-1.33-1.63-2.64-3a6,6,0,0,1-2-4c-.44-2.2-.88-2.42-.88-3.74s-.44-1.75-.22-3.29.22-2.42-.66-3.3a36.4,36.4,0,0,1-2.85-3.07c-.66-.88-1.32-.52-1.32-1.8s.44-1.61-.22-2.43-1.1-.16-1.54-1.92-1.09-1.32-1.53-2.42,0,.77-.44-1.1-.88-2.3-.66-3.73,0-.66-.88-2.2-1.1.66-1.32-2.41.22-1.32-.22-3.08-.22-2.85-1.32-2.85-1.31-.22-2.41,1.1-.88.65-2.42,2.19-1.76,1.1-4.5,2.64-4.5,1.32-5.38,2.41l-.88,1.1c-1.76,2.2-2,3.3-1.1,5.71s.85,2.86,3.06,2.86,4-2.19,4,0Z"/><path class="cls-8" d="M341.9,258.24c-.24-.87-1.77,1.32-.24-.87s.44,1.09,1.54-2.2.81-4.17,1.17-5,2.78-2.19,2.78-2.19c2-1.33,1.54-.89,4.4-2s3.51-2.19,3.51-2.19-4.17,5.27-5.49,5.71a24.69,24.69,0,0,0-3.35,1.6,21.14,21.14,0,0,1-1,3.12c-.33.5,1.85,2.36-.86,2.77S341.9,258.24,341.9,258.24Z"/><path class="cls-8" d="M397.46,280.87l-3.2,2.1s3,1.41,1.6,3.45l-1.37,2s-2,2-2,3-1.64-1.32,0,1,1.32.66,1.65,2.31-.66-1,.33,1.64-.07,2.64.13,4.29,1.52-.66.2,1.64-4.43,2-3,4,1.39,0,1.39,2,1,0,0,2-1.31,3.53.17,2.68c1.87-1.07,4-2.27,4.12-2.3a1.77,1.77,0,0,0,1-1.7c-.11-1,1.72-2.56,1.72-2.56,2.35-3.26,3.45-2.16,2.24-4.68l-1.21-2.53h0l-3.52-2,.11-3.68s1-2,1.32-3,.77,1.21.33-1-2.63-.66-.44-2.2-.3-.8,1.17-3.14,0-3.23,0-3.23Z"/><path class="cls-8" d="M388.06,319.42c-.82,1.32,3.37-2.31,3.37-2.31h3.72a16.37,16.37,0,0,0,2,2.6c1.28,1.36-1.94,2,0,3l1.94,1a11.81,11.81,0,0,0-1.94,2.64c-.36,1,1.28-.33-.36,1s-1.12-2-1.24-2.39-1.52-2.57-1.52-2.57,1.31,4.13,1.36,4.42a.7.7,0,0,1-.13.66,7.32,7.32,0,0,1-.78.41c-.16.12-1.11-.12-1.52,0s-.42,0-1.32.21a10.09,10.09,0,0,1-1.94.45c-.62,0-.78.16-.94,0s-.42.62-.42-.37.09-.7.09-1.57a7.48,7.48,0,0,1,.08-2.14,9.91,9.91,0,0,0-.56-3.79A1.38,1.38,0,0,1,388.06,319.42Z"/><path class="cls-8" d="M89.28,302.83s.44,2.86,0,3.74A12.76,12.76,0,0,1,88,309c-.65.88-.65.88-1.75,2.2s-1.76,1.76-2.64,2.86a16.48,16.48,0,0,1-2.25,2.63l-.82.66c.82-.66-.55-3.73.82-5.71l1.37-2s.12-3.29-1.37-2.63-2.74,1.1-2.74,1.1-.5-.44-1.82.65-2.41.06-2.85,1.46.44-.36-.44,1.4a21.73,21.73,0,0,1-2,3.3,14.41,14.41,0,0,0-2,4.17c-.44,1.54,0,.44-1.31,2.85s.65-.22-1.32,2.42a34.82,34.82,0,0,0-3.08,4.39c-.88,1.54-1.1.53-1.1,2.79s1.76,2,0,3.14.44-.66-1.75,1.1,0-.22-2.2,1.76a16.83,16.83,0,0,1-4.17,2.85c-1.1.66-2-1.53-3.08,0s.66.22-1.1,1.54-2,4-1.75,1.32,0-2.42,1.09-3.95.44-1.32,1.76-3.08A19.84,19.84,0,0,0,53.92,333c2.41-3.6,5.79-9,4.65-8-4.87,4.39-5.75,4.91-6.85,6.52s-2.78,2.48-3.14,3.36-.15,3.74-.37.88-.88-1.23.88-4.24,3.07-3.89,4.39-5.86,2.41-3.74,2.41-3.74,3.3-4.61,4.4-5.27-.88,1.1,1.1-.66,2.63-1.75,4-2.85,2.75-1.32,3.35-2-1.59.88.6-.66,2.42-1.1,3.3-2.41-1.32-.88,2.41-1.54,5.61-1.85,6.32-1.92,3.13-.72,3.13-.72Z"/><path class="cls-8" d="M76.32,316.67a19.76,19.76,0,0,0,0,3.74,5.93,5.93,0,0,1-.39,3.2,13.27,13.27,0,0,1-1.36,2.07,20.2,20.2,0,0,1-2,2.41L76.67,327s1.44,2.19,0,3.29S73,332.65,72.59,333a6.73,6.73,0,0,0-2,1.67c-1.1,1.32-2.85,3.3-4,4.62a22.13,22.13,0,0,0-2.2,3.07c-1.32,2,.66-.66-1.32,2a24.94,24.94,0,0,1-3.29,3.95L55,353.13s2.37-6.15,3.82-7.68,1.45-2.2,2.77-3.74,1.31-2.19,2.41-3.4a11.49,11.49,0,0,0,2.14-2.53c1.16-1.76.72.66,1.16-1.76a11.17,11.17,0,0,0,.44-2.41c.22-2.2-.11-3.3.93-4.39s-.06.65,1-1.1l1.1-1.76c1.1-1.76.66-2.42,1.76-3.73S76.32,316.67,76.32,316.67Z"/><path class="cls-8" d="M56.55,356c-.66,1.76-.66,2-1.53,2.86s-1.1-.66-2,1.09-.44,3.14-1.76,3.66-2.14-.8-3.38,1.62-1.67,2-3,3.29.22.22-1.32,1.32l-1.53,1.1s-.88.25,0-1.52,1.53-.52,2.63-2.91-.88-.63,1.1-2.38-.44-.22,2-1.76.13-.56,2.48-2.48,1-3,3.67-3.45S57.21,354.23,56.55,356Z"/><path class="cls-8" d="M46,328.53c-1.32.88-3.64.88-4.34,2.2s-.93.38-1.81,2.28-1.86,5-2.8,5.3-1.25,6.07-1.25,6.07-5.44,5.59-5.75,5.42l-.3-.18s3.29-7.25,3.95-8.35,0,.22.66-1.09,0,1.09.66-1.32a13.1,13.1,0,0,1,.66-2.42c.44-1.1,1.21.22,1.37-1.54s-.06-2.55.82-3.36l.88-.81s-.66-1.32,1.76-2.2A10.37,10.37,0,0,1,46,328.53Z"/><path class="cls-8" d="M27.56,344.38c-.22.85,1.32-.69-.88,2.38s-2.85,4.72-3.51,5.33a8.73,8.73,0,0,1-1.76,1c-.66.44-3.73,2.42-4.17,3.3s-.44,1.54-1.32,2.2,1.32-1.76-.88.65-2.64,3.21-3.3,3.8-.43.6-1.53,1.7.44-.88-1.1,1.09-2,2.46-2.42,3.54.44-1.56-.44,1.08a14.22,14.22,0,0,1-2.41,4.39c-.44-2.64-.66-5.64-1.54-4.47s-.88,1-1.76,2-.66,1.76-2,2.42a5.8,5.8,0,0,0-2.4,1.76c-.46.66.86-1.54-.46.66s.88.22-1.32,2.19-3.29,2.86-3.29,2.86c.44-3.52-1.1-5.49,1.75-5.27s.88-2,2.42-3.3,2-.19,3.3-2.84.43-2.63,1.75-3.63.66-.78,1.76-2.09,1.1-1.76,2.42-3.52-.76-2,1.27-3.29.7.44,2-1.32-.88.22,1.32-1.76,2.41-1.66,3.07-3.24.31-3.79,2.13-5.33.07.22,1.83-1.53,3.18-4.88,3.73-3.08c.88,2.86.44,2.86-1.32,4.61-1.31,1.32-1.84,4.71-2.92,5.93a1.05,1.05,0,0,1-1.32.33s-2.79,3.74-2.13,3,8.36-5.13,9.23-6.19.66-2.16,1.54-2.38-2,.22.88-.22A4.8,4.8,0,0,0,27.56,344.38Z"/><path class="cls-8" d="M2.08,388c2-1.32,1.77-.66,3.69-2s1.91-2,4.88-3.62,9.88-7.58,11.53-10.22-.33-.32,1.65-2.63,3.82-1.71,4.05-3,1.88-2.54,1.88-2.9-3.3,4.25,0-.36.65-3.74,4.28-6.81,4.28-2.65,5.93-4.34,6-5.33,6-5.33-.77,4.18-3.07,6.37,0-.11-2.31,2.2-8.9,10.87-8.9,10.87h0c1.32-2,8.67-4.73,9.94-6.32s-.05.72,1.27-1.58,1-2.64,3-5.6,2.37-5.94,3.33-5.28.63,3.4.46,4.67-1.1,1.81-1.79,4.34a17,17,0,0,0-.13,5.93s-.88-.63-2,1.76-4.51-.52-4.12,2.38-2.25,2.52-3.79,3.91a25.47,25.47,0,0,0-4.17,4.47,6.83,6.83,0,0,1-3.65,2.86c-1.62.65-2.26-.33-4.08,2s2.79-8.32,3.78-8.77l1-.45c-1,.45-13.17,12.52-14.82,14.16s-2.31,1.65-4,3.3,2.31-1.32-1.64,1.65-.66,1.64-4,3,1-1.65-3.29,1.32l-6.63,4.6c-1.94-5.92-1.23-5.26-.27-6.91S-4.94,388-1.43,388Z"/><path class="cls-8" d="M68.69,355.22c1.92-1.87,4.23-1.44,3.9-3.13s-1.65.28-.33-1.7l1.32-2c2-3,3.18-1.81,3.73-4s-1.1-.25.55-2.23,3.3-1.43,3.46-3.84-2.14,1.21.16-2.42a37.4,37.4,0,0,1,2.31-3.62,15.16,15.16,0,0,0,2-4.13c.33-.49-1,2.48.33-.49s3.46-2,3.38-4.28a5.94,5.94,0,0,1,.9-3.95l3.62-4h2.67a8.42,8.42,0,0,0,3.27-2.3c2-2,4-4,2-2s-.55,5.49-.55,5.49c-2.08,3.41-1.1.77-2.08,3.41s-.66,3.21-.33,5.23,2.3-1.28.33,2-2.58,4.67-2.61,5.46-1-1.18,0,.8-.93,1,0,3.62,2.61-.66,1,2.64-1,.65-1.65,3.29a11.18,11.18,0,0,1-2.09,4.28s-1.81,3-3,2.15,1.46-2.15-1.18-.83-3.08-.52-4,1.06a6.2,6.2,0,0,1-2.91,2.29,15.13,15.13,0,0,0-1.48-2.52c-.49-.5-2.74,2.52-2.74,2.52-3.69,3.57-1.71,1.59-3.69,3.57s.66,1.32-2,2S65.67,361.71,64,362s-7.4.27-5.18-1.05S68.69,355.22,68.69,355.22Z"/><path class="cls-8" d="M114.76,299.1c2-.11,3.63.87,5.6,1.2s3.63-2,5,0,2,.78,3,2.53a21,21,0,0,0,2,3.3,3.74,3.74,0,0,1,1.32,2.74c.32,2-1.65,4.62,0,4.29s-.66-2.64,1.64-.33.75,2.41,2.68,3.84-.7-1.86,1.94,1.43,4.58,4.75,3.93,5.51-.64-2.54-.64.75,2.28,3.62.64,4.94.35,4.62-1.63,1.32-1.65-3.05-2.3-5.31l-.66-2.27-1.28-2-3.67-4.4-3.66-1.1a19.1,19.1,0,0,1-1.28-5.21l-2.63-5.44a19.3,19.3,0,0,0-4.62-.66c-2.3,0-3.62-2.52-5.27-1.43l-1.65,1.1s-1.64-.55-2-1.1l-.33-.55s-4-3.18,0-3.18Z"/><path class="cls-8" d="M114.76,313.65s-1.81-.66-2.3-.82-3.41-.66-3.41-.66a1.1,1.1,0,0,0-1.54.74c-.33,1.24.76,4,1.7,4.53a11.73,11.73,0,0,0,2.59.82s1.15-.16.82,2-.66,3.37-.66,3.37c2.14,1.9,2.64,2.4,3.63,2.56s1-1.32,2.14,0l1.15,1.32a1.13,1.13,0,0,0,1.48,0c.66-.66,1.49-.49,1-1.48a14.37,14.37,0,0,1-1.15-2.4c-.66-1.72-1-2.68-1.32-3.68a18.22,18.22,0,0,1-.49-2.16c-.17-.66.82,1-.17-.66l-1-1.65Z"/><path class="cls-8" d="M112,336.24a11.77,11.77,0,0,1-1.15-2.49,19.54,19.54,0,0,0-3.36-6c-2.24-2.93-3.23-3.45-3.23-4.17s-3.24-5.64,0-.73a28.88,28.88,0,0,0,7.74,7.74l1.32,1.42c.82.89,1.48,1.71,1.48,1.71s1.31,1.74,0,2Z"/><path class="cls-8" d="M122.83,334.9A2.92,2.92,0,0,1,121.5,333a4.62,4.62,0,0,1,0-1.47s.51,1.22,1.33,1.47,1-.58,2.15,1.07a14.72,14.72,0,0,1,1.15,1.65c1.15,1.81,2,4.34,0,2.58A31.21,31.21,0,0,1,122.83,334.9Z"/><path class="cls-8" d="M170,338.31c-.49-.44-2.8-.24-3.62-2.07a27.18,27.18,0,0,0-3.3-4.7c-1.15-1.58,0-2.48-3-3.76s-2.23-.13-4.37-1.77-7.56-4.58-8-6.08-.42-2.78-1.91-4.36-1.81-3.1-3.38-3.5a16.74,16.74,0,0,1-4-1.71,8,8,0,0,1-1.15-2.47c4,.82,4.44-.16,7.41,2.47s-1.14,1.32,4.37,3.62,4.85.44,8,2.69,5.76,3.68,7.24,6.43,1.49,4.55,2.48,6.53a13.57,13.57,0,0,0,2.63,4.12c2,2.47,4,3,2.31,3.79Z"/></g></g></g></svg>