<svg id="Layer_1" data-name="Layer 1" xmlns="http://www.w3.org/2000/svg" viewBox="0 0 600 600"><defs><style>.cls-1{fill:red;stroke:#fafafa;stroke-miterlimit:10;stroke-width:2px;}</style></defs><path id="Southern_Kurdistan" data-name="Southern Kurdistan" class="cls-1" d="M343.44,357.32l-3.2,4.52V373.6l5.15,5.53H366l10.29,8.76,6.19,6.39c2.26.87,14.8,5.73,17.34,8.91a2.43,2.43,0,0,1,.2.25c.09-.53.16-1.08.22-1.62.31-2.5.69-5.61,4-5.61a7,7,0,0,1,3.69,1.61c1.65,1.11,3.21,2.16,5,1.36.59-.72-.68-5.49-1.29-7.79a27.51,27.51,0,0,1-1.18-5.72c0-3.44,5.21-12.87,9.19-12.87,1.76-.17,2.64-2.8,3.48-5.35s1.59-4.76,3.42-5.36a3.88,3.88,0,0,1,3.47.87,4.14,4.14,0,0,0,1.41-.15c2-.45,5.31-1.75,6.92-3.58a2.35,2.35,0,0,0,.76-1.73.66.66,0,0,0,0-.21A2.67,2.67,0,0,0,439,357a53.26,53.26,0,0,1-2.33-7.37,38.58,38.58,0,0,0-2.84-8.3,25.7,25.7,0,0,0-2.22-3.4c-1.8-2.45-3.35-4.57-2.53-9.33a18.61,18.61,0,0,0,0-3.27c-.17-3.31-.37-7.05,2-7.93a15.83,15.83,0,0,1,2.39-.37c3.21-.38,13-1.55,14-4.18.19-.5,0-1.13-.67-1.88a13.51,13.51,0,0,0-3.16,0c-.76.06-1.49.12-2.14.13a6.14,6.14,0,0,1-1.7-.16c-4-1.12-8.06-1.11-12-1.09-4.84,0-9.51,0-13.62-2a16.65,16.65,0,0,1-6.72-6.23c-2.35-3.68-6-4-10.11-4-3.3,0-5.05-.41-6.05-1.43s-1-2.63-1-4.56a29.69,29.69,0,0,0-.12-3.88l0-.1v-.11c.32-3.39-3.37-19.82-5.48-20.88a8.87,8.87,0,0,1-7.05-1.36,13.31,13.31,0,0,1-5.61-8.66,6.45,6.45,0,0,1-.07-1.51,14.2,14.2,0,0,1,1.28-4.27c1-2.43,1.91-4.53.11-6.74-1.1-1.35-3.27-2-5.36-2.69s-4-1.25-5.12-2.49a4.81,4.81,0,0,1-.44-.57,2.8,2.8,0,0,1-.39-1.77,12.24,12.24,0,0,1,1.2-3.58,14.58,14.58,0,0,0,1.67-6,6.18,6.18,0,0,0-.74-2.82,7.08,7.08,0,0,0-2.19-1.87,10.55,10.55,0,0,1-3.09-2.72,8.49,8.49,0,0,1-1.27-4.4,11.47,11.47,0,0,0-.33-2.21l-3.59-1.05c-2.94-1.69-5.89-.36-9.57,4.29-2.21,2.81-4.62,3-6.56,3.1s-3.28.22-4.09,3.13c-.12.42-.23.89-.33,1.43-.31,1.74-1,2.68-2.07,2.8-2.48.25-4.57-4.65-4.59-4.7-.58-1.38-1-2.35-1.38-3.05a12.88,12.88,0,0,1-.64-1.46c-.43-1.21-.22-1.9.61-4,.2-.53.45-1.16.75-1.94.1-.26.2-.54.31-.84.63-1.72,0-3.9-1.65-6-2.15-2.64-5.39-4.33-7.68-4-1.9.28-6,2.79-7.76,4.67a6,6,0,0,0-.61.76c-2.11,3.31-5.16,2.76-7.86,2.26a15.06,15.06,0,0,0-4.07-.36h0c-2.32,0-5.48-1.28-8.28-2.41a19.44,19.44,0,0,0-4-1.38,11,11,0,0,1-2.87.4c-2.41,0-3.62-1.24-5-2.58a15.5,15.5,0,0,0-2.86-2.39c-.82-.5-2-.36-3.36-.19a9.63,9.63,0,0,1-4.42-.15c-.71-.25-1.39-.53-2.06-.8s-1.52-.59-2.25-.84a9.85,9.85,0,0,0-3.94-.57,8.47,8.47,0,0,0-1,.13,33.38,33.38,0,0,0-4.32,1.2c-3.25,1.1-4.61,1.32-9.27-1.79a1.52,1.52,0,0,0-1.22-.21,3.18,3.18,0,0,0-.57.19c-2.94,1.3-6.74,7.49-9.31,11.68a47.69,47.69,0,0,1-2.85,4.34,7.43,7.43,0,0,1-.87.9,10.48,10.48,0,0,1-4.38,2.09c-1.2.3-2.44.48-3.62.66-1,.15-2,.29-2.83.49l-16.72,22.12c-4.8,6.42-12.55,14.06-19.89,16.22a61.86,61.86,0,0,1-7.5,1.48c-4.45.7-9.06,1.42-12.07,3.29q-.3.19-.6.42l-.19.16-.41.35-.18.18c-.15.14-.29.29-.43.44l-.12.13c-3.43,3.91-5.67,11.78-6.4,19,0,.37-.07.74-.1,1.11l0,.39a39.5,39.5,0,0,0,.15,7.71c4.92.54,10.85.27,17.66-.05,4.08-.19,8.29-.38,12.76-.43,18.19-.18,29.35-1.2,34.1-3.1,3.77-1.51,14.36-17,16.4-21.09,2.29-4.57,9.52-6.41,17-7.72l.95-.17c5.89-1,6.21-.94,11.35,3.83,1.48,1.38,3.51,3.26,6.29,5.66,9.36,8.07,11.25,12.57,12.78,16.2a22.47,22.47,0,0,0,1.58,3.27c2.33,3.76,5.75,11.83,2.44,23.63-4.49,16.06-5.2,26.52-2,29.44s19.09,1.81,29.11.4l9.42-3.48,6.11-6.11V308.44l8.76-8.32,9.92-2,7.74,3.76,1.07,5.92-4.43,2-1.16,8.51,3.85,10.55,8,7.75v16Z"/></svg>