<svg id="Layer_1" data-name="Layer 1" xmlns="http://www.w3.org/2000/svg" viewBox="0 0 600 600"><defs><style>.cls-1{fill:red;stroke:#fafafa;stroke-miterlimit:10;stroke-width:2px;fill-rule:evenodd;}</style></defs><path id="Western_Kurdistan" data-name="Western Kurdistan" class="cls-1" d="M356.47,257.23c-.7-.52-1.43-1-2.21-1.55-1,.74-2.26,1.75-3.55,2.82-3,2.43-6.32,5.19-8.95,6.17-4,1.48-8.11,2.83-12.58,4.13l-5,1.44-1.47.31c-4,.86-9,1.9-13.9,2.5-6.33.76-12.65.78-17-1.32a14.15,14.15,0,0,0-1.73-.68c-5-1.68-12.1-1.68-18.34-.57a35.37,35.37,0,0,0-8.41,2.48l-21.56,10L238,284.67a38.46,38.46,0,0,1,3.36,5c1.1,2,1.26,4.3,1.44,6.74.39,5.44.8,11.07,12.47,13.42,15.75,3.16,19,7.18,21.43,10.11.3.37.59.72.89,1,1.37,1.49,2.19,3.3,3.44,6a117,117,0,0,0,5.78,11.26c1.91,3.29,5.09,5.18,10.2,6.05A50.9,50.9,0,0,1,298.46,327c0-.18.09-.36.13-.54l.09-.32c1.23-4.57,3.07-8.7,5.5-11.33l.05-.06c.19-.2.38-.39.58-.57l.12-.12c.18-.16.36-.32.55-.46l.15-.13c.24-.18.47-.34.71-.49,3.36-2.08,8.17-2.83,12.81-3.57l2-.31A43.66,43.66,0,0,0,326.4,308c4.3-1.27,8.87-4.71,12.77-8.55a62.8,62.8,0,0,0,6.09-7L362,270.38v-.07c0-2.93,0-7.81-1.74-9.8A22.34,22.34,0,0,0,356.47,257.23Z"/></svg>