<?xml version="1.0" encoding="utf-8"?>
<!-- Generator: Adobe Illustrator 24.3.0, SVG Export Plug-In . SVG Version: 6.00 Build 0)  -->
<svg version="1.1" id="Layer_1" xmlns="http://www.w3.org/2000/svg" xmlns:xlink="http://www.w3.org/1999/xlink" x="0px" y="0px"
	 viewBox="0 0 1920 1080" style="enable-background:new 0 0 1920 1080;" xml:space="preserve">
<style type="text/css">
	.st0{fill:#E6E6E6;}
	.st1{fill-rule:evenodd;clip-rule:evenodd;fill:#E6E6E6;}
</style>
<path class="st0" d="M10.28,216.89c3.02-6.21,6.15-12.63,12.58-14.22c6.01-1.49,10.36-0.43,13.31,3.23
	c1.64,2.04,6.46-0.37,11.12-2.7c4.03-2.02,8.2-4.1,11.57-4.1c4.56,0,8.7,2.34,12.7,4.6c1.47,0.83,2.85,1.61,4.22,2.26
	c2.87,1.36,22.27,0.03,25.3-1.74c1.37-1,6.94-13.64,7.97-17.78c-9.28-0.23-15.89-3.31-24.61-8.79c-3.91-2.46-7.86-3.97-11.67-5.44
	c-6.83-2.62-13.28-5.09-19.13-12.42l-0.11-0.18c-0.84-1.68-1.84-3.4-2.91-5.22c-3.03-5.17-6.16-10.51-6.16-16.08v-0.78l0.75-0.19
	c0.39-0.1,0.67-0.32,0.9-0.7c0.8-1.35,0.69-4.41-0.28-8.48c-2.51,0.17-6.03,1.11-9.17,1.94c-2.78,0.74-5.18,1.38-6.66,1.44
	c-1.87,0.08-3.09-0.02-4.16-0.11c-1.77-0.15-3.05-0.25-6.48,0.63c-2.72,0.7-7.47-3.48-13.39-9.02c-1.23-1.15-2.3-2.15-2.99-2.71
	c-0.81-0.66-1.45-0.81-1.98-0.74v109.48C5.25,227.23,7.7,222.19,10.28,216.89z"/>
<path class="st0" d="M1,514.24v1.69c0.63-0.21,1.27-0.39,1.89-0.57l0.34-0.1c0.78-0.23,1.37-0.6,1.6-0.85
	c-0.4-0.13-1.33-0.33-3.48-0.3L1,514.24z"/>
<path class="st0" d="M70.69,16.36l0.02,0.01c2.2-1.42,9.04-7.47,8.97-8.98c-0.25-1.13-0.78-1.9-1.34-2.7
	c-0.66-0.96-1.4-2.02-1.59-3.68H1v116.59c0.08-0.01,0.17-0.01,0.25-0.01c1.02,0,2.01,0.4,3,1.2c0.74,0.6,1.83,1.62,3.09,2.8
	c2.89,2.7,9.64,9.02,11.53,8.54c3.75-0.97,5.25-0.84,7.14-0.69c1.01,0.08,2.16,0.17,3.91,0.1c1.25-0.05,3.67-0.69,6.23-1.37
	c3.07-0.82,6.49-1.73,9.17-1.97c-1.04-3.66-2.39-6.95-3.05-8.15c-1.24-2.25-3.14-3.64-5.15-5.12c-2.89-2.12-5.89-4.32-6.58-9.08
	c-1.08-7.4-3.74-8.73-7.42-10.58c-2.24-1.12-4.78-2.4-7.38-5.19c-1.19-1.29-1.68-2.36-1.52-3.39c0.22-1.44,1.64-2.24,3.13-3.09
	c1.48-0.84,3.17-1.79,4.12-3.46c2.9-5.06,5.32-6.13,10.63-8.46l0.12-0.05c0.99-0.36,1.77-0.63,2.43-0.85
	c1.49-0.51,2.39-0.81,2.67-1.18c0.27-0.35,0.31-1.24,0.38-2.73c0.04-0.94,0.1-2.11,0.23-3.62c0.21-2.43,0.35-4.92,0.5-7.56
	c0.96-16.91,2.04-36.07,22.78-40.03C64.62,12.99,67.98,14.86,70.69,16.36z"/>
<g>
	<path class="st0" d="M1245.78,140c0.81-1.54,1.65-3.13,2.19-4.49c-1.01-0.64-2.09-1.15-3.11-1.47l-1.22-0.37
		c-4.99-1.52-5.21-1.72-7.62-7.18l-0.19-0.43c-4.86-10.94-10.13-19-18.2-27.79c-3.2-3.49-4.54-7.68-5.84-11.74
		c-0.85-2.64-1.65-5.14-2.92-7.29c-0.4-0.68-0.97-0.76-2.26-0.79c-1.31-0.03-3.1-0.08-4.08-2.04c-1.5-3-3.06-10.05-2.21-13.76
		c-0.03-5.23-1.96-6.49-5.15-8.57c-1.46-0.95-3.12-2.03-4.83-3.68c-5.25-5.03-4.69-8.83-3.92-14.09c0.18-1.23,0.37-2.49,0.51-3.93
		c0.15-1.46,0.92-2.92,1.59-4.21c0.48-0.92,1.2-2.3,1.01-2.69c-0.04-0.07-0.25-0.23-0.8-0.33c-1.01-0.19-1.82-0.8-2.35-1.77
		c-2.36-4.28,1.09-15.36,1.83-17.22c0.65-1.65,0.94-3.33,1.17-5.16H768.81c0.74,0.31,1.47,0.63,2.19,0.95
		c3.14,1.38,6.38,2.8,9.57,2.8c1.65,0,2.1-0.6,2.78-1.52c0.55-0.74,1.24-1.66,2.61-2.19c0.94-0.36,3.79,1.75,5.41,3.04
		c1.45,1.16,3.5,1.98,5.48,2.77c1.44,0.58,2.93,1.17,4.24,1.91c2.95,1.66,3.54,1.95,7.27,2.43c2.3,0.29,4.14,1.16,5.92,2
		c2.04,0.96,3.97,1.87,6.62,1.99c1.82,0.08,3.57,1.26,5.43,2.52c2.04,1.38,4.36,2.94,7,3.14l0.26,0.02l0.39,0.26
		c13.37,8.77,18.72,9.62,20.85,8.79c0.72-0.28,1.15-0.81,1.37-1.67l0.15-0.58l0.11-0.03l0.07-0.48h0.87c1.71,0,3.36,0.56,4.96,1.11
		c2.54,0.87,4.93,1.69,7.53,0.33c2.79-1.45,17.5-1.96,20.66-1.43c1.48,0.25,3.43,1.62,5.69,3.22c2.52,1.77,5.96,4.21,7.35,3.6
		c0.53-0.23,0.76-1.08,0.85-1.76l0.1-0.7l0.69-0.14c6.89-1.39,10.2,0.98,13.4,3.27c1.9,1.36,3.7,2.64,6.3,3.29l0.62,0.15l0.12,0.62
		c1.09,5.54,11.2,12.76,17.51,15.18c5.21,0.44,9.24,2.66,13.14,4.8c2.5,1.37,4.86,2.67,7.54,3.56c4.16,1.37,6.15,5.64,8.07,9.76
		c2.86,6.13,4.92,9.76,10.95,7.35c1.93-0.77,4.34-1.88,6.89-3.04c6.36-2.91,13.57-6.2,18.26-6.78c0.8-0.1,2.08-0.46,3.55-0.88
		c5.12-1.45,12.84-3.64,14.57,1.56c1.36,4.07,2.17,4.33,2.21,4.34c0.51-0.15,1.5-2.41,1.97-3.49c0.53-1.21,1.02-2.35,1.59-3.12
		c2.2-2.98,5.62-1.32,8.62,0.15c2.57,1.25,5.23,2.55,7.61,1.82c4.27-1.32,6.88,2.88,9.17,6.59c1.61,2.6,3.27,5.29,5.26,5.86
		c3.55-1.03,11.9-0.95,14.5,1.92c1.09,1.2,3.73,1.49,6.06,1.75c1.38,0.15,2.69,0.3,3.69,0.63l0.69,0.23v0.73
		c0,1.98-0.32,3.81-0.63,5.58c-0.3,1.75-0.59,3.4-0.59,5.18c0,1.98-0.41,3.31-1.28,4.18c-1.25,1.25-3.17,1.27-5.57,1.26
		c-0.56,8.36,8.46,13.04,15.76,16.83c0.76,0.39,1.49,0.77,2.19,1.14c3.81,2.03,8.1,3.16,12.26,4.26c5.89,1.55,11.97,3.16,16.91,7.32
		c4.97-0.72,6.28,1.04,7.35,3.24c0.89,1.83,1.67,3.42,8.2,2.16c4.17-0.8,8.01,5.45,11.73,11.5c2.36,3.84,5.61,9.11,7.26,8.7
		c0.47-0.12,0.94-0.17,1.41-0.17c1.1,0,2.19,0.32,3.24,0.97c5.46,3.36,8.24,14.41,8.74,16.59c1.02,4.44,3.11,4.88,6,5.47
		c2.23,0.46,4.75,0.98,6.86,3.55c1.71,2.08,19.08,2.19,24.04,0.68c-0.03-0.21-0.11-0.5-0.15-0.68c-0.1-0.4-0.2-0.78-0.2-1.14
		c0-5.31,2.76-9.36,5.44-13.27c0.46-0.68,0.92-1.35,1.37-2.03c2.97-4.54,4.75-4.63,8.87-4.43c0.88,0.04,1.88,0.09,3.05,0.1
		c4.14-0.91,10.67-6.16,11.52-10.19c0.21-0.98,0.39-1.97,0.58-2.96c0.32-1.7,0.65-3.46,1.09-5.17
		C1243.44,144.45,1244.63,142.19,1245.78,140z"/>
	<path class="st0" d="M746.65,12.88c0.54,0.15,1.09,0.32,1.66,0.5l2.3-5.48c0.35-0.6,0.67-1.21,0.99-1.81
		c0.98-1.85,1.98-3.74,3.57-5.1h-21.4C738.07,6.39,744.6,12.3,746.65,12.88z"/>
</g>
<path class="st0" d="M1566.97,99.14l0.1,0c2.01,0.04,12.1,0.23,13.24,0.46c1.07,0.22,22.45,14.19,40.2,25.88l0.21,0.14l3.97,7.31
	c3.71,13.66,14.24,30.85,22.71,40.76l0.93,1.09c4.4,5.2,8.94,10.57,15.74,9.33c2.96-0.54,5.66-1.41,8.27-2.25
	c3.93-1.27,7.99-2.58,12.94-2.74L1685.24,1h-273.11c2.68,5.82,0.92,15.22-0.65,23.6c-0.69,3.7-1.35,7.22-1.47,9.82
	c2.39,0.29,5.44-0.5,8.17-1.2c1.07-0.28,2.08-0.54,3.01-0.72c0.37-0.07,1.11-0.29,1.97-0.55c4.7-1.38,7.3-1.95,8.54-1.23
	c0.38,0.22,0.64,0.57,0.74,0.98c1.48,6.4,4.15,10.4,7.23,15.03c1.57,2.36,3.2,4.79,4.85,7.79c1.6,3.21,3.07,4.95,4.52,5.38
	c1.53,0.45,3.19-0.55,5.27-1.82c2.38-1.44,5.09-3.08,8.59-3.08h0.52l0.3,0.42c0.4,0.56,0.8,1.18,1.22,1.82
	c1.42,2.2,3.04,4.69,4.85,4.94c0.88,0.12,1.81-0.26,2.87-1.17c2.28-1.97,4.96-2.7,7.76-2.13c4.33,0.89,7.95,4.71,9.62,8.11
	c0.6,1.23,1.72,1.82,2.89,2.43c1.88,0.98,4.21,2.21,3.15,6.35c-0.59,2.32-1.43,4.35-2.24,6.32c-1.08,2.62-2.09,5.09-2.62,8.24
	c-0.47,2.82-1.91,5.2-3.31,7.49c-0.69,1.13-1.34,2.2-1.87,3.31c-1.06,2.21-1.94,4.71-2.8,7.13c-1.07,3.03-2.18,6.15-3.65,8.79
	l-0.06,0.1c-2.02,2.8-0.97,5.48,0.25,8.58c0.69,1.75,1.4,3.57,1.49,5.44c0.15,3.44-0.91,5.77-2.03,8.23
	c-0.5,1.11-1.03,2.26-1.45,3.56c-0.05,0.15-0.08,0.32-0.05,0.55l36.34-28.46l27.12-11.21L1566.97,99.14z"/>
<path class="st0" d="M1834.63,74.98c0.46-1.5,1.31-3.08,2.2-4.73c1.22-2.27,2.48-4.62,2.88-6.99l0.35-2.08l19.82,22.63
	c0.87,1.22,3.86,0.67,6.75,0.13c3.53-0.66,7.18-1.34,9.27,0.61c2.29,2.13,3.37,5.45,4.42,8.65c1.71,5.23,3.31,10.16,9.85,10.16
	c1.29,0,2.66-0.04,4.07-0.08c9-0.26,20.01-0.58,24.76,9.02V1h-231.76l0.04,178.19l58.39,4c0.63-0.83,1.76-2.15,3.04-3.63
	c0.99-1.14,2.31-2.68,3.15-3.73c-3.62-0.86-4.1-4.53-4.49-7.55c-0.09-0.69-0.18-1.39-0.3-2.07c-0.68-3.77-1.59-7.45-2.62-10.63
	c-1.77-5.44-2.08-13.15-1.59-18.37c0.26-2.81,2.72-4.58,5.32-6.46c2.57-1.85,5.22-3.76,5.88-6.75l0.04-0.16l0.09-0.14
	c4.92-8.03,12.61-12.46,21.66-12.46c0.84,0,2.2,0.37,4.07,0.89c3.88,1.06,9.73,2.67,12.29,0.99c0.7-0.46,1.1-1.15,1.24-2.13
	c0.35-2.39,2.41-3.13,4.06-3.72c0.53-0.19,1.02-0.37,1.47-0.58c0.08-0.04,1.97-1.13-2.42-13.85l-0.23-0.68l0.25-0.4
	c0.15-0.24,5.84-5.86,8.46-6.24c2.96-0.42,3.52,1.92,3.8,3.19c0.15,0.67,0.31,1.37,0.65,1.56c0.18,0.1,0.65,0.21,1.8-0.16
	c8.12-2.63,13.9,2.5,16.6,8.18c0.46,0.97,0.62,1.98,0.76,2.88c0.29,1.85,0.42,1.84,0.99,1.77c1.63-0.2,1.9-0.59,1.94-0.66
	c0.24-0.48-0.65-2.03-1.36-3.27c-0.64-1.12-1.38-2.39-1.94-3.8c-1.89-4.7-5.58-7.67-9.14-10.54c-2.59-2.09-5.26-4.25-7.14-7.01
	c-0.83-1.22-0.6-2.12-0.27-2.66c1.37-2.18,7.38-2.24,21.44-0.2C1833.68,74.85,1834.21,74.93,1834.63,74.98z"/>
<path class="st0" d="M1891.59,491.65c2.98,5.04,4.38,5.16,10.26,5.66l0.7,0.06c4.1,0.36,6.13,1.81,8.7,3.64
	c0.66,0.48,1.37,0.98,2.17,1.51c1.95,1.28,3.77,1.29,5.53,1.29c0.02,0,0.04,0,0.06,0V118.28l-0.78-2.53
	c-3.42-11.07-14.31-10.75-23.92-10.47c-1.43,0.04-2.82,0.08-4.13,0.08c-7.98,0-9.98-6.13-11.75-11.54c-1.01-3.1-1.96-6.02-3.88-7.81
	c-1.35-1.26-4.64-0.65-7.54-0.11c-3.64,0.68-7.09,1.32-8.72-0.89l-17.08-19.49c-0.64,2.01-1.68,3.93-2.62,5.68
	c-0.99,1.85-1.93,3.59-2.23,5.07l-0.16,0.8h-0.82c-0.29,0-0.94-0.09-2.53-0.32c-16.6-2.41-19.13-1.3-19.45-0.72
	c0,0,0.01,0.15,0.23,0.47c1.71,2.52,4.15,4.49,6.74,6.58c3.76,3.04,7.65,6.17,9.74,11.35c0.51,1.28,1.21,2.48,1.82,3.55
	c1.2,2.08,2.14,3.72,1.42,5.17c-0.64,1.27-2.3,1.61-3.49,1.75c-2.61,0.32-2.97-1.95-3.2-3.45c-0.12-0.8-0.25-1.63-0.59-2.33
	c-1.13-2.38-5.51-9.95-14.18-7.13c-1.45,0.47-2.57,0.47-3.4,0c-1.1-0.63-1.39-1.86-1.61-2.85c-0.35-1.54-0.51-1.81-1.57-1.65
	c-1.39,0.2-5.34,3.69-6.74,5.04c4.3,12.58,2.95,15.13,1.28,15.95c-0.55,0.27-1.12,0.47-1.67,0.67c-1.65,0.59-2.59,0.98-2.76,2.12
	c-0.22,1.55-0.94,2.74-2.13,3.51c-3.32,2.18-9.45,0.5-13.92-0.73c-1.53-0.42-2.97-0.81-3.54-0.81c-8.28,0-15.33,4.03-19.87,11.37
	c-0.88,3.63-3.93,5.83-6.63,7.77c-2.32,1.67-4.32,3.11-4.49,5.02c-0.46,5.02-0.18,12.4,1.5,17.57c1.06,3.27,1.99,7.03,2.69,10.89
	c0.13,0.71,0.22,1.45,0.32,2.17c0.5,3.83,0.94,5.99,4.23,5.99h1v1c0,0.66-0.38,1.23-4.36,5.85c-1.39,1.61-2.83,3.28-3.22,3.9
	l-0.32,0.5l-60.47-4.15c-5.03,0-9.02,1.29-13.25,2.66c-2.67,0.86-5.43,1.75-8.53,2.32c-7.93,1.44-13.08-4.64-17.62-10.01l-0.92-1.08
	c-8.6-10.06-19.27-27.5-23.09-41.42l-3.59-6.56c-14.95-9.84-37.44-24.53-39.36-25.46c-1.08-0.15-8.25-0.33-12.71-0.41l-25.48,4.62
	l-26.56,11l-36.25,28.39c0.72,0.7,1.72,1.43,2.75,2.18c2.96,2.17,6.32,4.64,6.32,8.37c0,2.21-0.57,3.86-1.03,5.19
	c-0.74,2.14-1.02,2.94,1.36,4.52c3.93,2.61,8.12,7.33,10.19,11.48c0.51,1.03,1.04,3.15,1.71,5.82c0.51,2.04,1.39,5.54,2.24,7.81
	c-0.19-2.47-0.58-4.96-0.97-7.56c-0.94-6.13-1.91-12.47-0.31-18.96c0.11-0.43,0.33-1.21,0.62-2.19c0.57-1.94,1.94-6.65,2.16-8.62
	c-0.66,0.28-1.47,0.72-2.21,1.11c-2.52,1.35-4.12,2.14-5.21,1.46c-0.62-0.38-1.78-1.1,0.92-8.41c2.43-6.59,8.14-17.4,13.12-23.37
	c3.44-4.11,30.37-9.04,43.67-8c4.63,0.36,7.38,1.39,8.43,3.14c1.23,2.06,1.44,5.98,1.64,9.78c0.12,2.31,0.31,5.8,0.84,6.34
	c6.72,4.49,6.58,8.42,6.37,14.38c-0.04,1.14-0.08,2.38-0.08,3.74c0,9,2.57,10.89,6.45,13.76c2.13,1.58,4.56,3.36,7.07,6.6l0.07,0.1
	c1.33,2.23,4.84,3.7,8.54,5.26c4.33,1.82,8.81,3.71,11.24,7.22c1.35,1.95,2.84,3.46,4.29,4.92c3.38,3.41,6.57,6.63,5.51,13.87
	c-0.47,3.22-1.83,4.95-3.13,6.63c-0.91,1.16-1.77,2.26-2.34,3.88c-2.19,6.2-7.16,6.16-12.2,5.2c-1.71-0.33-3.97-1.81-5.97-3.12
	c-0.43-0.28-0.92-0.6-1.38-0.89c0.62,2.39,1.97,6.13,2.73,6.73c2.09,0.42,3.7-0.12,5.4-0.69c1.32-0.44,2.68-0.9,4.28-0.9h1.22
	l-0.24,1.19c-1.2,6.06-10.32,6.79-16.98,7.33c-1.73,0.14-3.23,0.26-4.3,0.45l-0.11,0.01c-1.37,0.09-2.81,0.01-4.2-0.06
	c-2.91-0.16-5.66-0.3-7.89,0.94c-4.22,2.34-7.57,4.18-13,3.56c-5.19-0.6-6.95-7.47-8.36-12.99c-0.55-2.15-1.2-4.69-1.93-5.96
	c-2.79,9.56-7.4,9.4-16.14,9.1l-0.17-0.01c-1.7-0.06-4.21,0.56-6.64,1.17c-4.08,1.01-7.94,1.96-10.16,0.62
	c-0.78-0.47-1.29-1.18-1.52-2.11c-0.58-2.35-0.52-4.68-0.47-6.93c0.06-2.34,0.11-4.54-0.52-6.67c-3.01-10.23-5.41-13.62-6.77-14.72
	c0.29,1.8,1.05,3.34,1.8,4.85c0.83,1.69,1.62,3.28,1.62,5.05c0,3.38-1.58,6.51-3.11,9.54c-1.58,3.14-3.08,6.11-2.56,8.91
	c1.09,5.82,0.18,7.95-3.55,12.26c-2.73,3.16-2.53,7.16-2.32,11.4c0.16,3.31,0.33,6.72-1.09,9.6c-0.01,1.58-0.06,3.15-0.12,4.67
	c-0.26,7.16-0.49,13.34,4.35,17.99l8.83,8.5c-2.74-4.74-4.36-8.21-3.12-9.87c0.57-0.77,1.55-0.99,2.92-0.65
	c3.16,0.79,6.47,1.3,9.66,1.79c3.74,0.57,7.6,1.16,11.29,2.22c2.4,0.69,3.92-0.49,5.25-1.54c0.92-0.71,1.78-1.39,2.8-1.17
	c0.65,0.14,1.18,0.6,1.63,1.42c1.27,2.35,2.34,3.39,3.05,4.07c1.87,1.81,1.36,2.53-1.11,6c-0.54,0.76-1.2,1.69-2,2.84
	c-1.54,2.22-2.9,5.67-2.49,8.38c0.28,1.8,2.21,3.09,4.08,4.34c1.75,1.17,3.57,2.37,4.18,4.14c0.49,1.42,0.1,2.35-0.31,2.87
	c-1.37,1.75-4.72,1.6-8.64,1.25c-0.77-0.07-1.43-0.13-1.85-0.13c-2.66,0-4.57-1.77-6.09-3.19c-0.76-0.71-1.71-1.6-2.13-1.5
	c-0.09,0.02-0.57,0.2-1.26,1.86c-0.44,1.04-1.17,2.35-2.02,3.86c-1.89,3.37-4.76,8.47-3.66,10.48c0.33,0.61,1.13,0.95,2.38,1.02
	l13.5,0.78c10.99,0.63,12.15,8.98,12.96,15.85c6.58,6.58,12.3,11.07,21.75,14.5l0.41,0.15l0.17,0.4c2.91,6.84-0.74,12.84-4.27,18.64
	c-1.12,1.84-2.27,3.74-3.16,5.59c-3.26,6.82-2.19,12.01-0.95,18.02c0.74,3.56,1.5,7.24,1.38,11.52c-0.17,6.22-1.79,12.63-3.36,18.82
	c-0.22,0.87-0.44,1.73-0.65,2.58l-0.05,0.14c-2.55,6.17,0.54,20.27,3.03,31.6c1.11,5.08,2.07,9.46,2.46,12.71
	c0.06,0.51,0.2,1.17,0.43,1.99l17.2,0.32c1.06-0.07,2.22-0.03,3.33,0.01c2.79,0.1,5.43,0.19,7.52-1.53
	c1.02-0.83,1.96-1.45,2.88-2.05c1.61-1.05,2.99-1.95,4.38-3.77c0.91-1.19,2.72-1.14,4.63-1.08c1.55,0.04,3.3,0.1,4.44-0.52
	c0.94-0.51,3.32-2.72,5.23-4.5c1.8-1.67,2.73-2.51,3.3-2.94c-0.09-0.98-0.41-1.85-0.74-2.76c-0.64-1.75-1.37-3.74-0.14-6.42
	c2.89-6.27,8.06-10.75,12.68-14.45c0.73-0.59,1.34-1.17,1.92-1.72c1.41-1.35,2.74-2.62,5.22-3.24c0.66-0.16,1.31-0.29,1.94-0.42
	c2.59-0.53,4.63-0.94,6.51-3.14l0.3-0.35h0.46c1.93,0,3.73-1.34,5.63-2.75c2.19-1.62,4.66-3.46,7.76-3.46
	c2.45,0,5.04-0.89,7.55-1.74c2.6-0.89,5.29-1.81,7.95-1.81c2.17,0,4.1,0.7,5.97,1.39c1.87,0.68,3.8,1.39,5.99,1.39
	c1.72,0,3.8,0.27,5.99,0.56c7.39,0.98,12.66,1.35,13.27-2.81c0.68-4.64,6.56-9.66,10.47-11.21c2.42-0.96,3.73,0.44,4.6,1.36
	c0.95,1.02,1.47,1.57,3.21,0.77c6.42-2.97,8.52-1.37,10.55,0.17c1.25,0.95,2.44,1.85,4.92,1.85c2.5,0,3.79,1.14,4.92,2.14
	c0.62,0.55,1.21,1.07,1.97,1.36c1.55,0.6,2.45-0.3,3.99-2.35c0.8-1.06,1.63-2.16,2.73-2.71c7.73-3.03,8.81-2.37,10.88,2.3
	c0.62,1.4,1.39,3.14,2.71,5.28c1.39,2.26,1.17,4.79,0.97,7.02c-0.26,2.94-0.32,4.8,1.79,6.07c3.96,2.38,8.11,2.64,12.5,2.92
	c1.52,0.1,3.09,0.2,4.7,0.38c5.77,0.67,17.36,5.58,24.29,8.52l2.33,0.98c1.22,0.51,2.04,1.81,2.92,3.19
	c0.76,1.2,1.55,2.44,2.56,3.11c2.35,1.54,10.41,6.41,15.42,4.14c2.03-0.92,2.46-1.88,2.73-2.51c0.18-0.42,0.44-0.99,1.09-1.19
	c0.93-0.28,1.79,0.26,5.42,2.54c2.31,1.45,4.86,1.36,6.67-0.24c4.68-4.13,14.58,2.5,21.8,7.35c2.06,1.39,3.85,2.58,4.99,3.16
	c0.51,0.27,2.18,0.65,3.66,0.99c3.27,0.75,4.85,1.16,5.54,1.8c0.27,0.12,0.5,0.33,0.66,0.62c0.69,1.19,0.09,3.93-0.26,4.53
	c-1.93,3.36,2.4,10.22,4.72,13.9C1890.89,490.5,1891.28,491.12,1891.59,491.65z"/>
<path class="st0" d="M544.43,1034.47l-25.37,20.25l-65.03-10.92c-1.19,4.4-2.8,9.18-4.23,13.42c-1.73,5.12-3.36,9.96-3.74,12.66
	c-0.43,3.04-0.55,6.25-0.6,9.12h748.54l0.1-1.22l-10.72-10.53l-49.44-6.58l-7.72,3.1l-19.4-1.55l-83.47-7.55l-0.24-0.2
	l-156.01-131.7l-31.84-14.6l-64.69-41.25l-67.47-13.94l-11.53,11.89l-0.25,0.07l-116.52,33.96l56.92,66.98l-20.01,10.83l-8.7,24.58
	l-44.61,8.67l-13.82,24.39L544.43,1034.47z"/>
<path class="st0" d="M435.88,1057.96c1.1-7.8,6.89-20.56,13.56-26.91l-3.77-10.66l-12.18-37.74c-0.85-2.54-2.32-6.04-4.52-8.25
	c-2.42-2.44-3.81-4.15-1.86-8.34c0.55-1.18-0.2-2.53-1.15-4.03c-1.32-2.08-1.24-5.78-1.06-7.95l-13.14-36.34l-1.82-7.55
	c-1.8,1.43-3.72,2.81-5.73,4.11c-9.54,6.15-19.61,7.34-29.34,8.5c-5.02,0.6-10.21,1.21-15.35,2.5c-2.29,0.57-3.99,1.04-5.36,1.43
	c-4.52,1.26-5.22,1.45-6.86-1.25c-0.72-1.18-1.8-2.95-4.36-5.57c-2.12,0.12-4.63,1.14-7.05,2.12c-3.15,1.28-6.4,2.6-9.19,2.13
	c-3.1,1.77-12.49,5.44-23.91-6.01c-4.12-4.12-7.85-5.86-12.17-7.88c-2.35-1.1-4.79-2.23-7.46-3.84c-2.32-1.4-3.28-3.69-4.12-5.72
	c-1.01-2.42-1.62-3.68-3.44-3.68c-4.22,0-7.75,1.42-11.17,2.78c-3.26,1.3-6.62,2.65-10.41,2.65c-5.54,0-10.59-3.5-15.47-6.89
	c-5.19-3.6-10.09-6.99-15.29-6.32c-3.34,0.43-6.68,2.17-10.21,4.02c-3.07,1.6-6.23,3.26-9.46,4c-5.22,4.98-12.79,3.48-17.34,2.58
	c-1.39-0.28-3.11-0.62-3.52-0.45l-0.27,0.2l-0.1-0.01c-0.74,1.07-1.37,4.45-1.8,6.75c-0.41,2.21-0.81,4.3-1.34,5.59l-0.13,0.32
	l-0.31,0.17c-4.74,2.63-7.99,0.9-10.59-0.5c-1.48-0.79-2.77-1.48-4.19-1.42c-5.68,7.38-17.06,16.03-34.78,26.42
	c-17.54,10.29-22.68,10.05-39.28-1.82c-8.94-6.39-14.02-7.78-24.74-8.69c-3.21,0-6.02,0.2-8.51,0.38c-9.52,0.66-14.33,1-19.88-11.9
	c-0.04-0.03-0.07-0.05-0.1-0.08c-1.24,0.24-3.3,1.6-4.73,2.92l-0.22,0.21l-0.3,0.05c-0.65,0.1-1.33,0.21-2.02,0.33
	c-6.85,1.14-16.23,2.71-20.19-6.24c-1.93-4.37-4.56-5.27-8.23-5.69V1079h323.66c-0.77-1.02-1.64-2.02-2.53-3.06
	c-2.29-2.65-4.66-5.39-5.86-8.99c-0.65-2.41-0.24-4.21,0.13-5.8c0.44-1.89,0.82-3.52-0.51-6.03c-0.96-1.82-1.39-4.16-1.81-6.42
	c-0.49-2.69-1-5.47-2.38-7.02c-0.83-0.94-1.85-1.8-2.84-2.62c-1.5-1.26-3.06-2.56-4.12-4.28c-0.49-0.79-1-1.54-1.5-2.29
	c-1.95-2.87-3.96-5.85-3.96-10c0-3.79,2.47-5.96,4.64-7.88c1.7-1.5,3.31-2.92,3.67-4.94c0.14-0.79,0.12-1.66,0.09-2.58
	c-0.06-2.2-0.14-4.94,2.69-6.25l1.03-0.48l0.34,1.08c0.29,0.93,0.82,1.44,1.5,2.09c0.9,0.86,1.91,1.83,2.39,3.86
	c0.28,1.21,0.77,2.66,1.28,4.21c0.96,2.88,1.95,5.85,1.95,8.11l0,0.97c-0.02,3.46-0.03,5.19,2.5,7.88c1.6,1.7,1.37,3.58,1.18,5.09
	c-0.13,1.02-0.25,1.98,0.12,2.86c0.56,1.35,1.15,1.78,2.31,2.63c0.22,0.16,0.44,0.32,0.69,0.51c1.49,1.12,2.16,3.02,2.82,4.85
	c0.44,1.24,0.86,2.4,1.48,3.22c1.62,2.15,3.56,3.93,5.63,5.81c1.04,0.95,2.12,1.93,3.14,2.96l0.34,0.34l-0.05,0.48
	c-0.15,1.32,1.72,2.51,3.53,3.65c1.2,0.76,2.33,1.47,3.09,2.34c3.61,4.09,3.81,10.6,3.8,15.69h84.32c0.65-4.37,1.01-8.9,1.34-12.93
	C435.35,1062.9,435.57,1060.17,435.88,1057.96z"/>
<path class="st1" d="M31.78,587.01c3.74-0.84,9.13-7.22,9.98-9.37c1.06-2.65,2.91-3.57,4.41-4.32c1.63-0.81,2.61-1.3,2.61-3.63
	c0-4.44,2.11-8.02,4.35-11.81c0.51-0.87,1.03-1.75,1.53-2.65c0.44-0.8,1.11-1.72,1.81-2.69c1.19-1.64,2.62-3.62,3.04-5.2
	c-2.25,0.22-5.48,1.17-7.93,2.1c-1.1,0.42-2.36,0.77-3.59,1.11c-1.62,0.45-3.29,0.91-4.51,1.52c-3.28,1.64-5.32,4.79-7.29,7.83
	c-1.88,2.9-3.66,5.64-6.42,7.14l-0.65,4.17c0.2,0.39,0.37,0.73,0.52,1.03c1.29,2.51,1.32,2.68,1.32,6.24c0,1.01-0.44,2.11-0.91,3.28
	c-0.9,2.26-1.41,3.82-0.3,4.86C30.08,586.9,30.64,587.26,31.78,587.01z"/>
<path id="Armenia" class="st0" d="M1129.04,334.75c-1.51-1.37-2.93-2.67-3.9-3.94c-1.45-1.91-1.96-3.56-1.54-5.06
	c0.65-2.31,3.32-3.36,5.27-4.12c0.39-0.15,0.86-0.34,1.21-0.5c-1.23-1.3-1.47-2.44-0.73-3.41c0.58-0.76,1.39-1.39,2.1-1.95
	c0.3-0.23,0.71-0.55,0.96-0.8c-0.3-0.13-0.88-0.33-2.01-0.55c-1.81-0.35-3.67-1.02-5.46-1.67c-3.46-1.25-6.72-2.42-9.53-1.47
	c-1.11,0.38-1.9,0.69-2.49,0.92c-1.95,0.77-2.44,0.79-3.64-0.64c-0.4-0.48-0.95-1.13-1.95-2.04l-0.23-0.21l-0.07-0.31
	c-1.01-4.58-5.08-6.47-9.39-8.47c-3.71-1.72-7.54-3.5-9.55-7.13c-0.58-1.05-0.56-2.88-0.54-4.49c0-0.42,0.01-0.94,0-1.3l-0.13-0.02
	l-0.11-0.75c-0.25-0.27-1.93-0.41-3.03-0.51c-3.38-0.29-8.49-0.73-8.49-5.95v-1h1c0.81,0,1.74-0.27,2.72-0.56
	c1.12-0.33,2.29-0.67,3.48-0.67c1.34,0,2.5,0.62,3.62,1.23c0.92,0.49,1.78,0.96,2.74,1.11c1.32,0.22,2.27,0.1,2.89-0.35
	c0.99-0.72,1.25-2.39,1.53-4.16c0.22-1.39,0.45-2.82,1.05-4.04c1.96-3.94,2.49-6.89,1.58-8.75c-1.22-2.5-4.98-3.26-8.95-4.06
	c-4.87-0.99-9.91-2.01-11.08-6.56c-0.88-3.42-2.56-5.05-4.34-6.76c-2.07-2-4.21-4.07-4.71-8.79c-0.08,0.02-0.16,0.04-0.23,0.05
	c-0.6,0.13-1.21,0.27-1.74-0.08c-0.01-0.01-0.02-0.01-0.02-0.02c-1.28-0.28-2.12-1.57-2.76-2.54c-0.11-0.18-0.22-0.34-0.33-0.49
	l-0.1-0.14l-0.05-0.17c-1.44-5.32,2.65-8.83,6.26-11.93c2.88-2.48,5.61-4.82,5.86-7.85c-1.9-0.76-4.38-2.79-6.79-4.76
	c-1.53-1.25-2.98-2.43-3.99-3.04c-3.07-1.84-4.4-1.45-6.43-0.87c-1.27,0.37-2.71,0.79-4.79,0.79h-0.85l-0.14-0.84
	c-0.32-1.97-1.08-3.37-1.81-4.72c-1.07-1.98-2.17-4.03-1.51-7.39l0.16-0.81h0.7c0.31-0.13,1.03-0.58,1.33-0.82l0.08-0.29
	c-1.74-0.46-3.32-0.78-5.24-1.16l-0.9-0.18c-1.49-0.3-1.98-2.14-2.51-4.08c-0.17-0.61-0.33-1.24-0.52-1.74l-4.86,1.05
	c-2.53,0.32-3.95,1.86-4.43,4.73l-0.14,0.84h-0.85c-1.66,0-3.6-0.27-5.67-0.55c-4.15-0.57-8.86-1.22-11.53,0.4
	c-2.54,1.55-8.82,0.03-15.23-1.85l-0.52-0.15c-3.32-0.97-3.6-0.74-4.77,0.23c-0.68,0.55-1.61,1.31-3.24,2.14
	c-3.29,1.68-6.84,2.18-10.28,2.67c-2.32,0.33-4.5,0.64-6.6,1.28c-1.26,0.39-2.15,0.8-2.92,1.17c-1.85,0.87-3.18,1.5-6.82,0.5
	c-2.57-0.71-5.9-0.91-9.29-0.95l6.94,9.71c0.54,1.32,1.23,2.83,1.97,4.44c3.12,6.78,7,15.21,5.03,21.63
	c-1.26,4.13-3.08,9.17-5.98,11.47c-2.31,1.83-2.03,4.81-1.74,7.96c0.04,0.46,0.09,0.92,0.12,1.38c0.07,2.19,1.66,5.14,3.07,7.74
	c1.69,3.13,3.15,5.82,2.52,7.73c-0.46,1.4-0.95,2.44-1.34,3.27c-0.32,0.67-0.67,1.44-0.59,1.64c0.22,0.55,2.97,1.6,4.44,2.16
	c1.02,0.39,1.85,1.2,2.65,1.97c0.69,0.67,1.4,1.36,2.17,1.71c3.11,1.44,8.31,1.09,13.35,0.75c4.76-0.32,9.69-0.65,13.41,0.42
	c7.73,2.24,12.83,6.76,18.22,11.55c0.65,0.58,1.31,1.16,1.98,1.75l0.13,0.13l9.87,12.55c1.91-0.65,3.69-1.76,5.42-2.83
	c2.81-1.75,5.71-3.55,9.28-3.55c5.27,0,5.47,3.11,5.65,5.85c0.09,1.35,0.18,2.75,0.79,4.04c0.53,1.13,2.4,1.69,4.37,2.27
	c2.12,0.63,4.53,1.35,6,3.04c4.5,5.19,7.75,3.18,12.26,0.41c2.68-1.65,5.72-3.52,9.23-3.52c1.14,0,2.19,0.54,3.13,1.6
	c2.47,2.8,3.62,8.71,3.29,11.39c-0.33,2.68,2.33,5.12,7.89,7.26c3.58,1.38,3.8,5.67,4.01,9.83c0.13,2.61,0.27,5.31,1.25,7.02
	c5.63,9.81,8.05,16.9,7.21,21.12c1.07-0.01,2.42-0.27,3.54-1.28c0.26-0.24,0.5-0.46,0.72-0.67c0.75-0.71,1.39-1.32,2.46-1.91
	c1.72-0.94,3.7-1.45,5.57-1.45c1.54,0,2.79,0.36,3.99,0.71c0.69,0.2,1.34,0.39,2.06,0.52l2.14,0.4c0.61-3.31-0.31-15.68-1.4-17.16
	c-0.27-0.29-0.7-0.62-1.11-0.94c-0.99-0.76-2.01-1.55-1.76-2.66c0.24-1.05,1.46-1.45,2.63-1.71c2.5-0.54,4.08-0.77,6.35-1.09
	C1134.33,339.56,1131.54,337.02,1129.04,334.75z"/>
<path class="st1" d="M1129.55,199.27c0.54-0.22,1.26-0.91,1.96-1.57c1.56-1.48,3.51-3.33,5.65-2.16c0.21,0.11,0.26,0.08,0.3,0.06
	c0.84-0.5,1.43-3.87,1.43-5.5c0-3.8,0.5-5.73,2.32-8.26c-1.71-1-2.73-2.63-3.64-4.1c-0.5-0.81-0.97-1.57-1.52-2.16
	c-1.97-2.13-4.74-2.97-7.68-3.87c-0.99-0.3-2.01-0.61-3-0.97l-0.19-0.09c-5.53-3.48-9.35-8.66-10.74-14.6
	c-1.34-5.73,1.25-10.49,3.78-14.52c1.67-2.66,4.08-4.86,6.42-6.99l0.11-0.1c-4.48-3.55-9.89-4.98-15.59-6.48
	c-4.27-1.13-8.68-2.29-12.69-4.43c-0.69-0.37-1.42-0.74-2.17-1.13c-7.68-3.98-18.19-9.43-16.73-19.74l0.12-0.86l1.6,0
	c2.12,0.01,3.64,0.02,4.33-0.68c0.46-0.46,0.69-1.37,0.69-2.76c0-1.96,0.32-3.77,0.62-5.53c0.26-1.51,0.51-2.95,0.58-4.46
	c-0.74-0.15-1.64-0.25-2.59-0.36c-2.68-0.3-5.72-0.64-7.32-2.4c-1.9-2.1-9.5-2.33-12.67-1.28l-0.25,0.08l-0.26-0.05
	c-2.94-0.59-4.9-3.76-6.79-6.82c-2.46-3.99-4.27-6.54-6.88-5.74c-3.12,0.96-6.29-0.57-9.07-1.93c-3.42-1.67-5.04-2.24-6.14-0.76
	c-0.43,0.59-0.91,1.68-1.37,2.73c-1.07,2.45-2.04,4.78-3.91,4.69c-1.5-0.07-2.7-1.77-4-5.7c-1.12-3.38-7.75-1.5-12.13-0.26
	c-1.55,0.44-2.89,0.82-3.85,0.94c-4.38,0.55-11.45,3.77-17.68,6.62c-2.57,1.18-5,2.29-6.98,3.08c-8.08,3.24-10.96-2.92-13.5-8.36
	c-1.75-3.74-3.55-7.6-6.89-8.71c-2.85-0.94-5.4-2.34-7.87-3.7c-3.92-2.16-7.63-4.19-12.48-4.57l-0.27-0.06
	c-5.87-2.21-16.85-9.36-18.75-16.1c-2.66-0.77-4.55-2.13-6.39-3.44c-3-2.15-5.6-4.01-11.18-3.06c-0.32,1.31-0.96,2.19-1.9,2.6
	c-2.42,1.05-5.92-1.42-9.3-3.81c-1.89-1.33-3.84-2.71-4.87-2.88c-3.04-0.51-17.2,0.08-19.41,1.23c-3.36,1.75-6.41,0.7-9.1-0.22
	c-1.28-0.44-2.51-0.86-3.7-0.97c-0.43,1.24-1.27,2.13-2.45,2.59c-3.78,1.48-11.19-1.46-22.64-8.97c-3.04-0.32-5.51-1.98-7.7-3.46
	c-1.62-1.09-3.15-2.12-4.4-2.18c-3.05-0.14-5.25-1.17-7.38-2.18c-1.71-0.81-3.33-1.57-5.32-1.82c-3.91-0.5-4.8-0.86-8-2.67
	c-1.19-0.67-2.56-1.22-4-1.8c-2.12-0.85-4.31-1.72-5.99-3.06c-0.67-0.54-2.92-2.11-3.77-2.58c-0.62,0.33-0.99,0.82-1.4,1.37
	c-0.77,1.03-1.74,2.32-4.38,2.32c-3.61,0-7.05-1.51-10.38-2.97c-3.75-1.64-7.29-3.2-10.82-2.59c-3.22,0.55-4.52,3.01-6.03,5.85
	c-0.32,0.61-0.65,1.22-0.99,1.82l-2.15,5.16c2.95,1.02,6.77,2.59,9.89,4.66c3.17,2.1,3.84,4.82,4.44,7.21
	c0.73,2.95,1.37,5.5,6.4,7.2c2.54,0.86,4.6,2.08,6.59,3.26c1.87,1.11,3.64,2.15,5.69,2.85c1.5,0.51,3.12,0.42,4.83,0.33
	c2.18-0.12,4.65-0.25,7.13,0.94c2.07,1,3.48,1.99,4.72,2.86c2.06,1.45,3.69,2.59,7.56,3.38c3.05,0.63,3.82,4.27,4.5,7.49
	c0.4,1.9,0.82,3.86,1.61,4.85c2.21,2.62,4.85,2.94,7.9,3.31c3.54,0.43,7.56,0.93,10.74,5.62c7.35,10.84,12.28,25.58,13.89,41.5
	c0.38,3.73,1.95,7.8,3.61,12.11c3.05,7.92,6.21,16.1,2.17,23.14c-0.17,0.47-0.34,1.01-0.51,1.58c-0.7,2.26-1.56,5.08-3.5,6.37
	c-1.77,1.17-2.89,1.73-3.63,2.09c-1.08,0.53-1.08,0.53-1.83,2.99c-0.23,0.73-0.51,1.66-0.89,2.82c-0.3,0.92-0.66,1.83-1.08,2.74
	l12.02,4.2c2.99,0.65,4.81-0.56,6.75-1.84c1.97-1.3,4.21-2.78,7.42-1.44c2.35,0.98,4.96,0.85,7.72,0.7c2.16-0.11,4.39-0.23,6.5,0.24
	l0.36,0.08c3.56,0.78,5.91,1.3,9.25,3.37c2.19,1.35,4.4-1.34,7.06-5.01c0.82-1.13,1.59-2.19,2.32-2.94
	c2.88-2.95,8.63-2.9,12.82-2.86c0.41,0,0.81,0.01,1.18,0.01h0.73l0.22,0.69c0.37,1.12,0.2,2.44,0.02,3.84
	c-0.12,0.96-0.24,1.95-0.18,2.82c0.65,0.17,1.36,0.24,2.1,0.31c1.06,0.1,2.16,0.2,3.24,0.63c1.57,0.63,2.39,1.62,3.12,2.5
	c0.56,0.67,1.04,1.25,1.82,1.64l0.56,0.28v1.29c-0.17,1.9,0.69,2.33,3.01,3.02c1.7,0.5,3.82,1.13,4.57,3.31
	c0.17,0.48,0.33,0.91,0.48,1.31c0.55,1.44,1.02,2.68,1.12,4.85c0.19,4.05,7.04,4.26,8.41,4.26c2.82,0,8.34,1.72,9.61,4.88
	c3.93,0.02,7.92,0.18,11.02,1.03c2.93,0.81,3.76,0.41,5.44-0.38c0.8-0.38,1.79-0.85,3.19-1.28c2.25-0.69,4.61-1.02,6.9-1.35
	c3.27-0.46,6.66-0.94,9.65-2.47c1.44-0.73,2.24-1.39,2.88-1.91c1.72-1.4,2.61-1.76,6.6-0.6l0.52,0.15
	c2.84,0.83,11.49,3.36,13.62,2.06c3.27-2,8.36-1.3,12.84-0.68c1.65,0.23,3.22,0.44,4.58,0.51c0.78-3.23,2.81-5.14,5.89-5.52
	l5.42-1.18c0.72-0.4,1.77-1.4,2.71-2.27c0.73-0.69,1.42-1.34,2.02-1.79c0.64-0.48,1.25-1.07,1.9-1.69c0.78-0.75,1.58-1.52,2.46-2.11
	c0.68-0.46,1.5-1.37,2.37-2.34c2.02-2.25,4.31-4.8,6.89-4c1.17,0.36,2.44,0.62,3.78,0.9c1.95,0.41,3.97,0.83,5.73,1.57l0.67,0.28
	c3.92,1.66,6.76,2.86,10.42,5.85l0.21,0.17l0.09,0.26c4.41,12.11,14.41,12.7,27.03,12.21c0.66-0.02,1.33-0.29,2.04-0.58
	c0.75-0.3,1.64-0.66,2.59-0.66c0.94,0,1.94,0.35,2.91,1.46l0.08,0.09c4.05,4.64,4.67,5.35,10.51,7.04c1.04,0.3,1.77,1.16,2.42,1.92
	C1128.88,199.1,1129.22,199.4,1129.55,199.27z"/>
<g id="Azerbaijan">
	<path class="st0" d="M1316.21,259.87c5.04-1.54,10.75-3.28,10.75-6.76v-0.78l0.35-0.09l0.06-0.25l0.81-0.1
		c2.52,0,4.21,0.92,5.71,1.73c2.17,1.18,3.75,2.03,7.46-0.45c3.4-2.27,7.28,0.16,10.12,1.94c1.04,0.65,2.62,1.64,3.06,1.53
		c0-0.01,0.03-0.04,0.06-0.13c0.85-2.11,0.35-4.54-1.47-7.24c-4.32-6.4-14.52-11.8-18.63-11.8c-0.68,0-1.48,0.01-2.36,0.03
		c-7.18,0.12-19.21,0.32-23.79-5.29c-1.7-2.08-2.21-4.76-1.5-7.94l0.06-0.19c0.83-1.88,1.05-3.32,0.65-4.29
		c-0.55-1.32-2.37-2.01-4.29-2.73c-1.26-0.48-2.57-0.97-3.73-1.7c-5.47-3.45-10.47-12.97-11.84-18.23
		c-0.65-2.51-0.79-5.09-0.92-7.58c-0.15-2.75-0.29-5.34-1.06-7.79c-1.53-4.86-5.88-9.44-9.73-13.47c-1.11-1.17-2.16-2.27-3.13-3.36
		c-2.48-2.79-4.7-5.69-6.85-8.49c-4.03-5.26-7.84-10.23-13.17-14.46l-0.32-0.25l-0.05-0.41c-0.19-1.53-1.21-3.15-2.84-4.57
		c-0.57,1.33-1.33,2.78-2.08,4.19c-1.1,2.08-2.24,4.24-2.64,5.83c-0.42,1.65-0.75,3.37-1.06,5.04c-0.19,1.01-0.38,2.02-0.59,3.02
		c-1.03,4.88-8.3,10.75-13.17,11.75l-0.2,0.02c-1.26,0-2.32-0.05-3.25-0.1c-3.65-0.18-4.63-0.23-7.09,3.53
		c-0.45,0.69-0.92,1.38-1.39,2.06c-2.5,3.66-5.09,7.45-5.09,12.14c0,0.11,0.08,0.43,0.14,0.64c0.21,0.8,0.63,2.45-0.8,2.96
		c-4.02,1.44-23.75,2.24-26.57-1.19c-1.66-2.02-3.63-2.43-5.72-2.86c-2.92-0.6-6.23-1.29-7.54-6.98
		c-1.04-4.55-3.87-12.89-7.84-15.33c-1.03-0.64-2.05-0.82-3.12-0.56c-3.08,0.75-6.03-4.04-9.44-9.59
		c-3.05-4.96-6.85-11.12-9.65-10.58c-7.44,1.43-9.1-0.62-10.38-3.25c-0.77-1.59-1.34-2.75-5.4-2.12l-0.73,0.67
		c-2.23,2.04-4.55,4.15-6.07,6.58c-2.87,4.56-4.57,8.52-3.52,12.99c1.26,5.38,4.73,10.1,9.76,13.3c0.91,0.33,1.87,0.62,2.8,0.9
		c3.06,0.93,6.23,1.89,8.56,4.42c0.67,0.73,1.22,1.61,1.75,2.46c1.03,1.65,1.99,3.21,3.81,3.81l1.36,0.45l-0.9,1.12
		c-2.19,2.74-2.66,4.17-2.66,8.03c0,0.06-0.1,5.85-2.41,7.22c-0.69,0.41-1.5,0.4-2.28-0.02c-0.81-0.44-1.88,0.49-3.32,1.85
		c-0.87,0.83-1.69,1.61-2.58,1.97c-1.72,0.71-2.89-0.66-3.74-1.66c-0.49-0.57-0.99-1.16-1.45-1.3c-6.41-1.85-7.28-2.85-11.46-7.64
		l-0.08-0.09c-0.97-1.11-1.7-0.89-3.25-0.27c-0.8,0.32-1.7,0.68-2.71,0.72c-12.42,0.48-23.97-0.18-28.89-13.26
		c-3.33-2.68-5.89-3.77-9.72-5.39l-0.67-0.29c-1.57-0.67-3.5-1.07-5.36-1.46c-1.33-0.28-2.7-0.56-3.96-0.95
		c-1.36-0.41-3.28,1.72-4.82,3.43c-0.96,1.06-1.86,2.06-2.74,2.66c-0.74,0.5-1.45,1.18-2.2,1.9c-0.66,0.63-1.34,1.29-2.08,1.84
		c-0.52,0.39-1.17,1-1.85,1.65c-0.83,0.78-1.67,1.58-2.45,2.15c0.23,0.61,0.42,1.31,0.61,1.99c0.23,0.85,0.66,2.43,1.01,2.66
		l0.87,0.17c2.26,0.46,4.21,0.85,6.47,1.5l0.59,0.17l0.14,0.72c0.1,0.48,0.24,1.2-0.19,1.81c-0.15,0.21-0.41,0.47-0.86,0.61
		c-0.45,0.43-1.14,0.85-1.72,1.13c-0.33,2.35,0.44,3.77,1.4,5.55c0.67,1.24,1.42,2.63,1.85,4.48c1.37-0.09,2.41-0.39,3.42-0.68
		c2.25-0.65,4.2-1.22,8.01,1.07c1.14,0.68,2.64,1.91,4.23,3.21c2.36,1.93,5.04,4.12,6.6,4.56l0.59,0.17l0.07,0.38l0.22,0.12
		l0.06,0.63c0,4.17-3.34,7.04-6.58,9.81c-3.42,2.94-6.66,5.72-5.68,9.73c0.08,0.12,0.17,0.25,0.26,0.39
		c0.39,0.59,1.11,1.69,1.59,1.69h0.85l0.01,0.09c0.64-0.14,1.42-0.3,2.02,0.14c0.32,0.24,0.52,0.6,0.55,1.03
		c0.33,4.39,2.1,6.1,4.16,8.09c1.81,1.75,3.87,3.74,4.89,7.71c0.86,3.34,5.07,4.2,9.54,5.1c4.28,0.87,8.7,1.76,10.35,5.15
		c1.22,2.49,0.7,5.93-1.59,10.52c-0.47,0.95-0.67,2.23-0.87,3.47c-0.33,2.1-0.67,4.26-2.33,5.47c-1.07,0.78-2.51,1.01-4.38,0.71
		c-1.29-0.21-2.39-0.8-3.37-1.33c-0.98-0.53-1.83-0.99-2.67-0.99c-0.91,0-1.88,0.28-2.92,0.59c-0.72,0.21-1.45,0.42-2.19,0.54
		c0.5,2.34,3.08,2.75,6.57,3.05c2.15,0.19,4.19,0.36,4.73,1.78c0.39,0.53,0.38,1.51,0.37,2.81c-0.01,1.16-0.03,2.91,0.29,3.5
		c1.69,3.06,5.07,4.62,8.64,6.28c4.47,2.08,9.1,4.23,10.43,9.54c0.95,0.9,1.52,1.56,1.9,2.01c0.14,0.16,0.28,0.34,0.38,0.43
		c0.2-0.05,0.61-0.21,1.01-0.37c0.6-0.24,1.42-0.56,2.58-0.95c3.47-1.17,7.22,0.18,10.84,1.49c1.8,0.65,3.51,1.26,5.16,1.58
		c2.07,0.4,3.51,0.9,3.78,2.04c0.28,1.15-0.77,1.97-1.88,2.84c-0.62,0.48-1.31,1.03-1.74,1.59c0,0.04,0.07,0.34,0.88,1.1
		c0.61,0.57,0.61,1.15,0.55,1.45c-0.19,1-1.27,1.42-2.77,2.01c-1.56,0.61-3.69,1.44-4.07,2.8c-0.23,0.84,0.17,1.95,1.2,3.3
		c0.86,1.12,2.21,2.36,3.65,3.67c3.07,2.79,6.55,5.96,6.85,9.61l0.08,0.94l-1.7,0.24c-2.37,0.33-3.94,0.55-6.47,1.1
		c-0.38,0.08-0.64,0.16-0.82,0.22c0.22,0.2,0.52,0.43,0.75,0.6c0.48,0.37,0.97,0.75,1.37,1.18c1.45,1.56,2.5,13.04,1.95,18.09
		c3.45-1.62,6.71-5.4,9.88-9.07c1.78-2.06,3.47-4.01,5.15-5.53c0.49-0.45,0.96-1.17,1.45-1.93c0.97-1.5,2.06-3.2,3.92-3.52
		c1.98-0.34,2.87,0.11,3.62,0.61c0.33,0.22,0.62,0.41,3.27-1.54c1.63-1.2,1.95-2.31,2.35-3.71c0.34-1.17,0.72-2.5,1.88-3.97
		c1.08-1.37,2.72-1.67,4.16-1.94c0.69-0.13,1.35-0.25,1.88-0.47c1.95-0.82,3.25-2.45,4.63-4.18c0.89-1.12,1.81-2.27,2.96-3.29
		c3.56-3.17,7.08-4.6,11.17-6.27c0.67-0.27,1.35-0.55,2.05-0.85c1.84-1.41,3.27-2.78,4.65-4.11c2.54-2.45,4.95-4.76,9.3-6.59
		l1.47-0.63c6.63-2.83,11-4.7,17.04,1.87c2.13,2.32,3.97,4.94,5.75,7.46c2.92,4.16,5.69,8.09,9.57,10.68l1.17,0.78l-1.12,0.85
		c-1.5,1.14-3.28,2.07-5,2.96c-5.31,2.77-8.46,4.72-6.41,9.84c0.82,2.03,2.72,3.12,4.73,4.28c2.85,1.63,6.08,3.48,6.08,8.3
		c0,4.5-4.76,5.97-9.37,7.39c-4.98,1.53-8.24,2.77-8.24,5.81c0,2.08,5.06,4.97,7.49,6.35c0.77,0.44,1.43,0.82,1.91,1.13
		c2.17,1.42,2.45,3.65,2.69,5.61c0.27,2.17,0.48,3.89,2.91,4.77c0.53-0.01,1.12-0.05,1.75-0.09c0.79-0.05,1.64-0.11,2.48-0.11
		c2.06,0,4.08,0.33,5.17,1.83c0.82,1.14,1.58,2.38,2.39,3.71c1.62,2.66,3.3,5.4,5.53,7.32c0.33,0.29,0.64,0.57,0.93,0.84
		c1.26,1.17,2.04,1.88,3.8,1.8c1.28-0.06,3.34-0.89,5.34-1.7c1.74-0.71,3.41-1.38,4.74-1.62c0.14-1.83,0.34-3.49,0.6-4.95
		c2.42-9.1,1.3-12.43-1.4-20.47c-1.3-3.89,0.79-7.64,2.81-11.27c1.64-2.94,3.33-5.98,3.33-9.13c0-0.57-0.03-1.25-0.06-1.99
		c-0.17-3.76-0.4-8.91,2.57-11.12c2.16-1.62,4.71,0.5,7.18,2.54c1.85,1.53,3.93,3.27,5.52,3.14c0.74-0.06,1.27-0.29,1.62-0.73
		c1.07-1.32,0.67-4.35,0.35-6.78c-0.35-2.65-0.61-4.57,0.63-5.39c0.97-0.64,2.16-0.08,2.96,0.4c1.37,0.81,2.02,0.99,2.29,1.02
		c0.02-0.42-0.18-1.3-0.3-1.81c-0.15-0.66-0.29-1.28-0.29-1.79c0-3.95-1.17-5.32-3.75-8.34c-2.77-3.24,1.94-10.66,4.19-12.83
		c4.22-6.71,4.17-11.86,4.11-18.98c-0.01-0.87-0.02-1.76-0.02-2.68c0-3.32,1.23-4.1,2.6-4.66c0.56-0.23,0.76-0.33,0.9-0.69
		c-0.05-0.17-0.62-0.63-0.99-0.93c-1.42-1.14-4.05-3.25-1.47-7.34c0.74-1.17,1.33-2.25,1.9-3.3c1.68-3.09,3.14-5.75,7.08-8.02
		C1311.42,261.33,1313.75,260.62,1316.21,259.87z"/>
	<path class="st0" d="M1036.58,304.28c-1.59,0.99-3.23,2.01-5.03,2.73l4.48,4.68l0.07,0.19c0.47,1.26,0.67,2.72,0.86,4.13
		c0.22,1.59,0.45,3.24,1.05,4.25c0.99,1.66,2.23,3.09,3.54,4.6c1.73,2,3.53,4.07,4.7,6.71c3.54,7.94,6.56,9.72,13.19,13.62
		c0.77,0.46,1.59,0.94,2.46,1.46c2.9,1.74,4.71,5.6,6.04,8.42c1.42,3.03,4.29,3.71,7.61,4.51c0.38,0.09,0.76,0.18,1.13,0.27
		l19.53,5.78l11.69,3.39c0.6-2.69-0.36-8.27-6.97-19.79c-1.22-2.13-1.37-5.07-1.52-7.92c-0.19-3.68-0.37-7.16-2.73-8.07
		c-6.53-2.51-9.61-5.67-9.16-9.37c0.28-2.31-0.86-7.62-2.8-9.82c-0.54-0.61-1.09-0.93-1.63-0.93c-2.94,0-5.61,1.64-8.18,3.23
		c-4.32,2.66-9.21,5.68-14.82-0.8c-1.09-1.25-3.1-1.85-5.05-2.43c-2.31-0.69-4.7-1.4-5.61-3.34c-0.76-1.63-0.87-3.29-0.97-4.76
		c-0.18-2.73-0.26-3.98-3.66-3.98C1041.81,301.03,1039.27,302.61,1036.58,304.28z"/>
</g>
<path class="st1" d="M1157.34,1026.45l-13.79,22.51l-7.87,9.93l48.62,6.47l11.86,11.65L1196,1079l38.39-0.11
	c-0.46-0.89-0.99-2.04-1.27-3.12c-0.24-0.89-0.94-1.06-2.6-1.25c-1.3-0.15-2.78-0.32-3.66-1.52c-3.74-5.12-4.95-16.88-4.95-21.78
	l0-0.58c0.06-6.82-0.6-8.12-0.89-8.36c-2.5-0.62-5.66-0.1-8.72,0.4c-1.98,0.33-4.03,0.66-5.88,0.66h-1v-1
	c0-4.82,9.36-12.87,13.33-14.05c2.39-0.71,4.69-1.04,6.72-1.33c5.31-0.77,9.15-1.33,11.68-7.41c1.73-4.16-0.52-7.38-2.91-10.79
	c-0.64-0.92-1.31-1.87-1.89-2.84c-0.16-0.26-0.59-0.87-1.08-1.57c-2.04-2.88-3.03-4.39-3.38-5.35c-1.46-0.11-2.84-0.16-4.18-0.22
	c-4.9-0.19-9.14-0.36-14.22-3.04c-3.65-1.92-9.85-1.66-14.84-1.45c-1.53,0.06-2.98,0.12-4.29,0.12c-14.5,0-22.62,4.25-24.82,13
	C1164.25,1012.58,1159.95,1022.2,1157.34,1026.45z"/>
<path class="st0" d="M541.19,718.54c2.42-1.9,8.23-10.68,6.91-13.55c-0.32-0.7-0.81-1.43-1.33-2.2c-0.86-1.29-1.75-2.62-2.07-4.11
	c-0.2-0.95-0.16-1.69-0.13-2.29c0.05-0.92,0.07-1.38-0.66-2.27c-0.58-0.71-1.38-1.37-2.24-2.06c-1.96-1.61-4.19-3.43-4.19-6.45
	c0-0.67,0.25-1.62,0.56-2.82c0.52-2,1.39-5.35,0.39-6.4c-0.53-0.55-1.71-0.43-2.61-0.24c-0.6,0.13-1.39,0.32-2.3,0.54
	c-7.12,1.72-14.84,3.38-19.29,2.32c0.96,3.16,1.21,5.79-0.01,8c-1.12,2.03-3.36,3.38-6.85,4.12c-1.17,0.28-6.16,5.22-8.03,7.09
	c-0.62,0.61-1.12,1.11-1.45,1.42c-3.37,3.2-3.41,4.91-3.48,8.64c-0.02,0.83-0.03,1.75-0.09,2.78c-0.15,1.79-0.19,3.53-0.24,5.22
	c-0.09,3.41-0.18,6.94-1.12,10.62c-1.45,5.65-3.46,5.67-6.59,5.04c-0.68-0.14-1.42-0.29-2.24-0.36
	c-0.2,12.92-4.18,22.84-13.19,33.01c-1.36,1.53-1.5,4.13-1.65,6.89c-0.17,3.14-0.37,6.7-2.53,9.29c-1.65,1.97-2.81,3.44-3.59,4.7
	l3.74-0.9c0.68-0.05,1.33-0.08,1.94-0.08c2.82,0,5.03,0.52,7.52,1.1c0.94,0.22,1.92,0.45,2.99,0.66c4.33,0.86,5.23-1.33,6.47-4.35
	c0.82-2,1.74-4.26,3.94-5.43c1.48-0.78,2.62-1.87,3.84-3.01c0.93-0.88,1.89-1.79,3.04-2.58c2.37-1.64,5.77-1.99,8.56-2.24
	c0.5-0.74,0.66-1.53,0.84-2.43c0.16-0.79,0.34-1.68,0.78-2.59c1.49-3.09,2.97-5.08,5.64-7.61c0.51-0.48,1.1-0.94,1.68-1.39
	c0.7-0.54,2.15-1.66,2.1-2.06c0,0-0.1-0.37-1.37-0.9c-0.17-0.07-4.24-1.8-4.38-4.42c-0.16-3.02,1.28-4.63,2.67-6.18
	c0.47-0.52,0.95-1.06,1.39-1.67l0.19-0.2c0.86-0.68,1.59-1.32,2.3-1.94c2.76-2.41,4.75-4.16,9.73-4.16c0.76,0,3.08,0.34,6.26,0.81
	c0.2,0.03,0.41,0.06,0.61,0.09c-0.1-0.17-0.19-0.33-0.28-0.49c-2.1-3.63-3.16-5.45-0.12-10.06c1.91-2.9,3.52-3.27,5.08-3.63
	C539.24,719.59,540.12,719.39,541.19,718.54z"/>
<path class="st0" d="M337,681.46c0.45,0.09,0.91,0.18,1.36,0.29c0.48,0.11,0.69,0.06,0.72,0.04c0.22-0.17,0.25-1.33,0.26-2.01
	c0.04-1.72,0.08-3.86,1.65-5.32c4.41-4.11,9.99-4.93,15.4-5.71c7.62-1.11,14.82-2.16,18.78-12.12c2.23-5.6,13.56-4.76,21.84-4.14
	c1.53,0.11,2.92,0.22,4.08,0.27c-0.61-1.39-2.25-3.08-3.97-4.84c-0.26-0.27-0.52-0.54-0.79-0.81c-3.78-0.56-12.57,1.8-16.38,2.82
	l-0.6,0.16c-2.71,0.72-4.46-0.41-6-1.42c-1.13-0.74-2.2-1.43-3.67-1.43c-0.82,0-1.59,0.13-2.32,0.25c-1.23,0.21-2.51,0.42-4.01,0.05
	l-0.76-0.19v-0.78c0-5.44-0.63-5.56-3.66-6.11c-1.37-0.25-3.07-0.56-5.21-1.38c-3.73-1.43-8.66,1.37-13,3.84
	c-4.33,2.46-8.06,4.58-10.9,3.11l-6.2-3.84c-0.77-0.12-1.52-0.25-2.25-0.38c-5.19-0.91-8.95-1.56-12.97,4.12
	c-1.29,1.83-2.61,2.84-4.04,3.08c-2,0.34-3.73-0.9-5.41-2.1c-0.8-0.57-1.62-1.16-2.46-1.57c0.74,6.46,6.18,20.39,9.31,24.6
	c3.09,0.52,5.04,1.47,6.93,2.38c2.68,1.3,4.99,2.42,10.3,2.2c1.51-0.06,2.84-0.41,4.02-0.71c0.97-0.25,1.86-0.48,2.66-0.48
	c0.63,0,1.2,0.14,1.71,0.54c0.98,0.76,1.4,2.22,1.4,4.88C332.82,680.44,334.1,680.88,337,681.46z"/>
<path class="st1" d="M414.68,613.12c0.5-0.36,0.95-0.68,1.35-0.97l4.8-3.13c0.67-0.53,1.4-1.26,2.11-1.96
	c0.32-0.32,0.64-0.63,0.95-0.93c0.49-0.46,1.03-0.81,1.55-1.14c0.45-0.28,0.87-0.55,1.24-0.88c0.18-0.16,0.4-0.33,0.65-0.52
	c0.14-0.11,0.34-0.26,0.54-0.43c-1.94,0.39-3.75,1.33-5.44,2.34c-0.91,0.54-1.81,1.14-2.75,1.77c-1.87,1.25-3.81,2.54-6,3.46
	c-19.74,14.77-52.52,21.72-74.7,15.84c-1.02-0.27-2.06-1.04-3.08-1.79c-0.32-0.24-0.73-0.54-1.09-0.77c-0.16,1.63,0.02,3.67,0.2,5.8
	c0.36,4.2,0.73,8.54-1.43,10.98c-1,1.12-2.44,1.72-4.27,1.78c-0.42,0.01-0.84,0.02-1.24,0.01l2.73,1.69
	c1.81,0.93,5.27-1.03,8.93-3.11c4.73-2.69,10.09-5.73,14.7-3.97c1.97,0.75,3.57,1.05,4.86,1.28c3.75,0.69,5.17,1.48,5.29,7.23
	c0.81,0.07,1.58-0.06,2.44-0.21c0.78-0.13,1.67-0.28,2.65-0.28c2.06,0,3.5,0.93,4.76,1.76c1.42,0.92,2.54,1.65,4.39,1.16l0.6-0.16
	c3.6-0.96,10.4-2.78,14.97-2.95c-3.27-3.71-6.77-9.33-0.41-15.6c2.53-2.49,3.93-2.78,5.06-3.02c1.06-0.22,1.83-0.38,3.89-3.38
	C405,620.06,410.82,615.88,414.68,613.12z"/>
<path class="st0" d="M711.96,842.53l-1.36-6.91l-13.38,2.22l-2.78-12.91l5.61-3.75l-16.04-56.67l-120.54,78.29h-0.3
	c-4.51,0-9.88-1.54-15.09-3.03c-2.72-0.78-5.29-1.51-7.59-1.99c-5.1-1.04-9.87-5.39-14.08-9.23c-1.69-1.54-3.29-3-4.81-4.15
	c-1.84-1.41-3.19-3.09-4.49-4.72c-1.63-2.04-3.16-3.96-5.57-5.29c-0.6-0.33-1.23-0.6-1.85-0.87c-1.74-0.74-3.53-1.5-4.52-3.54
	c-7.23,0.35-10.8,6.47-13.83,12.73c-1.87,3.86-1.6,9.13-1.34,14.24c0.21,4.14,0.43,8.42-0.47,12.07
	c-1.91,7.77-2.45,13.69-1.65,18.11l0.02,0.15l0.28,10.95c0.61,0,1.24,0.05,1.84,0.2l0.76,0.19v0.78c0,2.14-0.17,4.52-0.34,6.83
	c-0.08,1.05-0.15,2.09-0.21,3.1c-0.07,1.12-0.29,2.36-0.53,3.67c-0.47,2.6-1,5.54-0.2,7.68l0.09,0.24l-0.43,3l-0.35,0.25
	c-0.42,0.3-0.75,1.36-1.05,2.3c-0.46,1.46-0.97,3.12-2.32,3.79c-0.73,0.36-1.59,0.37-2.54,0.03c-0.11-0.04-0.22-0.08-0.34-0.14
	c-0.16,0.83-0.39,1.75-0.64,2.7c-0.44,1.7-0.94,3.64-0.89,4.89c0.04,1.26,0.65,2.6,1.25,3.89l0.33,0.73
	c0.89,2.02-0.27,3.67-1.3,5.12c-1.14,1.61-1.8,2.66-1.14,4.06c1.29,2.74-0.77,5.02-2.28,6.68c-0.22,0.25-0.44,0.48-0.64,0.72
	c-1.92,2.24-2.79,4.95-3.72,7.83c-0.14,0.42-0.27,0.84-0.41,1.27c-0.32,0.98-0.67,2.1-1.03,3.29c-1.31,4.29-2.94,9.61-5.05,12.74
	c-0.3,2.21-0.08,4.35,0.14,6.41c0.33,3.16,0.68,6.43-0.97,9.74c-0.97,1.95-0.6,3.75-0.2,5.65c0.46,2.23,0.98,4.76-0.87,7.45
	c-1.13,1.64-2.09,2.34-2.8,2.86c-0.96,0.7-1.29,0.94-0.91,4.69c0.42,4.13-0.37,6.43-1.28,9.1c-0.4,1.17-0.81,2.38-1.18,3.88
	c-0.34,1.38-0.45,2.82-0.56,4.34c-0.12,1.59-0.24,3.24-0.65,4.87l-0.06,0.17l-2.57,5.66c1.15,2.47,0.96,6.63-0.61,12.96l63.98,10.75
	l24.52-19.57l14.08-24.86l44.39-8.63l8.57-24.23l18.52-10.02l-57.32-67.46l119.23-34.74l11.54-11.9L711.96,842.53z"/>
<path class="st1" d="M505.5,794.54c0-2.37-0.88-4.29-1.82-6.32c-0.52-1.13-1.06-2.31-1.46-3.59c-0.63-2.05,0.78-4.13,1.92-5.81
	c0.27-0.39,0.52-0.76,0.72-1.1c0.66-1.13,0.39-2.97,0.13-4.74c-0.11-0.77-0.23-1.56-0.27-2.31c-2.41,0.23-5.17,0.6-6.95,1.83
	c-1.02,0.71-1.89,1.53-2.8,2.39c-1.26,1.19-2.55,2.42-4.27,3.33c-1.56,0.83-2.27,2.57-3.03,4.42c-1.23,3-2.75,6.74-8.71,5.55
	c-1.1-0.22-2.1-0.45-3.06-0.68c-2.84-0.66-5.3-1.24-8.76-0.98l-5.06,1.24c-0.41,1.38-0.46,2.9-0.54,5.44
	c-0.04,1.24-0.09,2.7-0.19,4.48l-0.02,0.13c-0.59,3.18-2.12,4.84-3.73,6.59c-1.3,1.41-2.63,2.87-3.63,5.35
	c-1.98,4.91-2.97,11.33-3.93,17.54c-0.55,3.58-1.08,6.96-1.78,10.04c-2.68,11.83-7.29,23.82-11.78,35.09
	c-1.98,4.97-5.96,11.04-9.46,16.39c-1.76,2.69-3.42,5.23-4.66,7.37c-2.59,4.46-6.18,8.68-10.7,12.56l2.04,8.44l13.24,36.6
	l-0.02,0.22c-0.23,2.43-0.15,5.52,0.73,6.92c0.93,1.46,2.34,3.68,1.28,5.95c-1.39,3-0.76,3.85,1.46,6.08c2.48,2.49,4.09,6.29,5,9.04
	l12.18,37.72l3.5,9.9c0.74-0.57,1.47-1.06,2.2-1.45l2.59-5.7c0.35-1.44,0.46-2.96,0.57-4.44c0.11-1.54,0.23-3.13,0.61-4.68
	c0.39-1.59,0.84-2.9,1.23-4.05c0.9-2.65,1.55-4.56,1.18-8.26c-0.45-4.49,0.08-5.3,1.72-6.5c0.62-0.45,1.39-1.02,2.33-2.37
	c1.36-1.98,0.99-3.8,0.55-5.91c-0.42-2.05-0.9-4.38,0.37-6.95c1.39-2.8,1.1-5.51,0.77-8.64c-0.24-2.26-0.48-4.6-0.09-7.15l0.04-0.23
	l0.13-0.19c2-2.84,3.61-8.13,4.91-12.38c0.37-1.21,0.72-2.35,1.04-3.33c0.14-0.42,0.27-0.84,0.41-1.25c0.94-2.93,1.92-5.96,4.1-8.51
	c0.21-0.25,0.44-0.5,0.67-0.76c1.56-1.73,2.62-3.06,1.95-4.49c-1.18-2.52,0.2-4.49,1.32-6.06c0.96-1.35,1.52-2.23,1.11-3.16
	l-0.32-0.7c-0.64-1.41-1.37-3-1.43-4.66c-0.05-1.54,0.46-3.53,0.96-5.45c0.31-1.22,0.64-2.48,0.73-3.37
	c-0.86-0.72-2.13-2.07-2.13-3.74c0-0.34,0.01-0.7,0.01-1.05c0.02-1.17,0.05-2.37-0.21-3.36c-0.1-0.37-0.2-0.74-0.29-1.1
	c-0.54-1.98-1.1-4.03-0.72-6.51c0.37-2.39,1.13-4.32,1.87-6.19c0.56-1.42,1.09-2.77,1.47-4.32c0.29-1.18,1.05-4.31,3.85-4.31
	c0.5,0,1.05-0.04,1.6-0.08l-0.27-10.91c-0.83-4.69-0.28-10.86,1.69-18.86c0.83-3.37,0.62-7.5,0.42-11.5
	c-0.27-5.36-0.55-10.89,1.54-15.21c3.11-6.43,7.1-13.26,15.18-13.84l-0.32-2.96c-0.57-2.17-0.05-4.41,0.46-6.58
	C505.19,797.07,505.5,795.75,505.5,794.54z"/>
<path class="st0" d="M1071.95,698.33c0.01-0.12,0.03-0.23,0.04-0.35c0.12-2.84-0.12-4.72-0.89-6.46c-0.13,0.14-0.26,0.28-0.42,0.41
	c-1.05,0.85-1.59,1.66-1.61,2.41C1069.03,695.64,1070.46,697,1071.95,698.33z"/>
<path class="st0" d="M1031.81,312.5c0.09-0.11,0.21-0.28,0.3-0.4c0.19-0.27,0.42-0.6,0.72-0.87l-3.37-3.52
	c0.19,1.22,0.55,2.3,1.14,3.24C1031.24,311.98,1031.63,312.37,1031.81,312.5z"/>
<path class="st0" d="M1918.94,505.81c-1.96-0.01-4.17-0.01-6.62-1.62c-0.83-0.54-1.55-1.06-2.24-1.55
	c-2.41-1.72-4.15-2.97-7.71-3.28l-0.69-0.06c-6.05-0.52-8.31-0.71-11.82-6.64c-0.3-0.51-0.68-1.11-1.11-1.79
	c-2.9-4.6-7.29-11.55-4.76-15.96c0.17-0.36,0.36-1.63,0.31-2.27h-0.23l-0.18-0.46c-0.63-0.37-3.07-0.93-4.55-1.27
	c-1.82-0.42-3.39-0.78-4.12-1.16c-1.24-0.63-3.08-1.85-5.2-3.28c-5.92-3.97-15.83-10.62-19.36-7.51c-2.46,2.17-6.01,2.34-9.05,0.43
	c-1.52-0.95-2.97-1.86-3.64-2.18c-0.36,0.81-1.05,2.26-3.71,3.46c-5.78,2.62-14.06-2.13-17.35-4.29c-1.37-0.9-2.32-2.4-3.15-3.71
	c-0.67-1.05-1.36-2.15-2-2.41l-2.34-0.99c-6.82-2.89-18.25-7.73-23.73-8.37c-1.56-0.18-3.11-0.28-4.6-0.37
	c-4.64-0.3-9.02-0.57-13.4-3.2c-3.29-1.98-3.01-5.16-2.76-7.96c0.19-2.11,0.37-4.09-0.68-5.79c-1.38-2.25-2.22-4.14-2.83-5.51
	c-1.64-3.7-1.7-3.85-8.24-1.29c-0.6,0.3-1.25,1.17-1.94,2.09c-1.34,1.79-3.18,4.23-6.31,3.02c-1.09-0.43-1.88-1.12-2.57-1.73
	c-1.04-0.92-1.86-1.64-3.6-1.64c-3.16,0-4.81-1.25-6.13-2.25c-1.85-1.4-3.18-2.41-8.5,0.05c-3.06,1.41-4.54-0.17-5.51-1.22
	c-0.88-0.94-1.28-1.31-2.4-0.87c-3.3,1.31-8.67,5.83-9.23,9.64c-0.94,6.44-9.02,5.37-15.51,4.51c-2.13-0.28-4.14-0.55-5.73-0.55
	c-2.54,0-4.64-0.77-6.67-1.51c-1.78-0.65-3.47-1.27-5.28-1.27c-2.32,0-4.74,0.83-7.3,1.7c-2.67,0.91-5.42,1.85-8.2,1.85
	c-2.44,0-4.44,1.49-6.57,3.07c-1.96,1.45-3.98,2.95-6.36,3.13c-2.26,2.43-4.83,2.96-7.33,3.47c-0.61,0.12-1.23,0.25-1.86,0.41
	c-1.96,0.48-2.95,1.43-4.31,2.74c-0.58,0.56-1.25,1.2-2.05,1.84c-4.64,3.72-9.4,7.85-12.12,13.73c-0.89,1.93-0.41,3.24,0.2,4.9
	c0.42,1.14,0.89,2.43,0.89,4v0.87l-0.71,0.1c-0.48,0.32-2.01,1.74-3.25,2.88c-2.62,2.43-4.56,4.2-5.64,4.79
	c-1.61,0.88-3.65,0.81-5.45,0.76c-1.13-0.03-2.69-0.08-2.98,0.29c-1.59,2.1-3.19,3.14-4.88,4.24c-0.87,0.57-1.77,1.16-2.7,1.92
	c-2.67,2.19-5.81,2.09-8.85,1.98c-1.07-0.04-2.17-0.08-3.22-0.01l-16.61-0.3c0.52,1.56,1.19,3.34,1.89,5.2
	c3.1,8.28,6.61,17.66,4.16,22.51c-0.7,1.39-1.85,2.32-3.4,2.76c-7.48,2.12-22.02,1.34-26.41,1.04c-11.06,0.57-23.12,4.12-34.78,7.56
	c-5.04,1.49-9.8,2.89-14.45,4.05c-4.59,1.15-9.44,2.89-14.58,4.73c-12.62,4.53-25.67,9.2-37.59,6.25c-2.43-0.6-5.04-1.62-7.81-2.7
	c-5.53-2.16-11.25-4.39-16.01-3.5l-0.22,0.04l-0.21-0.05c-26.6-6.68-47.78-20.3-64.74-41.61c-1.66-2.08-2.72-4.23-3.65-6.13
	c-2.02-4.08-3.47-7.03-9.31-7.82l-25.57-3.44c-6.87-0.89-12.97-2.59-18.66-5.18c-2.71-1.24-4.92-2.99-7.07-4.69
	c-1.72-1.36-3.35-2.65-5.18-3.66l-0.29-0.16l-0.14-0.3c-0.89-1.94-2.07-3.45-3.32-5.05c-1.94-2.49-3.96-5.06-4.72-9.28l-3.32-18.19
	c-1.13-6.21-2.12-16.62-1.72-25.39c-1.08,0.27-2.49,0.85-3.87,1.41c-2.15,0.87-4.38,1.77-6,1.84c-2.6,0.11-3.89-1.08-5.25-2.34
	c-0.27-0.25-0.56-0.52-0.87-0.79c-2.47-2.13-4.23-5.01-5.93-7.8c-0.79-1.29-1.53-2.5-2.3-3.58c-0.88-1.22-3.66-1.04-5.9-0.9
	c-0.73,0.05-1.43,0.09-2.04,0.09h-0.16l-0.15-0.05c-3.77-1.26-4.12-4.15-4.41-6.47c-0.22-1.75-0.4-3.26-1.8-4.18
	c-0.44-0.29-1.07-0.65-1.8-1.07c-4.48-2.56-8.5-5.1-8.5-8.09c0-4.75,5.12-6.33,9.65-7.72c4.8-1.48,7.95-2.66,7.95-5.48
	c0-3.66-2.35-5-5.07-6.56c-2.22-1.27-4.52-2.59-5.59-5.27c-2.83-7.06,2.57-9.88,7.34-12.36c1.22-0.64,2.47-1.29,3.59-2
	c-3.59-2.78-6.3-6.62-8.92-10.35c-1.74-2.48-3.54-5.04-5.58-7.26c-5.07-5.53-8.11-4.23-14.78-1.38l-1.48,0.63
	c-4.01,1.69-6.18,3.77-8.69,6.19c-1.45,1.39-2.95,2.83-4.93,4.34l-0.22,0.12c-0.75,0.31-1.48,0.61-2.19,0.9
	c-4.07,1.66-7.29,2.97-10.6,5.91c-1.02,0.91-1.88,1.99-2.72,3.04c-1.47,1.85-3,3.77-5.42,4.79c-0.73,0.31-1.52,0.45-2.29,0.6
	c-1.2,0.22-2.34,0.43-2.96,1.21c-0.92,1.16-1.21,2.19-1.53,3.29c-0.45,1.56-0.91,3.17-3.09,4.77c-3.23,2.37-4.22,2.48-5.56,1.59
	c-0.42-0.28-0.81-0.54-2.17-0.3c-0.99,0.17-1.8,1.42-2.58,2.63c-0.54,0.84-1.1,1.71-1.79,2.34c-1.59,1.44-3.23,3.34-4.97,5.36
	c-3.86,4.47-7.84,9.08-12.49,10.29l-0.21,0.06l-3.21-0.6c-0.81-0.15-1.55-0.36-2.25-0.57c-1.12-0.33-2.17-0.63-3.43-0.63
	c-1.52,0-3.2,0.44-4.62,1.21c-0.84,0.46-1.34,0.93-2.04,1.59c-0.23,0.22-0.48,0.46-0.76,0.71c-1.63,1.48-3.89,2.08-6.36,1.69
	l-0.12-0.03l-12.62-3.66l-19.49-5.77c-0.33-0.08-0.7-0.17-1.07-0.26c-3.5-0.83-7.13-1.7-8.96-5.6c-1.21-2.59-2.88-6.13-5.25-7.55
	c-0.86-0.52-1.68-1-2.45-1.45c-6.58-3.87-10.21-6.01-14-14.53c-0.03-0.06-0.06-0.11-0.08-0.16c-1.03,0.17-2.09,0.31-3.13,0.45
	c-2.89,0.38-6.16,0.8-7.08,1.72c-0.71,1.09,4.64,7.39,6.65,9.76c1.68,1.97,3.26,3.84,4.12,5.17c3.22,4.95,3.48,29.17,3.48,29.41
	c0,4.33,0,7.45,1.85,13c1.48,4.44,0.43,6.09-0.89,8.19c-0.53,0.84-1.13,1.79-1.67,3.11c-0.72,1.76-1.92,3.25-3.08,4.7
	c-2.17,2.71-3.44,4.48-2.15,6.65c1.39,2.34,1.14,4.42,0.93,6.09c-0.22,1.85-0.37,3.07,1.32,4.43c2.26,1.82,2.95,2.91,3.67,4.07
	c0.6,0.96,1.22,1.95,2.89,3.62c0.76,0.76,1.49,1.41,2.13,1.98c2.57,2.29,4.43,3.94,3.87,8.99c-0.31,2.8-1.2,4.34-1.91,5.58
	c-0.77,1.35-1.24,2.16-0.66,4.18c0.5,1.75,1.1,2.97,1.79,4.39c1.01,2.06,2.15,4.4,3.29,8.97c0.82,3.29,0.27,4.83-0.56,5.77
	c0.46,0.29,1.16,0.72,2.01,1.22c3.73,2.24,4.67,3.58,5.57,4.87c0.66,0.95,1.28,1.84,3.19,3.23c0.59,0.43,1.18,0.84,1.77,1.25
	c4.1,2.85,8.33,5.8,7.72,11.91c-0.14,1.43-0.32,2.79-0.48,4.07c-0.5,3.92-0.94,7.31,0.19,8.44c1.12,1.12,2.03,1.8,3.29,2.73
	c0.82,0.61,1.75,1.29,2.97,2.27c2.34,1.87,6.61,3.42,8.38,4.01c1.2-2.42,2.39-4.93,2.5-5.37c1.07-4.31,1.75-7.25,1.88-8.14
	c0.23-1.58,3.74-7.02,4.81-8.65l0.3-0.45h11.55l9.55,10.28l2.96,5.92l10.47,16.61l19.78,1.47l16.04,17.97l11.06,7.37h5.7l7.08-5.42
	l8.09-2.08l9.6,8l1.69,20.48l4.43,3.27l8.52,12.71h16.07l5.6,10.02l0.68,4.09h2.69v14.92l-2.43,0.69l-0.71,2.26l-2.05,2.05h-7.29
	l-2.68-2.35l-7.21-2.7l0.47,4.87l2.64,9.23l-14.94,22.96l-7.56,5.31v3.48l4.92,2.19h21.98l16.45,16.23v15.8l-10.4-0.05l-12.07-3.96
	l-23.28,1.91l-11.56-4.28l-14.56-3.12l-5.57,0.77l-10.74,13.37v6.37l11.91,10.06l4.91,4.69l1.37,5.81v8.76l-15.64,5.14h-20.57
	l-11.64-8.47l-6.87-0.22l-6.94-7.36l-1.98,0.12v11.99l-3.6,1.51l8.71,15.47l-1.64,0.06c-0.17,0.01-13.7,0.47-24.38,0.55
	c0.86,1.18,1.4,3.32,2.04,6.16c0.32,1.41,0.65,2.87,0.96,3.53c0.44,0.92,1.64,2.23,2.92,3.62c2.97,3.24,6.67,7.28,4.68,10.73
	c-1.63,2.82-3.75,2.93-5.3,3.02c-0.2,0.01-0.38,0.02-0.54,0.04c0.08,0.03,0.16,0.07,0.24,0.1c1.18,0.5,3.16,1.34,2.01,4.15
	c-0.24,0.6-0.84,1.29-1.52,2.1c-0.37,0.43-0.96,1.13-1.28,1.62c2.04,0.34,4.16,0.36,6.4,0.39c3.23,0.04,6.57,0.08,9.63,1.12
	c11.76,3.98,25.23,16.95,31.7,23.19l0.14,0.17c3.55,5.33,11.49,12.34,17.2,11.65c0.67-0.08,1.3-0.17,1.91-0.26
	c3.87-0.56,6.93-1,10.51,2.29c2.69,2.48,2.52,3.94,2.01,5.59c-0.21,0.67-0.39,1.25-0.17,2.11c0.24,0.93,1.69,1.86,3.09,2.75
	c1.52,0.97,3.09,1.97,3.81,3.36c0.77,1.51,0.17,3.05-0.31,4.29c-0.2,0.5-0.49,1.27-0.41,1.51c0.17,0.51,1.37,1.53,2.24,2.27
	c1.02,0.86,1.98,1.67,2.51,2.48c1.09,1.64,2.56,3.49,4.13,5.45c3.53,4.42,7.52,9.43,8.52,13.96c0.76,3.42-5.5,24.81-7.35,28.54
	c-1.38,4.58-1.38,10.84-1.37,15.88l0,0.94c0,0.23-0.01,0.67-0.03,1.23c-0.13,4.51-0.08,7.25,0.17,8.18
	c2.87,0.54,5.98,0.55,8.99,0.56c3.44,0.01,7,0.01,10.26,0.82l0.76,0.19v0.78c0,0.97-0.15,2.91-0.35,5.59
	c-1.43,18.93-1.04,28.86,1.18,29.5c3.68,1.07,5.37,3.19,6.72,4.89c0.82,1.04,1.47,1.86,2.34,2.09c5.65,1.53,11.37,6.81,11.37,13.94
	c0,1.62,0.7,3.48,1.31,5.12c0.51,1.36,0.97,2.58,1.03,3.62l8.57,4.8c9.53-1.85,17.17-4.59,17.68-5.84c0.48-1.64,0.35-3.44,0.22-5.34
	c-0.18-2.46-0.36-5,0.7-7.61c0.14-0.35,0.42-0.63,0.79-0.78c1.26-0.52,3.65,0.42,8.81,2.66c2.7,1.17,5.76,2.5,7.01,2.6
	c0.8,0.06,1.6,0.1,2.39,0.15c4.89,0.26,9.95,0.53,13.3,5.39c0.61,0.89,0.97,1.97,1.32,3.02c0.7,2.12,1.21,3.43,2.77,3.66
	c3.48,0.51,7.29-2.95,11.3-6.61c4.82-4.39,10.28-9.37,17-9.37h0.46l0.71,0.83c2.47,2.89,4.81,5.62,5.68,10.08
	c0.31,1.59,0.51,2.83,0.68,3.88c0.52,3.18,0.74,4.53,2.98,9.04c11.18,7.14,26.57,26.09,26.57,41.18c0,4.09,0.04,6.86,0.54,7.93
	c0.29,0.61,0.76,0.69,2.84,0.79c1.77,0.08,4.19,0.2,7.6,1.07c2.05,0.53,3.28,1.36,3.77,2.55c0.75,1.82-0.46,3.82-1.73,5.94
	c-1.88,3.13-3,5.34-1.44,7.43c1.53,1.31,3.53,1.88,5.46,2.43c1.31,0.37,2.56,0.73,3.62,1.3H1919V505.81
	C1918.98,505.81,1918.96,505.81,1918.94,505.81z"/>
<path class="st0" d="M1081.5,737.64c-0.14-1.7-0.1-3.23-0.07-4.57c0.06-2.88,0.12-5.15-1.47-7.66c-1.18-1.88-3.26-2.98-5.26-4.05
	c-1.18-0.63-2.31-1.24-3.22-1.98c-0.2,1.01-0.58,2.1-1.57,3.27c-1.64,1.92-1.81,2.65-1.77,2.91c0.05,0.31,0.74,0.73,1.46,1.17
	c0.9,0.55,2.03,1.23,3.13,2.34c3.31,3.33,8.61,10.32,10.16,15.56c1.03,1.37,1.82,2.25,2.48,2.81
	C1083.85,744.99,1081.78,741.15,1081.5,737.64z"/>
<path class="st0" d="M962.76,276.57c0,2.04-0.97,6.57-1.54,9.27l-0.24,1.11c-0.14,0.68-0.39,1.32-0.63,1.94
	c-0.72,1.87-0.71,2.24,0.12,2.68c0.9,0.48,1.41,1.03,1.81,1.47c0.65,0.71,0.98,1.07,3.66,0.35c1.6-0.43,2.81-1.06,3.88-1.62
	c2.02-1.06,3.93-2.06,7.19-0.89c1.9,0.68,3.2,1,4.35,1.28c1.49,0.37,2.77,0.68,4.65,1.62c3.13,1.56,4.18,2.09,7.07,1.8
	c2.92-0.29,4.14-1.12,5.21-3.53c1.28-2.88,1.86-4.35,2.47-7.4c0.18-0.89,0.22-1.87,0.14-2.8c-0.49-0.17-1-0.33-1.52-0.49
	c-3.38-0.98-8.13-0.66-12.72-0.35c-5.53,0.37-10.75,0.73-14.32-0.93c-1.08-0.5-1.95-1.35-2.72-2.09c-0.69-0.67-1.34-1.3-1.98-1.54
	c-2.26-0.86-3.69-1.45-4.57-2.08C962.86,275.18,962.76,275.91,962.76,276.57z"/>
<path class="st0" d="M758.43,512.19c-1.95-2.29-3.79-4.46-5-7c-0.66-1.38-1.53-3.34-2.45-5.43c-2.22-5.04-5.27-11.94-6.66-13.33
	c-0.58-0.58-1-1.08-1.34-1.47c-0.87-1.03-1.08-1.27-2.69-1.4c-2.93-0.23-3.71-0.04-4,2.29c-0.07,0.59-0.14,1.48-0.21,2.51
	c-0.48,6.76-1.23,13.48-4.6,14.98c-3.14,1.39-14.31,5.61-26.33,1.3l-0.3-0.11c-10.88-3.9-12.15-4.27-14.16-2.6
	c-0.78,0.65-2.87,3.97-4.89,7.17c-5.65,8.97-9.89,15.35-12.91,15.89c-0.91,0.16-1.73,0.26-2.51,0.31c0.97,0.66,2.23,1.02,4.39,1.02
	c7.01,0,13.41,1.05,19.6,2.06c11.58,1.9,22.52,3.69,35.7-1.76l29.17-13.48C758.96,512.82,758.69,512.5,758.43,512.19z"/>
<path class="st0" d="M633.47,491.15c1.39-4.67,4.43-12.16,7.65-20.08c4.42-10.89,9.44-23.23,9.44-27c0-6.98,0-13,2.4-16.43
	c0.9-1.28,3.84-3.6,8.56-7.27c5.98-4.66,14.18-11.04,15.44-14.1c0.51-1.24,0.92-2.03,1.23-2.6c0.65-1.24,0.65-1.24-0.31-4.69
	c-0.26-0.92-0.57-2.06-0.95-3.48c-0.59-2.22-1.23-4.38-1.85-6.47c-2.2-7.4-3.79-12.75-1.78-15.34c1.18-1.52,4.83-2.84,9.05-4.38
	c3.92-1.43,9.29-3.38,9.83-4.86c0.14-0.37,0.28-0.74,0.41-1.11c1.25-3.31,1.93-5.44,0.37-7.45c-2.38-3.07-4.4-31.62-1.6-35.46
	c0.38-0.52,0.78-1.17,1.25-1.92c2.49-3.97,6.65-10.62,15.99-11.18c9.25-0.56,16.67,2.78,22.65,5.47c0.98,0.44,1.94,0.87,2.87,1.27
	c2.18,0.93,4.22,2.02,6.2,3.06c3.96,2.1,7.38,3.91,10.08,3.53c2.12-0.3,5.85-2.5,9.46-4.63c3.55-2.09,6.91-4.07,9.19-4.56
	c1.05-0.22,2.11-0.65,3.23-1.1c3.36-1.36,7.55-3.04,13.63,0.25c2.37,1.28,4.48,2.8,6.52,4.27c4.51,3.25,8.08,5.81,11.98,4.24
	c2.32-0.93,5.28-3.47,8.41-6.16c5.1-4.38,10.87-9.35,16.1-9.13c4.18,0.17,9.8,2.3,14.75,4.19c3.47,1.32,8.23,3.13,9.1,2.63
	c0.56-0.35,1.43-0.79,2.53-1.34c3.81-1.91,10.89-5.46,12.28-9.59c1.82-5.44,7.66-15.51,10.28-17.01c1.42-0.81,4.35-0.85,7.46-0.89
	c2.3-0.03,4.68-0.06,5.69-0.44c2.54-0.95,14.57-0.23,16.96-0.08c0.95-0.49,4.64-2.52,6.7-5.31c3-4.09,5.47-6.63,7.34-7.57
	c0.74-0.37,1.91-0.37,3.9-0.34c2.29,0.04,5.74,0.09,6.68-1.1c0.1-0.13,0.41-0.52,0.16-1.55c-0.45-1.81-0.73-3.37-0.98-4.74
	c-0.54-2.98-0.89-4.95-2.48-6.93c-0.53-0.67-0.88-1.14-1.13-1.49c-0.42-0.58-0.42-0.58-1.2-0.74c-0.53-0.11-1.33-0.27-2.54-0.6
	c-1.74-0.46-3.07,0.07-4.48,0.65c-1.99,0.8-4.24,1.71-7.04-0.88c-4.21-3.89-5.5-5.82-7.45-8.74c-0.68-1.02-1.16-1.18-1.72-1.37
	c-1.06-0.36-1.92-0.81-2.53-3.05c-1.02-3.75-1.62-6.34-1.3-10.8c0.09-1.22-0.32-2.02-0.68-2.73c-0.35-0.69-0.75-1.48-0.39-2.36
	c0.44-1.08,1.79-1.83,5.55-3.08c8.49-2.83,10.26-3.42,15.17-8.03c4.82-4.52,14.22-10.94,18.84-6.32c4.23,4.23,6.49,7.75,6.73,10.45
	c0.13,1.55-0.3,2.76-0.75,4.04c-0.39,1.09-0.79,2.22-0.93,3.75c-0.21,2.32-0.82,3.63-1.54,5.15c-0.42,0.9-0.9,1.91-1.37,3.32
	c-1.22,3.67-2.11,6.33-1.28,8.53c0.35,0.94,0.47,1.65,0.57,2.23c0.17,1.03,0.28,1.66,1.74,3.12c2.46,2.46,2.46,2.46,7.77,5.89
	c5.39,3.49,7.63,5.39,7.72,5.47c0.08,0.06,1.99,1.7,3.8,4.31c0.25,0.36,0.64,0.65,1.08,0.91c-0.12-0.22-0.24-0.45-0.36-0.66
	c-1.59-2.93-3.23-5.97-3.31-8.59c-0.03-0.4-0.07-0.85-0.12-1.31c-0.31-3.38-0.67-7.21,2.48-9.71c2.78-2.21,4.62-8.23,5.31-10.49
	c1.74-5.69-1.96-13.74-4.94-20.21c-0.73-1.58-1.42-3.08-1.96-4.41l-8.04-11.2l-0.03-0.24c-0.32-2.28-5.43-4.02-7.87-4.02
	c-4.89,0-10.2-1.62-10.41-6.17c-0.09-1.84-0.47-2.84-0.99-4.23c-0.16-0.42-0.33-0.87-0.5-1.37c-0.39-1.13-1.49-1.53-3.25-2.05
	c-2.01-0.6-4.77-1.41-4.44-5.02c-0.84-0.54-1.41-1.22-1.92-1.84c-0.66-0.79-1.23-1.48-2.33-1.92c-0.8-0.32-1.71-0.4-2.67-0.49
	c-1.05-0.1-2.14-0.19-3.19-0.62l-0.5-0.2l-0.1-0.53c-0.26-1.31-0.09-2.68,0.08-4.01c0.1-0.84,0.21-1.64,0.17-2.29
	c-0.12,0-0.24,0-0.36,0c-3.62-0.03-9.09-0.08-11.37,2.26c-0.63,0.64-1.36,1.65-2.13,2.71c-2.44,3.37-5.79,7.98-9.74,5.54
	c-3.05-1.89-5.15-2.35-8.62-3.12l-0.36-0.08c-1.85-0.41-3.85-0.31-5.97-0.2c-2.86,0.15-5.83,0.3-8.59-0.86
	c-2.23-0.93-3.62-0.01-5.55,1.27c-2,1.32-4.49,2.97-8.34,2.11l-0.11-0.03l-12.35-4.31c-7.33,12.99-26.19,21.28-40.02,27.37
	c-2.47,1.09-4.81,2.11-6.87,3.08l-24.46,11.43c-9.09,4.25-12.69,3.06-18.14,1.26c-2.17-0.71-4.62-1.52-7.9-2.16
	c-6.16,0.58-13.04,0.78-17.52-1.93c-2.55-1.54-3.83-3.37-4.77-4.7c-1.53-2.17-1.94-2.76-6.78,0.46c-2.14,1.42-4.39,0.87-6.57,0.34
	c-1.71-0.42-3.47-0.85-5.21-0.33l-35.64,10.76c-8.15,2.46-38.51,2.6-44.94-6.48c-0.52-0.73-1.05-1.61-1.61-2.54
	c-2.71-4.48-5.02-7.78-8.03-6.04c-1.51,0.87-1.4,1.56-1.2,2.82c0.2,1.3,0.48,3.08-1.72,4.57c-1.32,0.9-2.71,1.2-4.11,0.9
	c-2.11-0.45-4.16-2.24-6.11-5.34c-3.64-4.06-7.81-4.29-12.63-4.55c-2.48-0.14-5.05-0.28-7.73-0.96c-2.65-0.67-3.48-3.16-4.22-5.35
	c-0.66-1.96-1.28-3.82-2.98-4.72c-0.96-0.51-2.02-0.86-3.15-1.24c-1.74-0.58-3.55-1.19-5.08-2.41c-5.16-4.1-7.04-2.24-10.15,0.84
	c-2.73,2.7-6.13,6.07-12.7,5.37c-4.86-0.52-16.91-10-17.6-14.72c-0.13-0.92-0.25-2.13-0.38-3.53c-0.58-6.24-1.55-16.69-6.26-19.07
	c-1.84-0.93-4.24-0.51-7.14,1.23c-6.9,4.16-18.95,7.1-29.13,3.74c-5.92-1.96-10.23-5.84-12.47-11.24c-0.45-0.73-1.52-2.02-2.56-3.28
	c-2-2.41-3.31-4.04-3.72-5.14c-1.63-1.52-0.26-4.14,0.86-6.26c0.4-0.76,1.01-1.93,1.17-2.59c-2.38-0.34-4.09-2.07-5.61-3.62
	c-1.09-1.1-2.12-2.15-3.13-2.38c-1.2,1.28-2.06,2.74-2.97,4.27c-1.88,3.16-3.82,6.43-8.76,7.85c-6.72,1.93-18.31,0.52-27.62-0.61
	c-2.6-0.32-5.06-0.62-7.06-0.79l-42.51-3.77c-6.64-0.18-12.27,2.76-18.23,5.88c-4.81,2.51-9.78,5.11-15.59,6.2
	c-2.38,0.45-4.55,0.78-6.66,1.11c-7.58,1.17-13.57,2.09-21.2,7.17l-40.85,27.18c-1.48,0.98-4.27,2.07-7.23,3.23
	c-3.6,1.41-8.09,3.16-9.01,4.41c-0.64,0.87-0.79,2.4-0.95,4.02c-0.32,3.28-0.71,7.36-5.53,8.73c-8.89,5.73-26.27,6.64-35.38,3.57
	c-1.49-0.5-3.35-1.22-5.31-1.98c-6.03-2.32-13.52-5.23-17.89-4.96c-0.72,0.04-2.06,0.96-3.47,1.93c-2.54,1.74-5.69,3.91-9.44,4.28
	c-8.79,0.86-18.99-1.49-28.86-3.76c-8.32-1.91-16.92-3.89-24.48-3.89h-0.78l-0.12-0.5c-0.2-0.03-0.52-0.01-0.85,0.03
	c-0.33,1.06-0.94,2.59-1.67,4.44c-1.32,3.34-5.33,13.5-3.75,14.33c1.57,0.82,3.02,1.3,4.43,1.77c3.03,1,5.89,1.95,8.16,6.06
	c3.01,5.44,5,5.25,8.61,4.9c2.21-0.21,4.97-0.48,8.51,0.61c5.27,1.62,7.81,3.25,7.54,4.83c-0.25,1.5-2.36,1.99-7.76,1.79
	c-4.29-0.17-37.04,7.09-43.14,12.96c-0.19,0.19-0.35,0.37-0.48,0.54l17.23,4.5c2.57,0.67,4.25,1.4,4.07,2.77
	c-0.13,1.04-0.91,2.03-8.85,2.8c-4.32,0.42-9.35,0.61-12.52,0.62c-5.61,2.46-11.93,1.41-18.04,0.4c-3.3-0.55-6.41-1.06-9.4-1.06
	c-4.23,0-8.5,0.7-12.63,1.38c-4.15,0.68-8.45,1.39-12.71,1.39h-1v-1c0-1.11,0.94-2.32,2.14-3.85c0.89-1.14,1.94-2.49,2.4-3.65
	c-0.5,0.03-0.99,0.06-1.48,0.1c-1.86,0.14-3.78,0.29-5.81-0.16c-4.52-1-5.68-0.7-5.94-0.58c0.06,0.66,1.57,2.54,2.49,3.68
	c2.24,2.77,4.55,5.64,3.46,7.92c-0.75,1.58-2.87,2.31-6.66,2.31c-1.23,0-2.51,0.03-3.8,0.06c-9,0.22-20.14,0.51-23.41-10.81
	c-0.49,0.02-0.99,0.07-1.52,0.14v185.2c1.47,0.44,2.29,1.06,2.57,1.91c0.29,0.88,0.08,2.11-0.15,3.41c-0.13,0.74-0.26,1.5-0.24,1.96
	c0.04,0.85,0.23,2.01,0.44,3.23c0.68,4.06,1.7,10.08-2.61,11.78v24.1c0.59,0.19,1.45,0.15,2.61-0.12c4.1-0.96,4.98-0.37,6.45,1.56
	c0.58,0.76,1.29,1.71,2.71,2.84c0.43,0.35,1.2,0.76,2.01,1.2c2.19,1.19,4.68,2.54,4.68,4.57c0,4.75-0.4,7.93-2.41,9.13
	c-2.13,1.27-5.32-0.01-10.47-2.81c-0.56-0.3-1-0.39-1.29-0.26c-0.84,0.38-1.31,2.4-1.66,3.88c-0.19,0.83-0.38,1.62-0.63,2.21
	c-0.39,0.94-0.48,5.28,0.5,6.24c0.07,0.07,0.12,0.12,0.39,0c5.74-2.54,9.66-2.22,14.21-1.84c1.88,0.15,3.82,0.31,6.12,0.31
	c6.84,0,14.02-0.76,19.7-2.08c1.49-0.34,3.19-0.81,4.98-1.31c4.41-1.22,9.41-2.6,13.29-2.6h1v1c0,7.38-5.22,8.51-9.04,9.33
	c-2.06,0.44-3.83,0.83-4.33,1.94c-0.53,1.19-0.14,2.2,0.35,3.48c0.23,0.6,0.47,1.23,0.61,1.9c0.27,1.32,0.04,2.39-0.7,3.17
	c-0.21,0.22-0.45,0.41-0.72,0.57l3.1-0.32c0.36-0.04,1.47-0.15,1.8,0.76c0.38,1.05-0.56,1.69-3.08,3.39
	c-1.37,0.93-3.51,2.38-4.39,3.39c0.37,0.15,0.83,0.31,1.17,0.43c0.99,0.35,1.62,0.58,2,0.87c1.27,0.96,1.34,1.75,1.3,2.76
	c-0.01,0.14-0.01,0.3-0.01,0.48v0.72l-0.69,0.23c-0.67,0.22-1.43,0.65-2.24,1.11c-0.67,0.38-1.35,0.76-2.04,1.06
	c0.09,1.88,0.55,2.11,0.56,2.11c1.08,0.4,4.97-4,6.43-5.66c1.72-1.95,2.73-3.07,3.5-3.46c1.84-0.92,2.65-2.63,3.5-4.44
	c1.3-2.76,2.78-5.88,8.2-4.86c2.14,0.41,3.44-0.3,4.94-1.11c1.26-0.68,2.68-1.45,4.61-1.45c2.78,0,14.06,10.54,15.16,12.62
	c0.06,0.11,0.17,0.37,0.32,0.71c0.91,2.1,1.51,3.2,1.89,3.75c0.08-0.3,0.16-0.66,0.25-1.04c0.69-2.94,1.63-6.95,4.18-6.95h0.72
	l0.23,0.69c0.23,0.28,1.79,0.4,2.62,0.46c2.13,0.16,4.77,0.35,4.96,2.66c0.08,1.04-0.66,1.93-1.46,2.87
	c-0.8,0.95-1.71,2.03-1.64,3.14c0.05,0.85,1.63,1.59,3.03,2.25c1.98,0.94,4.22,2,4.38,4.17c0.14,1.86-0.43,3.23-0.93,4.44
	c-0.31,0.76-0.59,1.43-0.69,2.17c1.3,0.84,3.44,2.71,4.25,3.54c2.56,0.67,4.17,2.47,5.74,4.21c1.09,1.21,2.11,2.35,3.44,3.15
	c2.31,1.39,5.05,1.72,7.95,2.08c3.29,0.4,6.69,0.81,9.69,2.83c4.64,3.12,11.36-0.2,17.29-3.12c2.54-1.25,4.93-2.43,7.1-3.1
	c1.33-0.41,2.54-0.85,3.72-1.27c2.24-0.81,4.36-1.57,7.02-2.08c1.98-0.38,3.84,1.16,5.65,2.65c1.18,0.97,2.4,1.98,3.43,2.25
	c0.18-0.26,0.39-0.5,0.58-0.71l0.09-0.1c0.35-0.79,0.72-1.54,1.07-2.26c1.08-2.21,2.01-4.11,2.33-6.64c0.11-0.91,0.05-1.77-0.01-2.6
	c-0.11-1.56-0.23-3.18,0.79-4.98l0.29-0.51c2.18-3.83,2.84-4.99,3.01-9.57c0.01-0.39,0.03-0.83,0.04-1.32
	c0.13-4.82,0.34-12.9,4.28-15.72c1.48-1.06,3.29-1.27,5.39-0.62c2.53,0.78,4.85,0.76,7.54,0.74c0.44,0,0.9-0.01,1.36-0.01
	c1.92,0,3.84,0.22,5.7,0.43c2.44,0.28,4.75,0.54,7.06,0.35l0.14-0.01l0.13,0.03c1.81,0.35,3.43,0.62,5,0.88
	c5.31,0.88,9.5,1.57,15.4,4.53c2.14,1.07,4.06,2.41,5.92,3.71c2.06,1.44,4.01,2.79,6.23,3.82c1.52,0.7,3.62,1.53,6.06,2.49
	c10.81,4.25,27.07,10.65,28.65,19.84c1.03,0.94,2.19,3.04,3.66,5.82c0.51,0.97,1,1.89,1.34,2.44c1.75,1.2,3.85,3.11,6.07,5.13
	c5.22,4.74,11.73,10.65,16.51,9.91c2.69-0.42,5.44-1.6,8.1-2.75c0.85-0.37,1.7-0.73,2.52-1.07c2.25-0.91,4.37-0.86,6.43-0.8
	c1.63,0.04,3.17,0.08,4.76-0.34c1.89-0.5,3.6-1.02,5.25-1.52c5.4-1.64,10.06-3.06,16.91-2.39c6.08,0.6,10.19-2.14,14.17-4.8
	c3.42-2.28,6.95-4.63,11.52-4.63c1.12,0,2.23,0.31,3.3,0.62c2.42,0.69,3.73,0.96,4.81-0.81c0.96-1.57,1.08-3.23,1.21-4.98
	c0.21-2.87,0.45-6.12,4.8-8.62c1.23-1.15,2.54-2.41,3.93-3.74c7.98-7.69,17.92-17.25,27.28-19.92c6.74-1.93,11.04,0.66,15.59,3.41
	c2.51,1.51,5.11,3.08,8.33,4.03c2.33,0.69,5.69,3.14,8.94,5.51c2.08,1.52,4.93,3.6,5.67,3.66l12.58-1.11
	c1.78-0.16,2.22-1.26,2.96-3.54c0.98-3.02,2.32-7.17,9.46-8.43c3.61-0.64,11.62-8.18,13.73-11.33l0.3-0.44h0.53
	c3.99,0,10.5,8.61,11.76,11.47c4.82,10.9-3.47,17.07-10.79,22.51c-7.15,5.32-13.32,9.91-8.85,18.01l0.07,0.17
	c0.74,2.23,1.98,4.31,3.17,6.31c2.6,4.38,5.28,8.89,2.52,14.68l6.58,2.92c0.08,0,0.16-0.01,0.25-0.01c0.4,0,0.91,0.05,1.57,0.11
	c0.59,0.06,1.52,0.15,1.93,0.11c0.39-0.49,0.75-0.97,1.11-1.43c1.38-1.81,2.69-3.53,4.92-5.11c1.25-0.89,2.68-1.21,4.05-1.52
	c1.14-0.26,2.22-0.5,3.06-1.05c1.32-0.86,1.08-4.32,0.89-7.1c-0.19-2.76-0.37-5.37,0.58-6.9c1.14-1.84,4.65-1.72,8.71-1.57
	c3.95,0.14,8.86,0.31,8.96-1.83c0.07-1.4-1.67-3.53-3.06-5.23c-0.74-0.91-1.44-1.77-1.89-2.53c-2.26-3.78-2.16-8.03-2.06-12.14
	c0.02-0.83,0.04-1.65,0.04-2.47v-0.23l0.1-0.21c0.42-0.87,0.81-2.99,1.23-5.23c0.98-5.28,2.21-11.86,5.43-13.9
	c1.02-0.64,2.14-0.8,3.35-0.48c0.98,0.26,2.31,0.44,3.73,0.62c4.02,0.53,9.03,1.2,10.64,4.45c0.61,1.23,0.89,2.62,1.16,3.96
	c0.39,1.95,0.76,3.8,2.09,4.78c1.22,0.91,2.71-0.05,4.67-1.51c0.88-0.65,1.71-1.27,2.5-1.53c2.48-0.81,5.37,0.26,8.43,1.4
	c3.12,1.16,6.35,2.35,9.07,1.49c2.8-0.9,5.44-2.58,8-4.2c0.54-0.35,1.09-0.69,1.63-1.02c1.62-1,3.64-1.65,5.59-2.28
	c2.15-0.69,4.37-1.4,5.83-2.54l0.19-0.15l0.24-0.04c4.33-0.81,8.5-2.36,12.54-3.86c0.38-0.14,0.77-0.28,1.15-0.43
	C631.6,508.41,630.43,501.42,633.47,491.15z"/>
<path id="Syria" class="st1" d="M824.66,583.16c-1.04-2.26-2.02-4.4-2.53-6.08c-0.14-0.47-0.26-0.97-0.37-1.5
	c-6.05-0.92-9.97-3.17-12.26-7.1c-2.99-5.13-4.66-8.78-5.87-11.45c-1.17-2.56-1.94-4.25-3.09-5.5c-0.32-0.35-0.64-0.73-0.97-1.14
	c-2.21-2.7-5.23-6.39-20.28-9.41c-13.17-2.65-13.67-9.63-14.07-15.23c-0.16-2.22-0.31-4.31-1.2-5.92c-1.12-2.02-2.39-3.74-3.48-5.1
	l-29.68,13.72c-13.74,5.68-24.96,3.84-36.83,1.9c-6.11-1-12.42-2.03-19.27-2.03c-4.21,0-5.89-1.36-7.36-3.09
	c-2.31-0.29-4.33-1.17-6.32-2.78c-2.03-1.65-4.42-0.04-7.85,2.6c-0.66,0.51-1.31,1.01-1.94,1.46c-0.48,0.34-0.98,0.75-1.51,1.19
	c-1.66,1.38-3.52,2.91-5.64,2.91c-0.36,0-0.73-0.04-1.1-0.14c-2.33-0.6-4.29-3.07-6.16-7.79c-0.38-0.95-0.72-1.85-1.06-2.74
	c-0.38,0.14-0.77,0.28-1.15,0.43c-4.04,1.5-8.22,3.06-12.63,3.91c-1.72,1.27-4.02,2.01-6.25,2.72c-1.84,0.59-3.74,1.2-5.15,2.07
	c-0.53,0.33-1.07,0.67-1.61,1.01c-2.67,1.69-5.42,3.44-8.46,4.42c-3.38,1.08-7.09-0.3-10.37-1.52c-2.72-1.01-5.29-1.97-7.11-1.37
	c-0.48,0.16-1.22,0.7-1.93,1.23c-1.92,1.42-4.55,3.37-7.05,1.5c-1.94-1.44-2.4-3.76-2.85-5.99c-0.26-1.27-0.5-2.47-0.99-3.46
	c-1.14-2.3-5.56-2.88-9.11-3.35c-1.48-0.2-2.88-0.38-3.98-0.67c-0.67-0.18-1.23-0.1-1.77,0.24c-2.49,1.57-3.67,7.93-4.53,12.57
	c-0.45,2.42-0.81,4.37-1.3,5.52c0,0.76-0.02,1.53-0.04,2.3c-0.1,4-0.19,7.78,1.78,11.06c0.38,0.63,1.04,1.44,1.73,2.29
	c1.69,2.07,3.6,4.42,3.5,6.59c-0.19,4.12-5.95,3.92-11.03,3.73c-2.55-0.09-6.41-0.23-6.94,0.63c-0.61,0.99-0.44,3.5-0.28,5.71
	c0.25,3.64,0.51,7.4-1.79,8.91c-1.14,0.75-2.45,1.04-3.71,1.33c-1.24,0.28-2.41,0.55-3.34,1.2c-1.99,1.41-3.15,2.93-4.49,4.7
	c-0.41,0.53-0.83,1.09-1.29,1.66c-0.55,0.69-1.59,0.63-3.53,0.44c-0.54-0.05-1.35-0.13-1.57-0.09l-0.3,0.05l-0.32-0.11l-6.99-3.11
	c-0.08,0.13-0.15,0.26-0.23,0.39c-0.77,1.32-1.65,2.82-3.33,3.41c-0.49,0.17-1.15,0.21-1.85,0.25c-0.39,0.02-1.03,0.06-1.43,0.14
	c0.08,0.11,0.19,0.25,0.36,0.42c3.47,3.69,0.94,7.76-0.92,10.73l-0.29,0.47c-0.55,0.89-0.37,1.52,0,2.56
	c0.38,1.07,0.9,2.54-0.61,3.96c-2.05,1.94-2.41,2.96-2.36,3.48c0.08,0.8,1.34,1.58,2.79,2.48c0.8,0.49,1.7,1.05,2.59,1.73
	c4.72,3.57,5.27,10.14,5.27,14.78c0.4,4.41-0.33,8.8-1.05,13.04c-0.57,3.43-1.17,6.97-1.17,10.58c0,6.48,0.36,9.68,2.49,15.87
	c0.41,1.18,0.87,2.37,1.32,3.53c0.3,0.77,0.6,1.54,0.87,2.3c3.41,2.11,14.75-0.63,19.65-1.82c0.93-0.23,1.73-0.42,2.34-0.55
	c2.03-0.45,3.53-0.18,4.48,0.8c1.78,1.85,0.85,5.42,0.11,8.29c-0.24,0.93-0.49,1.89-0.49,2.31c0,2.07,1.68,3.44,3.45,4.9
	c0.89,0.73,1.81,1.48,2.52,2.35c1.22,1.49,1.17,2.58,1.11,3.64c-0.03,0.56-0.06,1.08,0.09,1.78c0.23,1.11,1.01,2.28,1.77,3.41
	c0.54,0.8,1.09,1.63,1.48,2.48c1.96,4.25-4.93,13.95-7.49,15.96c-1.42,1.12-2.62,1.39-3.67,1.64c-1.39,0.32-2.39,0.55-3.86,2.79
	c-2.36,3.58-1.87,4.42,0.18,7.96c0.14,0.24,0.29,0.5,0.44,0.76c0.8,0.32,2.07,1.05,2.28,1.91l0.16,0.64l-0.53,0.4
	c-0.41,0.3-0.41,0.3-4.7-0.34c-2.23-0.33-5.29-0.79-5.97-0.79c-4.22,0-5.8,1.38-8.41,3.66c-0.66,0.58-1.41,1.23-2.26,1.92
	c-0.48,0.64-0.96,1.19-1.44,1.71c-1.32,1.48-2.28,2.54-2.16,4.74c0.04,0.8,1.7,2.07,3.15,2.68c1.02,0.43,2.41,1.15,2.58,2.48
	c0.2,1.54-1.28,2.69-2.86,3.9c-0.54,0.42-1.09,0.84-1.53,1.25c-2.47,2.34-3.84,4.18-5.21,7.03c-0.33,0.69-0.47,1.38-0.62,2.12
	c-0.21,1.05-0.45,2.22-1.29,3.36c-0.02,0.79,0.12,1.74,0.26,2.74c0.3,2.02,0.64,4.31-0.38,6.04c-0.22,0.37-0.49,0.77-0.79,1.21
	c-0.9,1.32-2.02,2.96-1.67,4.09c0.36,1.16,0.85,2.22,1.37,3.35c0.98,2.13,2,4.34,2,7.15c0,1.44-0.35,2.94-0.69,4.38
	c-0.48,2.04-0.93,3.96-0.46,5.67l0.03,0.16l0.43,3.98c0.63,1.65,1.97,2.23,3.67,2.95c0.66,0.28,1.35,0.58,2.03,0.96
	c2.75,1.52,4.49,3.69,6.16,5.79c1.28,1.61,2.5,3.12,4.14,4.38c1.58,1.21,3.21,2.69,4.94,4.27c4.02,3.66,8.58,7.81,13.14,8.75
	c2.38,0.49,4.98,1.23,7.74,2.02c4.95,1.42,10.07,2.88,14.24,2.95l121.18-78.71l122.88-69.65c0.95-1.93,1.76-4.37,2.61-6.94
	c1.97-5.93,4.19-12.63,9.12-15.77l1.53-37.4c0.03-0.71,0.05-1.45,0.07-2.21c0.15-5.24,0.33-11.75,3.31-16.06l0.07-0.1
	c2.67-3.86,6.32-9.14,4.67-14.1l-0.13-0.4l0.19-0.37C830.28,595.42,827.16,588.62,824.66,583.16z"/>
<path id="Iraq" class="st0" d="M1241.96,998.95l0.11-0.69c0.11-0.66-0.4-2.02-0.9-3.33c-0.68-1.8-1.44-3.84-1.44-5.83
	c0-6.13-4.97-10.68-9.89-12.01c-1.5-0.41-2.41-1.56-3.38-2.78c-1.24-1.56-2.64-3.32-5.71-4.22c-4.09-1.19-4.06-12.48-2.61-31.58
	c0.15-1.95,0.27-3.58,0.32-4.64c-2.8-0.57-5.82-0.58-9-0.58c-3.24-0.01-6.6-0.01-9.77-0.67c-1.27-0.27-1.63-1.7-1.38-10.12
	c0.02-0.54,0.03-0.96,0.03-1.18l0-0.94c-0.01-5.2-0.01-11.67,1.48-16.54l0.07-0.17c2.01-3.9,7.77-24.78,7.22-27.28
	c-0.9-4.08-4.75-8.9-8.14-13.15c-1.59-2-3.09-3.88-4.23-5.6c-0.38-0.57-1.27-1.33-2.14-2.06c-1.29-1.09-2.51-2.12-2.85-3.17
	c-0.3-0.92,0.08-1.91,0.45-2.86c0.37-0.96,0.75-1.95,0.39-2.66c-0.46-0.91-1.8-1.76-3.1-2.59c-1.73-1.1-3.52-2.24-3.95-3.94
	c-0.36-1.4-0.05-2.39,0.19-3.19c0.33-1.07,0.53-1.71-1.45-3.53c-2.88-2.65-5.14-2.33-8.87-1.79c-0.62,0.09-1.27,0.18-1.96,0.27
	c-6.75,0.84-15.32-6.9-19.05-12.44c-6.4-6.16-19.58-18.84-30.88-22.66c-2.76-0.93-5.94-0.97-9.02-1.01
	c-2.41-0.03-4.89-0.06-7.23-0.51c-0.86-0.17-1.16-0.7-1.27-1c-0.39-1.13,0.66-2.36,1.88-3.8c0.48-0.56,1.07-1.26,1.19-1.55
	c0.4-0.99,0.3-1.03-0.95-1.56c-0.75-0.32-1.68-0.71-2.34-1.54l-0.56-0.7l0.63-0.63c0.97-0.97,2.18-1.04,3.25-1.1
	c1.39-0.08,2.59-0.14,3.68-2.02c1.26-2.18-1.89-5.62-4.42-8.37c-1.44-1.57-2.69-2.93-3.25-4.12c-0.41-0.87-0.73-2.3-1.11-3.95
	c-0.39-1.72-1.19-5.29-1.91-5.64c-0.35-0.14-1.35-0.01-2.08,0.08c-1.45,0.18-2.94,0.38-3.86-0.43c-0.16-0.14-0.34-0.36-0.47-0.65
	c-4.87-0.12-5.47-0.41-5.63-1.34c-0.16-0.98-0.8-5.1-1.08-6.92c-1.59-0.09-3.2-1.12-5.8-4.6l-0.11-0.15l-0.05-0.18
	c-1.26-4.46-5.92-11.07-9.71-14.87c-0.93-0.94-1.9-1.52-2.75-2.04c-1.18-0.72-2.2-1.33-2.4-2.56c-0.19-1.14,0.46-2.46,2.22-4.52
	c0.96-1.13,1.11-2.12,1.28-3.26c0.04-0.28,0.09-0.56,0.14-0.85c-1.41-3.15-2.53-9.64-1.83-12.66c0.34-1.48,1.25-2.17,2.05-2.78
	c0.51-0.39,0.97-0.74,1.31-1.3c-0.13-0.12-0.26-0.23-0.39-0.35c-1.85-1.65-3.95-3.51-3.9-5.83c0.03-1.39,0.8-2.67,2.35-3.92
	c0.25-0.2,0.44-0.45,0.62-0.73c-0.29-0.43-0.61-0.88-1-1.36c-1.94-2.43-12.71-6.86-16.7-8.36l-0.21-0.08l-6.47-6.68l-9.62-8.19
	h-20.79l-6.27-6.74v-13.19l3.99-5.64l18.21-4.55v-13.6l-7.69-7.48l-4.18-11.44l1.38-10.1l4.02-1.81l-0.62-3.38l-6.22-3.01
	l-8.69,1.78l-7.73,7.33v21.76l-7,7l-10.14,3.72c-2.65,0.37-25.98,3.53-30.84-0.88c-3.92-3.56-3.45-14.15,1.4-31.46
	c3.1-11.06-0.06-18.56-2.21-22.04c-0.73-1.18-1.22-2.33-1.73-3.55c-1.44-3.43-3.24-7.7-12.24-15.46c-2.8-2.42-4.85-4.32-6.35-5.71
	c-4.56-4.23-4.56-4.23-9.63-3.33l-0.96,0.17c-6.63,1.16-13.66,2.86-15.56,6.65c-1.62,3.24-12.64,20.13-17.44,22.05
	c-5.06,2.02-16.13,3.05-34.83,3.24c-4.43,0.04-8.63,0.24-12.68,0.43c-6.63,0.31-12.43,0.57-17.38,0.09
	c0.06,0.22,0.11,0.45,0.18,0.65c0.47,1.55,1.43,3.63,2.43,5.83c2.61,5.69,5.84,12.74,3.88,17.28c1.67,5.77-2.2,11.37-5.05,15.48
	l-0.07,0.1c-2.64,3.82-2.82,10.01-2.96,14.98c-0.02,0.77-0.04,1.52-0.07,2.24l-1.57,38.49l-0.48,0.27
	c-4.61,2.62-6.78,9.17-8.7,14.95c-0.92,2.77-1.78,5.38-2.86,7.49l-0.14,0.27l-122.67,69.53l16.59,58.62l-5.69,3.8l2.09,9.72
	l13.41-2.22l1.96,9.95l-9.21,8.04l66.4,13.72l0.16,0.1l64.79,41.31l31.9,14.62l0.1,0.09l155.87,131.58l82.83,7.49l18.92,1.51
	l7.28-2.92l8.76-11.06l13.7-22.36c2.48-4.05,6.73-13.56,7.96-18.47c2.45-9.76,11.21-14.51,26.76-14.51c1.26,0,2.69-0.06,4.2-0.12
	c5.5-0.23,11.73-0.49,15.86,1.68c4.68,2.47,8.71,2.62,13.37,2.81c1.61,0.06,3.27,0.13,5.08,0.29c2.75-0.32,5.42,1.61,7.58,3.17
	c0.5,0.36,0.97,0.7,1.41,0.99c2.23,1.46,7.68,3.24,8.81,2.37l0.27-0.21h0.34c0.47,0,1.26-0.08,2.26-0.23L1241.96,998.95z"/>
<g id="Western_Kurdistan">
	<path class="st1" d="M880.88,486.43c-0.71-0.51-1.44-1.02-2.21-1.54c-1.02,0.74-2.26,1.75-3.56,2.82
		c-2.96,2.43-6.31,5.19-8.95,6.17c-3.99,1.48-8.11,2.83-12.58,4.13l-4.98,1.44l-1.47,0.31c-4.03,0.85-8.97,1.9-13.9,2.5
		c-6.33,0.76-12.65,0.78-17.01-1.31c-0.53-0.26-1.12-0.48-1.72-0.69c-4.95-1.68-12.1-1.67-18.34-0.56
		c-3.18,0.57-6.13,1.42-8.42,2.47l-21.56,9.96l-3.78,1.75c1.07,1.36,2.29,3.04,3.36,5c1.1,1.99,1.26,4.3,1.44,6.74
		c0.39,5.44,0.8,11.07,12.47,13.42c15.75,3.17,19.03,7.18,21.43,10.11c0.3,0.37,0.59,0.72,0.89,1.05c1.37,1.49,2.2,3.3,3.44,6.03
		c1.2,2.63,2.84,6.22,5.78,11.27c1.91,3.28,5.09,5.17,10.2,6.05c-0.57-4.88-0.06-11.38,1.44-17.28c0.05-0.18,0.09-0.36,0.14-0.54
		c0.03-0.11,0.06-0.21,0.09-0.32c1.23-4.57,3.07-8.7,5.5-11.33c0.02-0.02,0.04-0.04,0.06-0.06c0.19-0.2,0.38-0.39,0.57-0.58
		c0.04-0.04,0.08-0.08,0.12-0.12c0.18-0.16,0.36-0.32,0.55-0.46c0.05-0.04,0.1-0.09,0.15-0.13c0.23-0.18,0.47-0.34,0.71-0.49
		c3.36-2.08,8.16-2.83,12.81-3.56c0.66-0.1,1.32-0.21,1.96-0.31c1.92-0.32,3.72-0.65,5.29-1.11c4.3-1.26,8.87-4.7,12.77-8.54
		c2.34-2.3,4.44-4.75,6.09-6.96l16.74-22.14v-0.08c0-2.92,0.01-7.81-1.74-9.79C883.62,488.53,882.32,487.48,880.88,486.43z"/>
	<path class="st1" d="M643.54,528.53c1.6,0.41,3.31-1,4.96-2.37c0.56-0.46,1.09-0.9,1.63-1.28c0.61-0.43,1.24-0.92,1.87-1.41
		c3.08-2.38,6.92-5.34,10.33-2.57c0.95,0.77,1.88,1.34,2.85,1.73c-0.07-0.07-0.14-0.15-0.21-0.22c-0.07-0.07-0.14-0.14-0.22-0.22
		c-0.21-0.21-0.44-0.41-0.69-0.62c-0.01-0.01-0.02-0.02-0.03-0.03c-4.14-3.47-6.67-5.27-10.42-5.58c-1.71-0.14-3.66,0.02-6.14,0.47
		c-0.71,0.13-1.41,0.28-2.1,0.45c-0.23,0.05-0.45,0.11-0.67,0.17c-0.56,0.14-1.12,0.29-1.68,0.45c-0.14,0.04-0.29,0.08-0.43,0.12
		c-0.7,0.21-1.41,0.43-2.14,0.67c-0.16,0.05-0.32,0.11-0.48,0.16c-0.74,0.25-1.5,0.51-2.28,0.79c0.33,0.87,0.68,1.76,1.05,2.69
		C640.31,525.9,641.93,528.11,643.54,528.53z"/>
</g>
<g id="Southern_Kurdistan">
	<path class="st0" d="M1071.8,713.26c0.05-0.05,0.1-0.11,0.15-0.16c0.23-0.24,0.47-0.48,0.75-0.73c1.95-1.73,1.68-3.44,1.31-5.8
		c-0.16-0.98-0.32-2-0.32-3.1c0-0.12-0.02-0.24-0.07-0.36c0-0.01-0.01-0.02-0.02-0.04c-0.04-0.12-0.1-0.23-0.17-0.35
		c-0.01-0.02-0.03-0.04-0.04-0.06c-0.07-0.11-0.15-0.23-0.24-0.35c-0.1-0.14-0.22-0.27-0.35-0.41c-0.49,0.67-1.07,1.1-1.56,1.48
		c-0.74,0.57-1.14,0.9-1.31,1.64c-0.45,1.93,0.06,6.22,0.98,9.37c0.07-0.11,0.16-0.23,0.25-0.35c0.02-0.03,0.04-0.06,0.06-0.09
		C1071.39,713.72,1071.59,713.49,1071.8,713.26z"/>
	<path class="st0" d="M1014.17,641.18l-3.2,4.51v11.76l5.15,5.53h20.66l10.29,8.76l6.19,6.39c2.26,0.86,14.81,5.73,17.35,8.9
		c0.07,0.08,0.13,0.17,0.2,0.25c0.09-0.53,0.16-1.08,0.23-1.62c0.31-2.5,0.69-5.61,4.01-5.61c1.29,0,2.46,0.78,3.69,1.61
		c1.65,1.11,3.21,2.16,4.98,1.36c0.59-0.72-0.68-5.5-1.29-7.79c-0.63-2.38-1.18-4.44-1.18-5.72c0-3.45,5.21-12.87,9.19-12.87
		c1.76-0.17,2.64-2.81,3.48-5.36c0.81-2.45,1.58-4.76,3.42-5.36c1.04-0.33,2.17-0.05,3.47,0.87c0.25,0.05,0.76,0,1.41-0.15
		c1.98-0.45,5.3-1.75,6.92-3.58c0.67-0.75,0.79-1.34,0.76-1.73c-0.01-0.08-0.02-0.15-0.03-0.21c-0.03-0.13-0.07-0.22-0.1-0.29
		c-1.02-2.4-1.68-4.93-2.32-7.37c-0.79-2.99-1.53-5.81-2.84-8.3c-0.72-1.35-1.48-2.39-2.21-3.4c-1.8-2.45-3.35-4.57-2.54-9.33
		c0.12-0.71,0.06-1.95-0.01-3.27c-0.17-3.31-0.36-7.05,1.97-7.92c0.32-0.12,0.86-0.19,2.39-0.37c3.21-0.38,12.98-1.55,13.99-4.19
		c0.19-0.5-0.04-1.13-0.67-1.88c-0.47-0.17-2.15-0.04-3.16,0.04c-0.75,0.06-1.48,0.12-2.14,0.13c-0.66,0.01-1.24-0.03-1.69-0.15
		c-3.97-1.13-8.06-1.12-12-1.1c-4.84,0.02-9.51,0.04-13.62-1.97c-2.47-1.2-4.73-3.13-6.71-6.23c-2.35-3.68-5.97-3.98-10.12-3.98
		c-3.29,0-5.05-0.41-6.05-1.43c-1.08-1.1-1.06-2.63-1.02-4.56c0.02-1.12,0.04-2.39-0.12-3.88l-0.01-0.1l0.01-0.1
		c0.32-3.39-3.38-19.82-5.49-20.88c-2.38,0.57-4.82,0.1-7.05-1.36c-2.86-1.87-5.01-5.19-5.61-8.67c-0.09-0.51-0.1-1.01-0.07-1.51
		c0.11-1.48,0.7-2.89,1.28-4.26c1.02-2.43,1.91-4.53,0.1-6.74c-1.1-1.35-3.26-2.03-5.36-2.69c-2.03-0.64-3.96-1.25-5.12-2.49
		c-0.16-0.18-0.31-0.37-0.44-0.57c-0.34-0.54-0.44-1.13-0.39-1.77c0.09-1.07,0.62-2.27,1.2-3.58c0.82-1.87,1.72-3.91,1.67-5.97
		c-0.02-0.94-0.24-1.89-0.74-2.83c-0.34-0.63-1.24-1.23-2.18-1.87c-1.09-0.73-2.33-1.56-3.09-2.72c-1.05-1.62-1.17-3.03-1.27-4.39
		c-0.06-0.75-0.12-1.46-0.33-2.21l-3.59-1.06c-2.94-1.68-5.89-0.36-9.57,4.3c-2.21,2.8-4.62,2.96-6.56,3.1
		c-1.98,0.13-3.28,0.22-4.1,3.13c-0.12,0.42-0.22,0.89-0.32,1.43c-0.32,1.74-1.01,2.68-2.08,2.79c-2.48,0.25-4.57-4.65-4.59-4.7
		c-0.58-1.38-1.04-2.35-1.38-3.05c-0.28-0.59-0.5-1.05-0.64-1.45c-0.43-1.21-0.22-1.9,0.61-3.99c0.21-0.52,0.46-1.15,0.75-1.94
		c0.1-0.26,0.2-0.54,0.31-0.83c0.63-1.73,0.03-3.91-1.65-5.98c-2.15-2.65-5.38-4.33-7.67-4c-1.9,0.27-5.98,2.79-7.76,4.67
		c-0.26,0.27-0.46,0.52-0.61,0.76c-2.11,3.32-5.16,2.76-7.86,2.27c-1.33-0.24-2.71-0.49-4.07-0.36c0,0-0.01,0-0.01,0
		c-2.32,0-5.48-1.28-8.27-2.41c-1.48-0.6-3.51-1.43-4-1.38c-1.12,0.29-2.06,0.41-2.86,0.4c-2.41-0.03-3.63-1.24-4.98-2.58
		c-0.8-0.79-1.62-1.62-2.86-2.38c-0.82-0.51-2-0.36-3.36-0.19c-1.37,0.17-2.93,0.36-4.41-0.16c-0.71-0.25-1.4-0.52-2.07-0.79
		c-0.77-0.31-1.51-0.6-2.25-0.84c-1.28-0.42-2.54-0.69-3.94-0.57c-0.31,0.03-0.63,0.07-0.96,0.14c-1.89,0.38-3.24,0.83-4.32,1.2
		c-3.25,1.1-4.61,1.32-9.27-1.79c-0.37-0.25-0.75-0.31-1.22-0.21c-0.19,0.04-0.38,0.11-0.58,0.19c-2.94,1.3-6.74,7.49-9.31,11.67
		c-1.19,1.93-2.12,3.46-2.84,4.34c-0.27,0.33-0.56,0.63-0.87,0.9c-1.24,1.08-2.78,1.69-4.38,2.09c-1.2,0.3-2.44,0.49-3.62,0.66
		c-1,0.15-1.95,0.29-2.83,0.49l-16.72,22.12c-4.8,6.42-12.55,14.06-19.89,16.22c-2.21,0.65-4.78,1.06-7.5,1.48
		c-4.45,0.7-9.05,1.42-12.07,3.29c-0.2,0.13-0.41,0.27-0.6,0.42c-0.06,0.05-0.13,0.11-0.19,0.16c-0.14,0.11-0.27,0.23-0.41,0.35
		c-0.06,0.06-0.12,0.12-0.18,0.18c-0.14,0.14-0.29,0.29-0.43,0.44c-0.04,0.04-0.08,0.09-0.11,0.13c-3.44,3.92-5.68,11.78-6.4,18.99
		c-0.04,0.37-0.07,0.74-0.1,1.11c-0.01,0.13-0.02,0.26-0.03,0.39c-0.19,2.82-0.15,5.5,0.15,7.72c4.93,0.54,10.85,0.26,17.67-0.05
		c4.07-0.19,8.29-0.38,12.76-0.43c18.19-0.18,29.35-1.2,34.11-3.1c3.77-1.51,14.36-17.02,16.39-21.09c2.29-4.58,9.52-6.42,17-7.73
		l0.95-0.17c5.89-1.04,6.21-0.94,11.34,3.83c1.48,1.38,3.52,3.26,6.29,5.66c9.36,8.07,11.26,12.58,12.78,16.2
		c0.5,1.19,0.94,2.22,1.59,3.27c2.33,3.76,5.74,11.83,2.44,23.63c-4.5,16.06-5.2,26.51-1.98,29.44c3.15,2.86,19.09,1.81,29.11,0.4
		l9.42-3.48l6.11-6.11v-21.8l8.77-8.32l9.92-2.03l7.74,3.75l1.08,5.92l-4.44,2l-1.16,8.51l3.85,10.55l7.96,7.75v16L1014.17,641.18z"
		/>
	<path class="st0" d="M1093.64,756.52c0.05-0.28,0.12-0.59,0.19-0.93c0.36-1.65,0.96-4.42,0.12-5.53c-0.16-0.22-0.48-0.51-1.28-0.56
		c-1.42-0.08-2.46,0.18-3.37,0.42c-0.03,0.01-0.07,0.02-0.1,0.03c-0.08,0.02-0.15,0.04-0.23,0.06c0.24,1.59,0.74,4.81,0.97,6.29
		C1090.42,756.37,1091.45,756.46,1093.64,756.52z"/>
</g>
<path id="Eastern_Kurdistan" class="st0" d="M1040.97,330.69c0.78-0.1,1.58-0.21,2.35-0.32c-0.94-1.48-2.09-2.81-3.28-4.2
	c-1.3-1.51-2.65-3.08-3.73-4.88c-0.81-1.36-1.07-3.21-1.31-5c-0.08-0.61-0.17-1.23-0.28-1.82c-0.02-0.08-0.03-0.16-0.05-0.24
	c-0.04-0.21-0.08-0.41-0.13-0.61c-0.03-0.13-0.07-0.26-0.11-0.39c-0.04-0.13-0.07-0.27-0.11-0.4c-0.14-0.1-0.21-0.12-0.21-0.12
	c-0.01,0.04-0.23,0.36-0.36,0.54c-0.38,0.54-0.96,1.33-1.93,1.32c-0.95-0.02-1.79-0.76-2.91-2.55c-1.02-1.63-1.55-3.52-1.6-5.76
	c-0.03-0.01-0.06-0.03-0.09-0.04c-0.35-0.14-0.73-0.27-1.12-0.39c-0.06-0.02-0.11-0.04-0.17-0.05c-0.43-0.13-0.87-0.26-1.31-0.39
	c-1.01-0.29-1.96-0.57-2.68-0.89c-0.77-0.34-1.29-0.78-1.75-1.17c-0.68-0.58-1.13-0.96-2.28-0.96c-2.68,0-3.28,1.97-4.04,5.18
	c-0.08,0.34-0.16,0.68-0.25,1.02c-0.26,1.02-0.57,2.02-1.05,2.85c-0.4,0.69-0.87,1.28-1.33,1.84c-0.45,0.56-0.88,1.1-1.21,1.69
	c-0.53,0.94-0.6,2.28-0.68,3.57c-0.02,0.42-0.05,0.84-0.08,1.24c0,1.2,0.26,2.4,0.5,3.57c0.39,1.85,0.76,3.6-0.2,5.02
	c-0.27,0.4-0.62,0.74-1.07,1.02c-0.74,0.48-1.74,0.82-3.05,1.05c-3.57,0.61-5.59-0.27-7.37-1.04c-1.24-0.54-2.41-1.05-4.09-1.05
	c-1.37,0-2.72-0.15-4.03-0.3c-0.89-0.1-1.74-0.2-2.54-0.24c-0.05,0.48-0.05,1.17,0.01,1.89c0.09,1.2,0.33,2.47,0.64,2.92l0.61,0.15
	v0.78c0,2.11,1.09,5.78,2.11,7.88c0.12,0.23,0.85,1.06,1.43,1.72c0.94,1.06,1.73,1.98,2.34,2.79c0.81,1.07,1.28,1.95,1.3,2.68
	c0.01,0.18-0.02,0.36-0.07,0.53c-0.1,0.33-0.31,0.6-0.6,0.79l-0.16,0.43l-0.71,0.04c-1.08,0-1.64,0.1-1.91,0.17
	c0.24,0.37,0.8,0.97,1.16,1.35c0.47,0.5,0.96,1.02,1.34,1.55c1.42,1.98,1.36,4.72,1.31,7.14c-0.01,0.42-0.02,0.82-0.02,1.21
	c0,2.95,1.31,4.38,2.69,5.9c1.25,1.37,2.64,2.89,2.62,5.46c0,0.59-0.08,1.24-0.25,1.96c-0.07,0.31-0.17,0.69-0.29,1.11
	c-0.54,2.02-1.65,6.22-0.65,7.61c3.86,5.36,3.96,9.27,3.28,16.32c-0.05,0.6-0.13,1.17-0.21,1.73c-0.1,0.65-0.19,1.27-0.22,1.94
	c0.16,0,0.34,0,0.51-0.01c3.53-0.04,8.37-0.1,9.62,2.57c0.09,0.19,0.16,0.39,0.2,0.59c0.33,1.42-0.39,3.15-2.17,5.26
	c-2.28,2.7-3.23,5.28-4.25,8c-0.89,2.4-1.81,4.88-3.67,7.56c-0.06,0.09-0.14,0.2-0.22,0.33c-1.23,1.97-4.49,8.28-5.43,10.83
	c4.04,0.52,8.97,3.35,11.43,6c0.51,0.55,1.08,0.97,1.7,1.32c1.03,0.58,2.17,0.96,3.28,1.32c2.13,0.7,4.47,1.47,5.12,3.87
	c0.21,0.8,0.24,1.78,0.01,3.01c-0.5,2.59,0.05,3.72,0.68,5.02c0.47,0.96,1,2.05,1,3.67c0,1.3-0.12,2.58-0.24,3.82
	c-0.35,3.62-0.65,6.74,2.05,9.45c0.45,0.45,1.74,1.1,2.99,1.72c3.08,1.54,6.91,3.45,7.24,6.39c0.17,1.48-0.59,2.97-2.25,4.43
	l-1.02,7.04c0.09,0.27,0.17,0.54,0.23,0.8c0.18,0.78,0.24,1.51,0.29,2.17c0.07,0.91,0.14,1.73,0.49,2.59
	c0.12,0.29,0.27,0.58,0.46,0.88c0.53,0.82,1.54,1.5,2.52,2.15c1.11,0.74,2.25,1.51,2.83,2.58c2.09,3.87,0.39,7.73-0.85,10.56
	c-0.61,1.38-1.29,2.94-0.95,3.47c0.66,1.03,2.51,1.61,4.48,2.23c2.26,0.71,4.83,1.52,6.3,3.33c2.56,3.14,1.3,6.14,0.19,8.78
	c-0.69,1.64-1.34,3.19-1.09,4.66c0.51,2.95,2.32,5.75,4.73,7.33c1.24,0.81,3.21,1.66,5.56,1.08c0.42-0.1,1.07-0.1,1.77,0.5
	c0.41,0.35,0.81,0.92,1.21,1.65c2.67,4.91,4.9,17.16,4.92,20.44c0,0.12,0,0.23-0.01,0.33c0.17,1.58,0.14,2.95,0.13,4.05
	c-0.03,1.67-0.02,2.65,0.45,3.12c0.56,0.57,2.03,0.83,4.62,0.83c4.39,0,8.91,0.38,11.8,4.9c4.69,7.33,11.14,7.31,18.64,7.28
	c0.51,0,1.03,0,1.54,0c3.61,0,7.31,0.12,11.02,1.18c0.07,0.02,0.15,0.04,0.25,0.05c0.67,0.08,1.88-0.01,2.88-0.09
	c2.55-0.2,4.02-0.27,4.76,0.57c1.21,1.38,1.58,2.72,1.09,3.98c-1.27,3.31-8.25,4.58-15.62,5.46c-0.86,0.1-1.76,0.21-1.96,0.27
	c-0.94,0.35-0.75,3.99-0.65,5.94c0.08,1.5,0.14,2.79-0.02,3.71c-0.67,3.92,0.46,5.47,2.18,7.81c0.74,1.01,1.59,2.16,2.37,3.65
	c0.36,0.67,0.67,1.37,0.96,2.08c0.86,2.14,1.46,4.42,2.05,6.64c0.47,1.78,0.95,3.61,1.57,5.37c0.21,0.59,0.43,1.17,0.67,1.73
	c0.44,1.04,0.75,3.11-2.08,5.37c-2.76,2.2-8.31,4.14-9.84,3.04c-0.52-0.38-1.26-0.8-1.75-0.64c-0.87,0.28-1.54,2.3-2.13,4.08
	c-0.31,0.94-0.64,1.92-1.03,2.83c-0.87,2.01-2.09,3.68-4.25,3.89c-2.36,0-7.29,8.01-7.29,10.87c0,1.02,0.57,3.14,1.11,5.2
	c0.73,2.75,1.41,5.29,1.46,7.17c0.03,1.25-0.21,2.21-0.9,2.73c-0.11,0.09-0.24,0.16-0.38,0.23c-2.78,1.25-5.07-0.29-6.91-1.53
	c-0.97-0.65-1.89-1.27-2.57-1.27c-1.34,0-1.65,0.87-2.01,3.85c-0.14,1.18-0.31,2.44-0.71,3.58c1.39,2.4,1.85,4.79,1.68,8.58
	c-0.03,0.7-0.12,1.32-0.27,1.89c0.09,0.09,0.18,0.18,0.26,0.27c0.11,0.11,0.21,0.22,0.31,0.33c0.08,0.09,0.16,0.18,0.24,0.27
	c0.08,0.09,0.15,0.18,0.22,0.28c0.06,0.08,0.11,0.16,0.17,0.24c0.08,0.12,0.16,0.24,0.23,0.36c0.08,0.13,0.15,0.26,0.21,0.39
	c0.04,0.08,0.07,0.16,0.1,0.24c0.04,0.12,0.08,0.23,0.12,0.35c0.02,0.07,0.04,0.14,0.05,0.21c0.04,0.19,0.07,0.38,0.07,0.58
	c0,0.94,0.15,1.88,0.29,2.79c0.4,2.53,0.81,5.15-1.96,7.61c-0.22,0.19-0.4,0.38-0.58,0.56c-0.05,0.06-0.11,0.11-0.16,0.17
	c-0.12,0.14-0.24,0.27-0.34,0.4c-0.04,0.05-0.08,0.09-0.11,0.14c-0.12,0.16-0.23,0.32-0.32,0.47c-0.03,0.06-0.06,0.11-0.09,0.16
	c-0.07,0.12-0.13,0.24-0.19,0.36c-0.02,0.04-0.04,0.08-0.06,0.12c-0.06,0.15-0.12,0.3-0.17,0.44c-0.02,0.06-0.03,0.11-0.05,0.17
	c-0.01,0.04-0.02,0.07-0.03,0.11c0.67,1.01,2.15,1.8,3.71,2.63c2.13,1.14,4.54,2.43,6.01,4.75c1.91,3.02,1.85,5.68,1.78,8.77
	c-0.03,1.36-0.06,2.77,0.07,4.37c0.33,4.11,3.66,9.07,4.78,10.63c0.03-0.01,0.07-0.02,0.1-0.02c0.14-0.03,0.28-0.07,0.43-0.11
	c0.15-0.04,0.32-0.08,0.49-0.12c0.92-0.23,2.04-0.45,3.5-0.36c1.21,0.07,2.14,0.52,2.76,1.34c1.4,1.84,0.73,4.92,0.24,7.16
	c-0.04,0.19-0.08,0.38-0.12,0.55c8.77,0.11,23.92-0.33,28.92-0.49l-8.2-14.55l4.44-1.87v-12.54l4.79-0.3l7.02,7.44l6.66,0.21
	l11.62,8.45h19.6l13.96-4.59v-7.19l-1.17-4.88l-4.44-4.24l-12.57-10.62v-8l11.68-14.54l6.7-0.92l15.11,3.25l11.21,4.15l23.24-1.9
	l12.3,4.03h7.93v-12.96l-15.27-15.07h-21.58l-6.5-2.89v-5.82l8.09-5.68l14.24-21.87l-2.45-8.62l-0.79-8.15l10.55,3.96l2.39,2.09
	h5.71l1.12-1.12l0.88-2.82l2.01-0.58v-11.41h-2.38l-0.9-5.42l-4.86-8.69h-15.96l-8.92-13.3l-4.88-3.6l-1.69-20.55l-8.17-6.81
	l-6.71,1.73l-7.3,5.58h-6.99l-11.86-7.95l-15.59-17.46l-19.98-1.49L1125.63,511l-2.94-5.88l-8.7-9.3h-9.6
	c-1.99,3.07-4.09,6.64-4.2,7.39c-0.19,1.31-1.28,5.75-1.91,8.29c-0.24,0.94-2.39,5.29-3.05,6.61l-0.38,0.75l-0.81-0.24
	c-0.27-0.08-6.57-1.99-9.85-4.62c-1.2-0.96-2.11-1.63-2.91-2.23c-1.33-0.98-2.29-1.69-3.51-2.92c-1.83-1.82-1.38-5.3-0.76-10.11
	c0.16-1.26,0.33-2.61,0.47-4.02c0.49-4.95-2.92-7.32-6.87-10.07c-0.6-0.42-1.21-0.84-1.8-1.27c-2.18-1.58-2.96-2.71-3.65-3.7
	c-0.82-1.17-1.59-2.28-4.96-4.3c-2.87-1.72-3.31-1.99-3.38-2.78c-0.05-0.64,0.39-1.01,0.62-1.22c0.39-0.33,1.2-1.02,0.4-4.23
	c-1.09-4.36-2.19-6.6-3.15-8.57c-0.7-1.44-1.37-2.8-1.92-4.72c-0.81-2.83,0-4.24,0.85-5.73c0.65-1.14,1.39-2.42,1.65-4.81
	c0.45-4.02-0.7-5.04-3.21-7.28c-0.66-0.59-1.41-1.25-2.21-2.06c-1.83-1.83-2.54-2.97-3.17-3.97c-0.69-1.1-1.23-1.96-3.23-3.57
	c-2.56-2.06-2.29-4.27-2.06-6.23c0.19-1.58,0.37-3.07-0.67-4.83c-2.06-3.48,0.26-6.37,2.31-8.92c1.07-1.34,2.18-2.72,2.79-4.21
	c0.61-1.48,1.29-2.55,1.83-3.42c1.24-1.96,1.86-2.94,0.68-6.48c-1.95-5.86-1.95-9.12-1.95-13.64c0-6.91-0.91-24.86-3.15-28.32
	c-0.79-1.22-2.33-3.04-3.97-4.96c-5.43-6.4-8.58-10.43-6.54-12.47C1034.13,331.58,1037.3,331.17,1040.97,330.69z"/>
<path id="Northern_Kurdistan" class="st0" d="M1031.05,484.81c-0.18-1.63-2.83-3.14-5.17-4.34c-0.33-0.17-0.66-0.33-0.97-0.49
	c-0.39-0.2-0.77-0.38-1.12-0.56c-1.05-0.54-1.88-1.02-2.39-1.53c-2.32-2.32-2.86-4.89-2.86-7.5c0-1.18,0.12-2.38,0.23-3.56
	c0.12-1.19,0.23-2.42,0.23-3.63c0-1.16-0.37-1.91-0.79-2.79c-0.69-1.42-1.47-3.03-0.85-6.27c0.58-3.03-0.74-3.6-3.78-4.6
	c-1.93-0.63-4.12-1.35-5.82-3.19c-2.38-2.57-7.69-5.45-11.22-5.45h-1v-1c0-0.51,0.34-1.52,0.86-2.75c1.56-3.72,4.77-9.54,5.4-10.46
	c1.5-2.17,2.36-4.25,3.12-6.26c0.11-0.29,0.21-0.57,0.32-0.86c1.03-2.77,2.09-5.63,4.59-8.6c1.4-1.66,2.02-3.01,1.69-3.71
	c-0.71-1.5-5.49-1.45-7.79-1.42c-0.36,0-0.69,0.01-0.99,0.01h-0.72l-0.17-0.52c-0.04-0.04-0.09-0.1-0.14-0.14l-0.52-0.17v-0.72
	c0-1,0.13-1.85,0.25-2.69c0.08-0.52,0.15-1.04,0.2-1.61c0.66-6.85,0.58-10.12-2.91-14.97c-0.54-0.75-0.76-1.73-0.78-2.86
	c-0.03-1.89,0.52-4.18,1.12-6.43c0.11-0.41,0.2-0.77,0.27-1.06c0.66-2.79-0.42-3.98-1.91-5.61c-1.43-1.57-3.21-3.52-3.21-7.24
	c0-0.4,0.01-0.82,0.02-1.25c0.04-2.11,0.09-4.5-0.94-5.93c-0.3-0.42-0.74-0.89-1.17-1.34c-1.13-1.21-2.21-2.34-1.68-3.55
	c0.06-0.13,0.12-0.24,0.21-0.35c0.57-0.74,1.73-0.94,3.01-0.98l0.01-0.03l0.1-0.03c-0.45-0.95-2.22-2.97-3.04-3.89
	c-0.99-1.12-1.52-1.73-1.73-2.17c-1.04-2.14-2.15-5.75-2.3-8.22c-0.33-0.34-0.51-0.76-0.58-0.94c-0.38-0.92-0.67-2.57-0.71-4.07
	c0-0.17-0.01-0.33,0-0.49c0.01-0.48,0.04-0.94,0.11-1.34c0.07-0.4,0.18-0.73,0.32-0.97l0.29-0.48h0.56c1.11,0,2.27,0.13,3.5,0.27
	c1.25,0.14,2.55,0.29,3.8,0.29c2.1,0,3.52,0.62,4.89,1.22c0.42,0.18,0.83,0.36,1.26,0.52c1.29,0.48,2.74,0.77,4.97,0.38
	c0.37-0.06,0.71-0.14,1.01-0.22c0.91-0.25,1.51-0.59,1.79-1.01c0.48-0.71,0.23-1.93-0.1-3.48c-0.25-1.21-0.54-2.57-0.54-4.07
	c0.04-0.47,0.06-0.86,0.08-1.26c0.09-1.53,0.18-3.1,0.93-4.44c0.41-0.73,0.91-1.35,1.39-1.96c0.43-0.54,0.84-1.05,1.17-1.61
	c0.49-0.84,0.78-2.04,1.08-3.32c0.71-2.99,1.58-6.72,5.99-6.72c1.89,0,2.78,0.76,3.57,1.44c0.39,0.33,0.76,0.65,1.26,0.87
	c0.6,0.27,1.49,0.52,2.43,0.8c0.37,0.11,0.75,0.22,1.12,0.33l-7.56-9.62c-0.64-0.56-1.26-1.11-1.88-1.66
	c-4.55-4.04-8.53-7.57-13.92-9.88c0.01,0.81-0.07,1.62-0.22,2.4c-0.65,3.24-1.29,4.87-2.6,7.82c-1.37,3.07-3.22,4.35-6.84,4.71
	c-3.46,0.35-4.93-0.39-8.16-2c-1.68-0.84-2.75-1.1-4.23-1.47c-1.19-0.29-2.54-0.63-4.54-1.34c-2.44-0.87-3.62-0.25-5.58,0.78
	c-1.16,0.61-2.47,1.3-4.29,1.78c-3.58,0.96-4.57,0.25-5.65-0.93c-0.35-0.38-0.68-0.74-1.27-1.05c-2.53-1.34-1.64-3.64-1.05-5.17
	c0.21-0.54,0.43-1.11,0.54-1.63l0.24-1.12c0.52-2.45,1.5-7.02,1.5-8.85c0-2.39,0.92-5.21,3.17-9.71c0.03-0.09,0.03-0.21,0.04-0.32
	c0.01-0.5-0.19-1.24-0.61-2.24c-0.29-0.15-0.61-0.29-0.95-0.44c-1.14-0.5-2.43-1.07-3.23-2.23c-1.66-2.39-3.44-3.92-3.46-3.93
	c-0.03-0.02-2.26-1.92-7.51-5.32c-5.38-3.48-5.48-3.55-8.09-6.16c-1.92-1.92-2.1-2.98-2.3-4.21c-0.09-0.54-0.18-1.1-0.47-1.86
	c-1.08-2.87-0.05-5.96,1.26-9.86c0.51-1.52,1.01-2.59,1.45-3.54c0.68-1.46,1.18-2.51,1.35-4.48c0.16-1.79,0.63-3.09,1.04-4.24
	c0.41-1.16,0.74-2.08,0.65-3.2c-0.19-2.16-2.37-5.43-6.15-9.21c-2.91-2.91-10.44,1.11-16.05,6.37c-5.23,4.91-7.28,5.59-15.91,8.47
	c-3.65,1.22-4.25,1.77-4.34,1.95c0.01,0.08,0.19,0.44,0.32,0.69c0.41,0.8,1.02,2,0.89,3.77c-0.3,4.22,0.27,6.6,1.24,10.13
	c0.38,1.39,0.65,1.48,1.24,1.68c0.71,0.24,1.69,0.57,2.75,2.15c1.87,2.8,3.1,4.66,7.14,8.38c1.87,1.73,3.09,1.24,4.94,0.49
	c1.5-0.6,3.36-1.36,5.75-0.72c1.16,0.31,1.89,0.46,2.43,0.57c1.4,0.29,1.63,0.43,2.42,1.53c0.24,0.33,0.56,0.78,1.06,1.41
	c1.91,2.38,2.34,4.79,2.89,7.83c0.24,1.34,0.52,2.86,0.95,4.61c0.33,1.32,0.15,2.42-0.53,3.28c-1.56,1.96-5.28,1.9-8.28,1.85
	c-1.11-0.02-2.63-0.04-2.98,0.13c-1.54,0.77-3.89,3.24-6.62,6.96c-2.66,3.62-7.47,5.95-7.67,6.05l-0.24,0.11l-0.26-0.02
	c-5.44-0.36-14.69-0.7-16.39-0.06c-1.34,0.5-3.78,0.53-6.36,0.57c-2.46,0.03-5.53,0.08-6.5,0.63c-1.86,1.06-7.49,10.28-9.38,15.91
	c-1.64,4.9-8.92,8.56-13.27,10.74c-1.01,0.51-1.89,0.95-2.37,1.25c-1.6,1-4.83-0.16-10.87-2.45c-4.81-1.83-10.26-3.9-14.12-4.06
	c-4.47-0.17-9.9,4.51-14.72,8.65c-3.26,2.8-6.34,5.45-8.97,6.5c-4.93,1.97-9.28-1.16-13.89-4.48c-1.99-1.43-4.05-2.91-6.31-4.13
	c-5.26-2.85-8.65-1.48-11.93-0.16c-1.21,0.49-2.34,0.95-3.56,1.21c-1.96,0.42-5.33,2.41-8.59,4.33c-3.95,2.33-7.68,4.52-10.19,4.88
	c-3.34,0.48-7.02-1.48-11.29-3.74c-1.94-1.03-3.94-2.09-6.05-2.99c-0.94-0.4-1.91-0.84-2.9-1.28c-6.07-2.73-12.96-5.83-21.7-5.3
	c-8.31,0.5-11.98,6.37-14.42,10.25c-0.47,0.75-0.91,1.45-1.33,2.03c-2.28,3.13-0.27,30.69,1.57,33.05c2.33,2.99,1.1,6.24-0.08,9.38
	c-0.14,0.36-0.27,0.72-0.4,1.09c-0.8,2.19-4.7,3.75-11.02,6.06c-3.44,1.25-7.33,2.67-8.16,3.73c-1.38,1.78,0.32,7.49,2.11,13.54
	c0.62,2.1,1.27,4.27,1.87,6.52c0.38,1.42,0.69,2.55,0.95,3.46c1.09,3.9,1.18,4.22,0.16,6.16c-0.28,0.54-0.67,1.28-1.15,2.43
	c-1.47,3.56-9.22,9.59-16.06,14.92c-3.79,2.95-7.38,5.74-8.15,6.84c-2.04,2.91-2.04,8.92-2.04,15.29c0,4.16-4.66,15.62-9.59,27.75
	c-3.2,7.88-6.22,15.32-7.58,19.9c-2.89,9.74-1.76,16.41,1.61,25.65c0.79-0.28,1.58-0.56,2.38-0.83c0.15-0.05,0.3-0.1,0.45-0.15
	c0.74-0.24,1.49-0.48,2.24-0.71c0.12-0.04,0.24-0.07,0.36-0.1c0.6-0.17,1.21-0.34,1.82-0.49c0.22-0.06,0.44-0.11,0.66-0.16
	c0.73-0.17,1.46-0.33,2.2-0.47c0.54-0.1,1.07-0.19,1.57-0.26c7.04-1.02,10.28,0.6,15.49,4.85c0.37,0.3,0.75,0.62,1.15,0.95
	c1.3,1.09,2.16,2.16,2.91,3.1l0.18,0.22c1.21,0.07,2.53-0.03,4.12-0.31c2.39-0.42,8.13-9.54,11.57-14.98
	c2.73-4.33,4.32-6.82,5.3-7.64c2.95-2.46,4.96-1.74,16.11,2.26l0.3,0.11c11.32,4.06,21.88,0.08,24.84-1.24
	c2.56-1.14,3.14-9.35,3.42-13.29c0.08-1.06,0.14-1.98,0.22-2.62c0.56-4.48,3.66-4.24,6.15-4.03c2.33,0.19,3,0.85,4.06,2.1
	c0.33,0.39,0.7,0.82,1.22,1.35c1.53,1.53,4,6.98,7.08,13.93c0.91,2.07,1.78,4.02,2.42,5.37c1.1,2.31,2.86,4.38,4.73,6.57
	c0.38,0.45,0.77,0.9,1.16,1.37l25.8-11.92c7.88-3.64,22.46-4.93,30.19-1.21c7.13,3.43,21.21,0.45,29.62-1.33l1.4-0.3l4.91-1.42
	c4.42-1.28,8.49-2.62,12.44-4.08c2.32-0.86,5.54-3.51,8.38-5.84c1.58-1.29,3.06-2.52,4.26-3.31l0.55-0.37l0.56,0.37
	c2.72,1.81,5.12,3.48,6.95,5.55c2.08,2.36,2.23,6.92,2.24,10.29c0.7-0.13,1.41-0.24,2.12-0.34c2.92-0.43,5.95-0.88,7.62-2.94
	c0.24-0.29,0.52-0.69,0.84-1.17c0.53-0.8,1.16-1.83,1.85-2.95c2.76-4.49,5.32-8.47,7.81-10.78c1.13-1.05,2.24-1.75,3.35-1.99
	c1-0.22,1.93-0.05,2.75,0.5c1.16,0.77,2.04,1.3,2.78,1.65c1.87,0.88,2.8,0.57,4.74-0.09c1.13-0.38,2.55-0.86,4.57-1.26
	c3.21-0.64,5.79,0.39,8.28,1.38c0.65,0.26,1.3,0.52,1.99,0.76c0.52,0.18,1.08,0.24,1.66,0.23c0.37-0.01,0.76-0.04,1.16-0.09
	c0.22-0.03,0.45-0.05,0.68-0.08c0.6-0.07,1.2-0.15,1.8-0.17c0.6-0.02,1.19,0.02,1.76,0.17c0.38,0.1,0.75,0.25,1.1,0.48
	c1.43,0.89,2.38,1.83,3.21,2.67c1.64,1.64,2.54,2.54,5.97,1.65c0.8-0.21,1.99,0.18,4.2,1.06c0.31,0.13,0.65,0.26,1.01,0.41
	c2.5,1.01,5.61,2.27,7.44,2.27c1.54-0.15,3.13,0.14,4.53,0.39c2.91,0.53,4.48,0.71,5.81-1.37c1.52-2.39,7-5.94,9.78-6.33
	c0.37-0.05,0.76-0.07,1.16-0.05c0.07,0,0.14,0.02,0.21,0.03c0.88,0.07,1.79,0.3,2.71,0.67c1.96,0.79,3.91,2.21,5.43,4.07
	c1.33,1.65,2.12,3.39,2.3,5.06c0.11,1,0.01,1.97-0.32,2.87c-0.44,1.21-0.8,2.11-1.08,2.82c-0.85,2.13-0.85,2.13-0.03,3.83
	c0.35,0.73,0.83,1.72,1.42,3.15c0.65,1.55,1.93,3.23,2.48,3.45c0.08-0.11,0.24-0.42,0.37-1.14c1.06-5.85,3.82-6.04,6.25-6.2
	c0.67-0.05,1.32-0.09,1.97-0.24c1.07-0.25,2.12-0.79,3.16-2.1c0.25-0.32,0.59-0.74,0.99-1.21c0.86-1,2.04-2.22,3.47-3.15
	c2.1-1.36,4.71-2.08,7.56-0.5l2.66,0.76l1-6.9l0.3-0.25C1030.54,486.64,1031.15,485.66,1031.05,484.81z"/>
</svg>
